{
.appVersion = "1342";
DisplayStrings = (
"/a-oriya/aa-oriya/i-oriya/ii-oriya/u-oriya/uu-oriya/rVocalic-oriya/rrVocalic-oriya/lVocalic-oriya/llVocalic-oriya/e-oriya/aiVowel-oriya/oVowel-oriya/auVowel-oriya/ka-oriya/kha-oriya/ga-oriya/gha-oriya/nga-oriya/ca-oriya/cha-oriya/ja-oriya/jha-oriya/nya-oriya/tta-oriya/ttha-oriya/dda-oriya/ddha-oriya/nna-oriya/ta.-oriya/tha-oriya/da-oriya/dha-oriya/na-oriya/pa-oriya/pha-oriya/ba-oriya/bha-oriya/ma-oriya/ya-oriya/ra-oriya/la-oriya/lla-oriya/va-oriya/sha-oriya/ssa-oriya/sa-oriya/ha-oriya/rra-oriya/wa-oriya/rha-oriya/yya-oriya",

glyphs = (
{
glyphname = exclam;
lastChange = "2022-01-16 17:41:15 +0000";
layers = (
{
components = (
{
name = period;
transform = "{1, 0, 0, 1, 30, 0}";
}
);
layerId = "555B79C6-6D98-46E7-9307-77C37975E414";
paths = (
{
closed = 1;
nodes = (
"117 217 LINE SMOOTH",
"116 199 OFFCURVE",
"130 194 OFFCURVE",
"139 194 CURVE SMOOTH",
"193 194 OFFCURVE",
"205 233 OFFCURVE",
"249 429 CURVE SMOOTH",
"292 620 LINE SMOOTH",
"294 631 OFFCURVE",
"295 639 OFFCURVE",
"295 646 CURVE SMOOTH",
"295 681 OFFCURVE",
"266 696 OFFCURVE",
"228 696 CURVE SMOOTH",
"182 696 OFFCURVE",
"132 683 OFFCURVE",
"130 627 CURVE SMOOTH"
);
}
);
width = 305;
},
{
components = (
{
name = period;
}
);
layerId = "9F2BC935-6AE7-4E60-84C9-D3B586669EA4";
paths = (
{
closed = 1;
nodes = (
"83 211 LINE SMOOTH",
"82 201 OFFCURVE",
"90 194 OFFCURVE",
"99 194 CURVE SMOOTH",
"151 194 OFFCURVE",
"144 233 OFFCURVE",
"188 429 CURVE SMOOTH",
"232 624 LINE SMOOTH",
"234 632 OFFCURVE",
"234 639 OFFCURVE",
"234 646 CURVE SMOOTH",
"234 677 OFFCURVE",
"220 696 OFFCURVE",
"172 696 CURVE SMOOTH",
"131 696 OFFCURVE",
"113 673 OFFCURVE",
"110 630 CURVE SMOOTH"
);
}
);
width = 259;
}
);
unicode = 0021;
},
{
glyphname = numbersign;
lastChange = "2022-01-16 17:44:59 +0000";
layers = (
{
layerId = "555B79C6-6D98-46E7-9307-77C37975E414";
paths = (
{
closed = 1;
nodes = (
"303 505 OFFCURVE",
"307 553 OFFCURVE",
"307 589 CURVE SMOOTH",
"307 676 OFFCURVE",
"274 696 OFFCURVE",
"251 696 CURVE SMOOTH",
"239 696 OFFCURVE",
"216 691 OFFCURVE",
"213 671 CURVE SMOOTH",
"116 88 LINE SMOOTH",
"107 32 OFFCURVE",
"105 -3 OFFCURVE",
"106 -39 CURVE SMOOTH",
"106 -56 OFFCURVE",
"109 -81 OFFCURVE",
"111 -94 CURVE SMOOTH",
"121 -150 OFFCURVE",
"137 -170 OFFCURVE",
"158 -170 CURVE SMOOTH",
"180 -170 OFFCURVE",
"198 -155 OFFCURVE",
"203 -123 CURVE SMOOTH",
"293 441 LINE SMOOTH"
);
},
{
closed = 1;
nodes = (
"113 410 LINE SMOOTH",
"59 409 OFFCURVE",
"40 365 OFFCURVE",
"40 345 CURVE SMOOTH",
"40 330 OFFCURVE",
"44 321 OFFCURVE",
"61 321 CURVE SMOOTH",
"559 328 LINE SMOOTH",
"614 329 OFFCURVE",
"631 374 OFFCURVE",
"631 401 CURVE SMOOTH",
"631 411 OFFCURVE",
"629 418 OFFCURVE",
"613 418 CURVE SMOOTH",
"612 418 OFFCURVE",
"611 417 OFFCURVE",
"559 416 CURVE SMOOTH"
);
},
{
closed = 1;
nodes = (
"87 197 LINE SMOOTH",
"33 196 OFFCURVE",
"14 152 OFFCURVE",
"14 132 CURVE SMOOTH",
"14 117 OFFCURVE",
"18 108 OFFCURVE",
"35 108 CURVE SMOOTH",
"533 115 LINE SMOOTH",
"588 116 OFFCURVE",
"605 161 OFFCURVE",
"605 188 CURVE SMOOTH",
"605 198 OFFCURVE",
"603 205 OFFCURVE",
"587 205 CURVE SMOOTH",
"586 205 OFFCURVE",
"585 204 OFFCURVE",
"533 203 CURVE SMOOTH"
);
},
{
closed = 1;
nodes = (
"538 505 OFFCURVE",
"542 553 OFFCURVE",
"542 589 CURVE SMOOTH",
"542 676 OFFCURVE",
"509 696 OFFCURVE",
"486 696 CURVE SMOOTH",
"474 696 OFFCURVE",
"451 691 OFFCURVE",
"448 671 CURVE SMOOTH",
"351 88 LINE SMOOTH",
"342 32 OFFCURVE",
"340 -3 OFFCURVE",
"341 -39 CURVE SMOOTH",
"341 -56 OFFCURVE",
"344 -81 OFFCURVE",
"346 -94 CURVE SMOOTH",
"356 -150 OFFCURVE",
"372 -170 OFFCURVE",
"393 -170 CURVE SMOOTH",
"415 -170 OFFCURVE",
"433 -155 OFFCURVE",
"438 -123 CURVE SMOOTH",
"528 441 LINE SMOOTH"
);
}
);
width = 643;
},
{
layerId = "9F2BC935-6AE7-4E60-84C9-D3B586669EA4";
paths = (
{
closed = 1;
nodes = (
"293 505 OFFCURVE",
"297 553 OFFCURVE",
"297 589 CURVE SMOOTH",
"297 676 OFFCURVE",
"279 696 OFFCURVE",
"256 696 CURVE SMOOTH",
"244 696 OFFCURVE",
"236 691 OFFCURVE",
"233 671 CURVE SMOOTH",
"136 88 LINE SMOOTH",
"127 32 OFFCURVE",
"125 -13 OFFCURVE",
"125 -49 CURVE SMOOTH",
"125 -66 OFFCURVE",
"125 -81 OFFCURVE",
"126 -94 CURVE SMOOTH",
"129 -150 OFFCURVE",
"145 -170 OFFCURVE",
"163 -170 CURVE SMOOTH",
"180 -170 OFFCURVE",
"188 -155 OFFCURVE",
"191 -136 CURVE SMOOTH",
"283 441 LINE SMOOTH"
);
},
{
closed = 1;
nodes = (
"118 405 LINE SMOOTH",
"69 404 OFFCURVE",
"50 375 OFFCURVE",
"50 355 CURVE SMOOTH",
"50 341 OFFCURVE",
"52 333 OFFCURVE",
"68 333 CURVE SMOOTH",
"551 340 LINE SMOOTH",
"606 341 OFFCURVE",
"623 369 OFFCURVE",
"623 396 CURVE SMOOTH",
"623 406 OFFCURVE",
"621 413 OFFCURVE",
"605 413 CURVE SMOOTH",
"604 413 OFFCURVE",
"603 412 OFFCURVE",
"551 411 CURVE SMOOTH"
);
},
{
closed = 1;
nodes = (
"88 185 LINE SMOOTH",
"39 184 OFFCURVE",
"20 155 OFFCURVE",
"20 135 CURVE SMOOTH",
"20 121 OFFCURVE",
"29 113 OFFCURVE",
"44 113 CURVE SMOOTH",
"521 120 LINE SMOOTH",
"576 121 OFFCURVE",
"593 149 OFFCURVE",
"593 176 CURVE SMOOTH",
"593 186 OFFCURVE",
"591 193 OFFCURVE",
"575 193 CURVE SMOOTH",
"574 193 OFFCURVE",
"573 192 OFFCURVE",
"521 191 CURVE SMOOTH"
);
},
{
closed = 1;
nodes = (
"513 505 OFFCURVE",
"517 553 OFFCURVE",
"517 589 CURVE SMOOTH",
"517 676 OFFCURVE",
"499 696 OFFCURVE",
"476 696 CURVE SMOOTH",
"464 696 OFFCURVE",
"456 691 OFFCURVE",
"453 671 CURVE SMOOTH",
"361 88 LINE SMOOTH",
"352 32 OFFCURVE",
"345 -13 OFFCURVE",
"345 -49 CURVE SMOOTH",
"345 -66 OFFCURVE",
"345 -81 OFFCURVE",
"346 -94 CURVE SMOOTH",
"349 -150 OFFCURVE",
"365 -170 OFFCURVE",
"383 -170 CURVE SMOOTH",
"400 -170 OFFCURVE",
"408 -155 OFFCURVE",
"411 -136 CURVE SMOOTH",
"503 441 LINE SMOOTH"
);
}
);
width = 643;
}
);
unicode = 0023;
},
{
glyphname = percent;
lastChange = "2022-01-16 17:44:50 +0000";
layers = (
{
layerId = "555B79C6-6D98-46E7-9307-77C37975E414";
paths = (
{
closed = 1;
nodes = (
"55 -19 OFFCURVE",
"65 -10 OFFCURVE",
"78 6 CURVE SMOOTH",
"558 602 LINE SMOOTH",
"572 619 OFFCURVE",
"585 640 OFFCURVE",
"585 659 CURVE SMOOTH",
"585 679 OFFCURVE",
"575 701 OFFCURVE",
"551 701 CURVE SMOOTH",
"543 701 OFFCURVE",
"529 699 OFFCURVE",
"520 687 CURVE SMOOTH",
"62 119 LINE SMOOTH",
"27 76 OFFCURVE",
"6 48 OFFCURVE",
"5 29 CURVE SMOOTH",
"4 5 OFFCURVE",
"17 -19 OFFCURVE",
"39 -19 CURVE SMOOTH"
);
},
{
closed = 1;
nodes = (
"259 408 OFFCURVE",
"322 482 OFFCURVE",
"322 574 CURVE SMOOTH",
"322 648 OFFCURVE",
"280 710 OFFCURVE",
"193 710 CURVE SMOOTH",
"99 710 OFFCURVE",
"39 635 OFFCURVE",
"39 545 CURVE SMOOTH",
"39 469 OFFCURVE",
"88 408 OFFCURVE",
"169 408 CURVE SMOOTH"
);
},
{
closed = 1;
nodes = (
"142 497 OFFCURVE",
"125 521 OFFCURVE",
"125 555 CURVE SMOOTH",
"125 595 OFFCURVE",
"151 625 OFFCURVE",
"189 623 CURVE SMOOTH",
"221 622 OFFCURVE",
"236 598 OFFCURVE",
"236 565 CURVE SMOOTH",
"236 523 OFFCURVE",
"211 497 OFFCURVE",
"176 497 CURVE SMOOTH"
);
},
{
closed = 1;
nodes = (
"501 -26 OFFCURVE",
"564 48 OFFCURVE",
"564 140 CURVE SMOOTH",
"564 214 OFFCURVE",
"522 276 OFFCURVE",
"435 276 CURVE SMOOTH",
"341 276 OFFCURVE",
"281 201 OFFCURVE",
"281 111 CURVE SMOOTH",
"281 35 OFFCURVE",
"330 -26 OFFCURVE",
"411 -26 CURVE SMOOTH"
);
},
{
closed = 1;
nodes = (
"384 63 OFFCURVE",
"367 87 OFFCURVE",
"367 121 CURVE SMOOTH",
"367 161 OFFCURVE",
"393 191 OFFCURVE",
"431 189 CURVE SMOOTH",
"463 188 OFFCURVE",
"478 164 OFFCURVE",
"478 131 CURVE SMOOTH",
"478 89 OFFCURVE",
"453 63 OFFCURVE",
"418 63 CURVE SMOOTH"
);
}
);
width = 595;
},
{
layerId = "9F2BC935-6AE7-4E60-84C9-D3B586669EA4";
paths = (
{
closed = 1;
nodes = (
"43 -15 OFFCURVE",
"53 -7 OFFCURVE",
"63 5 CURVE SMOOTH",
"545 602 LINE SMOOTH",
"559 619 OFFCURVE",
"575 640 OFFCURVE",
"575 659 CURVE SMOOTH",
"575 679 OFFCURVE",
"567 695 OFFCURVE",
"550 696 CURVE SMOOTH",
"543 697 OFFCURVE",
"532 698 OFFCURVE",
"524 688 CURVE SMOOTH",
"64 119 LINE SMOOTH",
"29 76 OFFCURVE",
"6 38 OFFCURVE",
"5 21 CURVE SMOOTH",
"4 3 OFFCURVE",
"15 -15 OFFCURVE",
"31 -15 CURVE SMOOTH"
);
},
{
closed = 1;
nodes = (
"259 422 OFFCURVE",
"319 489 OFFCURVE",
"319 573 CURVE SMOOTH",
"319 640 OFFCURVE",
"279 696 OFFCURVE",
"196 696 CURVE SMOOTH",
"107 696 OFFCURVE",
"50 628 OFFCURVE",
"50 546 CURVE SMOOTH",
"50 477 OFFCURVE",
"96 422 OFFCURVE",
"174 422 CURVE SMOOTH"
);
},
{
closed = 1;
nodes = (
"144 491 OFFCURVE",
"126 517 OFFCURVE",
"126 555 CURVE SMOOTH",
"126 598 OFFCURVE",
"153 632 OFFCURVE",
"193 629 CURVE SMOOTH",
"227 628 OFFCURVE",
"243 602 OFFCURVE",
"243 566 CURVE SMOOTH",
"243 519 OFFCURVE",
"217 491 OFFCURVE",
"180 491 CURVE SMOOTH"
);
},
{
closed = 1;
nodes = (
"481 -12 OFFCURVE",
"541 55 OFFCURVE",
"541 139 CURVE SMOOTH",
"541 206 OFFCURVE",
"501 262 OFFCURVE",
"418 262 CURVE SMOOTH",
"329 262 OFFCURVE",
"272 194 OFFCURVE",
"272 112 CURVE SMOOTH",
"272 43 OFFCURVE",
"318 -12 OFFCURVE",
"396 -12 CURVE SMOOTH"
);
},
{
closed = 1;
nodes = (
"366 57 OFFCURVE",
"348 83 OFFCURVE",
"348 121 CURVE SMOOTH",
"348 164 OFFCURVE",
"375 197 OFFCURVE",
"415 195 CURVE SMOOTH",
"449 194 OFFCURVE",
"465 168 OFFCURVE",
"465 132 CURVE SMOOTH",
"465 85 OFFCURVE",
"439 57 OFFCURVE",
"402 57 CURVE SMOOTH"
);
}
);
width = 585;
}
);
unicode = 0025;
},
{
glyphname = ampersand;
lastChange = "2022-01-16 17:44:40 +0000";
layers = (
{
layerId = "555B79C6-6D98-46E7-9307-77C37975E414";
paths = (
{
closed = 1;
nodes = (
"630 -15 OFFCURVE",
"698 22 OFFCURVE",
"698 44 CURVE SMOOTH",
"698 55 OFFCURVE",
"692 59 OFFCURVE",
"677 65 CURVE SMOOTH",
"613 91 OFFCURVE",
"558 120 OFFCURVE",
"503 178 CURVE SMOOTH",
"309 385 LINE SMOOTH",
"266 430 OFFCURVE",
"230 484 OFFCURVE",
"230 528 CURVE SMOOTH",
"230 586 OFFCURVE",
"267 616 OFFCURVE",
"306 616 CURVE SMOOTH",
"346 616 OFFCURVE",
"373 584 OFFCURVE",
"373 534 CURVE SMOOTH",
"373 474 OFFCURVE",
"333 423 OFFCURVE",
"280 383 CURVE",
"313 324 LINE",
"397 348 OFFCURVE",
"519 438 OFFCURVE",
"519 547 CURVE SMOOTH",
"519 635 OFFCURVE",
"454 696 OFFCURVE",
"311 696 CURVE SMOOTH",
"174 696 OFFCURVE",
"88 629 OFFCURVE",
"88 513 CURVE SMOOTH",
"88 436 OFFCURVE",
"126 394 OFFCURVE",
"195 318 CURVE SMOOTH",
"342 157 LINE SMOOTH",
"477 9 OFFCURVE",
"514 -15 OFFCURVE",
"554 -15 CURVE SMOOTH"
);
},
{
closed = 1;
nodes = (
"145 362 OFFCURVE",
"8 289 OFFCURVE",
"8 162 CURVE SMOOTH",
"8 44 OFFCURVE",
"93 -13 OFFCURVE",
"251 -13 CURVE SMOOTH",
"472 -13 OFFCURVE",
"657 167 OFFCURVE",
"657 387 CURVE SMOOTH",
"657 400 OFFCURVE",
"651 410 OFFCURVE",
"635 410 CURVE SMOOTH",
"597 410 OFFCURVE",
"522 389 OFFCURVE",
"513 361 CURVE SMOOTH",
"501 324 OFFCURVE",
"518 263 OFFCURVE",
"482 190 CURVE SMOOTH",
"457 139 OFFCURVE",
"373 78 OFFCURVE",
"274 78 CURVE SMOOTH",
"215 78 OFFCURVE",
"165 116 OFFCURVE",
"165 185 CURVE SMOOTH",
"165 246 OFFCURVE",
"201 306 OFFCURVE",
"261 321 CURVE",
"233 372 LINE"
);
}
);
width = 677;
},
{
layerId = "9F2BC935-6AE7-4E60-84C9-D3B586669EA4";
paths = (
{
closed = 1;
nodes = (
"572 -15 OFFCURVE",
"671 18 OFFCURVE",
"671 40 CURVE SMOOTH",
"671 51 OFFCURVE",
"652 55 OFFCURVE",
"637 61 CURVE SMOOTH",
"573 87 OFFCURVE",
"526 118 OFFCURVE",
"471 176 CURVE SMOOTH",
"277 383 LINE SMOOTH",
"234 428 OFFCURVE",
"200 484 OFFCURVE",
"200 528 CURVE SMOOTH",
"200 586 OFFCURVE",
"237 616 OFFCURVE",
"291 616 CURVE SMOOTH",
"346 616 OFFCURVE",
"373 584 OFFCURVE",
"373 534 CURVE SMOOTH",
"373 474 OFFCURVE",
"327 415 OFFCURVE",
"268 374 CURVE",
"298 324 LINE",
"382 348 OFFCURVE",
"489 442 OFFCURVE",
"489 547 CURVE SMOOTH",
"489 635 OFFCURVE",
"433 696 OFFCURVE",
"296 696 CURVE SMOOTH",
"166 696 OFFCURVE",
"88 622 OFFCURVE",
"88 513 CURVE SMOOTH",
"88 436 OFFCURVE",
"122 394 OFFCURVE",
"191 318 CURVE SMOOTH",
"338 157 LINE SMOOTH",
"473 9 OFFCURVE",
"513 -15 OFFCURVE",
"539 -15 CURVE SMOOTH"
);
},
{
closed = 1;
nodes = (
"130 362 OFFCURVE",
"8 289 OFFCURVE",
"8 170 CURVE SMOOTH",
"8 44 OFFCURVE",
"93 -13 OFFCURVE",
"236 -13 CURVE SMOOTH",
"437 -13 OFFCURVE",
"626 158 OFFCURVE",
"626 378 CURVE SMOOTH",
"626 389 OFFCURVE",
"620 395 OFFCURVE",
"611 395 CURVE SMOOTH",
"588 395 OFFCURVE",
"522 383 OFFCURVE",
"513 355 CURVE SMOOTH",
"501 318 OFFCURVE",
"518 263 OFFCURVE",
"482 190 CURVE SMOOTH",
"457 139 OFFCURVE",
"373 67 OFFCURVE",
"259 67 CURVE SMOOTH",
"185 67 OFFCURVE",
"135 110 OFFCURVE",
"135 185 CURVE SMOOTH",
"135 252 OFFCURVE",
"182 314 OFFCURVE",
"242 329 CURVE",
"218 372 LINE"
);
}
);
width = 650;
}
);
unicode = 0026;
},
{
glyphname = quotesingle;
lastChange = "2022-01-16 17:44:29 +0000";
layers = (
{
layerId = "555B79C6-6D98-46E7-9307-77C37975E414";
paths = (
{
closed = 1;
nodes = (
"40 425 LINE SMOOTH",
"38 403 OFFCURVE",
"50 391 OFFCURVE",
"70 391 CURVE SMOOTH",
"94 391 OFFCURVE",
"102 401 OFFCURVE",
"120 447 CURVE SMOOTH",
"192 629 LINE SMOOTH",
"212 680 OFFCURVE",
"185 689 OFFCURVE",
"150 689 CURVE SMOOTH",
"77 689 LINE SMOOTH",
"68 689 OFFCURVE",
"62 685 OFFCURVE",
"61 670 CURVE SMOOTH"
);
}
);
width = 219;
},
{
layerId = "9F2BC935-6AE7-4E60-84C9-D3B586669EA4";
paths = (
{
closed = 1;
nodes = (
"40 413 LINE SMOOTH",
"39 403 OFFCURVE",
"48 391 OFFCURVE",
"58 391 CURVE SMOOTH",
"83 391 OFFCURVE",
"88 400 OFFCURVE",
"103 447 CURVE SMOOTH",
"162 629 LINE SMOOTH",
"179 681 OFFCURVE",
"155 689 OFFCURVE",
"120 689 CURVE SMOOTH",
"78 689 LINE SMOOTH",
"69 689 OFFCURVE",
"63 685 OFFCURVE",
"62 675 CURVE SMOOTH"
);
}
);
width = 188;
}
);
unicode = 0027;
},
{
glyphname = parenleft;
lastChange = "2022-01-16 17:44:04 +0000";
layers = (
{
layerId = "555B79C6-6D98-46E7-9307-77C37975E414";
paths = (
{
closed = 1;
nodes = (
"119 628 OFFCURVE",
"319 689 CURVE SMOOTH",
"342 696 OFFCURVE",
"350 696 OFFCURVE",
"358 696 CURVE SMOOTH",
"376 696 OFFCURVE",
"387 683 OFFCURVE",
"387 668 CURVE SMOOTH",
"387 651 OFFCURVE",
"379 647 OFFCURVE",
"365 641 CURVE SMOOTH",
"180 561 OFFCURVE",
"144 359 OFFCURVE",
"144 206 CURVE SMOOTH",
"144 -24 OFFCURVE",
"215 -91 OFFCURVE",
"274 -119 CURVE SMOOTH",
"287 -126 OFFCURVE",
"291 -132 OFFCURVE",
"291 -143 CURVE SMOOTH",
"291 -157 OFFCURVE",
"279 -170 OFFCURVE",
"254 -170 CURVE SMOOTH",
"141 -170 OFFCURVE",
"10 -25 OFFCURVE",
"10 199 CURVE SMOOTH",
"10 412 OFFCURVE"
);
}
);
width = 395;
},
{
layerId = "9F2BC935-6AE7-4E60-84C9-D3B586669EA4";
paths = (
{
closed = 1;
nodes = (
"133 636 OFFCURVE",
"319 689 CURVE SMOOTH",
"345 696 OFFCURVE",
"350 696 OFFCURVE",
"358 696 CURVE SMOOTH",
"376 696 OFFCURVE",
"385 684 OFFCURVE",
"385 669 CURVE SMOOTH",
"385 662 OFFCURVE",
"379 657 OFFCURVE",
"365 651 CURVE SMOOTH",
"180 576 OFFCURVE",
"124 359 OFFCURVE",
"124 206 CURVE SMOOTH",
"124 -24 OFFCURVE",
"215 -101 OFFCURVE",
"274 -129 CURVE SMOOTH",
"287 -136 OFFCURVE",
"288 -140 OFFCURVE",
"288 -147 CURVE SMOOTH",
"288 -160 OFFCURVE",
"275 -170 OFFCURVE",
"254 -170 CURVE SMOOTH",
"152 -170 OFFCURVE",
"25 -25 OFFCURVE",
"25 199 CURVE SMOOTH",
"25 412 OFFCURVE"
);
}
);
width = 395;
}
);
unicode = 0028;
},
{
glyphname = asterisk;
lastChange = "2022-01-16 17:43:52 +0000";
layers = (
{
layerId = "555B79C6-6D98-46E7-9307-77C37975E414";
paths = (
{
closed = 1;
nodes = (
"-3 510 OFFCURVE",
"20 486 OFFCURVE",
"48 486 CURVE SMOOTH",
"54 486 OFFCURVE",
"74 486 OFFCURVE",
"103 495 CURVE SMOOTH",
"121 501 LINE SMOOTH",
"138 507 OFFCURVE",
"145 490 OFFCURVE",
"129 479 CURVE SMOOTH",
"70 437 LINE SMOOTH",
"55 426 OFFCURVE",
"42 410 OFFCURVE",
"42 385 CURVE SMOOTH",
"42 353 OFFCURVE",
"68 330 OFFCURVE",
"97 330 CURVE SMOOTH",
"124 330 OFFCURVE",
"148 350 OFFCURVE",
"154 374 CURVE SMOOTH",
"172 444 LINE SMOOTH",
"177 463 OFFCURVE",
"191 461 OFFCURVE",
"194 442 CURVE SMOOTH",
"203 380 LINE SMOOTH",
"207 351 OFFCURVE",
"231 331 OFFCURVE",
"257 331 CURVE SMOOTH",
"289 331 OFFCURVE",
"316 359 OFFCURVE",
"316 390 CURVE SMOOTH",
"316 409 OFFCURVE",
"310 421 OFFCURVE",
"299 431 CURVE SMOOTH",
"242 479 LINE SMOOTH",
"228 491 OFFCURVE",
"236 504 OFFCURVE",
"255 500 CURVE SMOOTH",
"299 489 LINE SMOOTH",
"304 488 OFFCURVE",
"309 486 OFFCURVE",
"316 486 CURVE SMOOTH",
"348 486 OFFCURVE",
"375 515 OFFCURVE",
"375 548 CURVE SMOOTH",
"375 583 OFFCURVE",
"351 602 OFFCURVE",
"323 602 CURVE SMOOTH",
"308 602 OFFCURVE",
"296 595 OFFCURVE",
"284 588 CURVE SMOOTH",
"235 560 LINE SMOOTH",
"220 552 OFFCURVE",
"209 560 OFFCURVE",
"216 576 CURVE SMOOTH",
"242 638 LINE SMOOTH",
"246 648 OFFCURVE",
"249 656 OFFCURVE",
"249 669 CURVE SMOOTH",
"249 703 OFFCURVE",
"224 721 OFFCURVE",
"196 721 CURVE SMOOTH",
"163 721 OFFCURVE",
"132 699 OFFCURVE",
"132 662 CURVE SMOOTH",
"132 652 OFFCURVE",
"135 644 OFFCURVE",
"139 633 CURVE SMOOTH",
"162 576 LINE SMOOTH",
"168 560 OFFCURVE",
"158 551 OFFCURVE",
"143 560 CURVE SMOOTH",
"90 593 LINE SMOOTH",
"79 599 OFFCURVE",
"68 603 OFFCURVE",
"56 603 CURVE SMOOTH",
"24 603 OFFCURVE",
"-3 576 OFFCURVE",
"-3 541 CURVE SMOOTH"
);
}
);
width = 422;
},
{
layerId = "9F2BC935-6AE7-4E60-84C9-D3B586669EA4";
paths = (
{
closed = 1;
nodes = (
"-3 511 OFFCURVE",
"18 491 OFFCURVE",
"42 491 CURVE SMOOTH",
"47 491 OFFCURVE",
"51 491 OFFCURVE",
"90 499 CURVE SMOOTH",
"106 503 LINE SMOOTH",
"121 506 OFFCURVE",
"127 495 OFFCURVE",
"113 483 CURVE SMOOTH",
"64 444 LINE SMOOTH",
"50 434 OFFCURVE",
"38 420 OFFCURVE",
"38 399 CURVE SMOOTH",
"38 370 OFFCURVE",
"58 352 OFFCURVE",
"83 352 CURVE SMOOTH",
"107 352 OFFCURVE",
"126 369 OFFCURVE",
"133 391 CURVE SMOOTH",
"151 453 LINE SMOOTH",
"155 470 OFFCURVE",
"169 468 OFFCURVE",
"171 451 CURVE SMOOTH",
"180 396 LINE SMOOTH",
"185 370 OFFCURVE",
"203 353 OFFCURVE",
"225 353 CURVE SMOOTH",
"254 353 OFFCURVE",
"277 377 OFFCURVE",
"277 405 CURVE SMOOTH",
"277 421 OFFCURVE",
"272 431 OFFCURVE",
"262 440 CURVE SMOOTH",
"213 483 LINE SMOOTH",
"201 495 OFFCURVE",
"207 505 OFFCURVE",
"223 502 CURVE SMOOTH",
"263 494 LINE SMOOTH",
"267 492 OFFCURVE",
"272 491 OFFCURVE",
"277 491 CURVE SMOOTH",
"306 491 OFFCURVE",
"329 515 OFFCURVE",
"329 544 CURVE SMOOTH",
"329 574 OFFCURVE",
"309 590 OFFCURVE",
"284 590 CURVE SMOOTH",
"272 590 OFFCURVE",
"260 584 OFFCURVE",
"250 578 CURVE SMOOTH",
"206 555 LINE SMOOTH",
"193 547 OFFCURVE",
"184 555 OFFCURVE",
"189 569 CURVE SMOOTH",
"211 623 LINE SMOOTH",
"214 632 OFFCURVE",
"217 639 OFFCURVE",
"217 650 CURVE SMOOTH",
"217 680 OFFCURVE",
"197 696 OFFCURVE",
"172 696 CURVE SMOOTH",
"143 696 OFFCURVE",
"118 676 OFFCURVE",
"118 644 CURVE SMOOTH",
"118 635 OFFCURVE",
"120 627 OFFCURVE",
"124 619 CURVE SMOOTH",
"142 569 LINE SMOOTH",
"147 555 OFFCURVE",
"138 547 OFFCURVE",
"125 555 CURVE SMOOTH",
"78 581 LINE SMOOTH",
"69 585 OFFCURVE",
"60 590 OFFCURVE",
"49 590 CURVE SMOOTH",
"21 590 OFFCURVE",
"-3 569 OFFCURVE",
"-3 538 CURVE SMOOTH"
);
}
);
width = 376;
}
);
unicode = 002A;
},
{
glyphname = plus;
lastChange = "2022-01-16 17:43:40 +0000";
layers = (
{
layerId = "555B79C6-6D98-46E7-9307-77C37975E414";
paths = (
{
closed = 1;
nodes = (
"116 318 LINE SMOOTH",
"67 317 OFFCURVE",
"44 269 OFFCURVE",
"44 249 CURVE SMOOTH",
"44 235 OFFCURVE",
"50 227 OFFCURVE",
"66 227 CURVE SMOOTH",
"438 235 LINE SMOOTH",
"493 236 OFFCURVE",
"514 284 OFFCURVE",
"514 311 CURVE SMOOTH",
"514 321 OFFCURVE",
"508 328 OFFCURVE",
"492 328 CURVE SMOOTH"
);
},
{
closed = 1;
nodes = (
"346 459 OFFCURVE",
"348 475 OFFCURVE",
"348 487 CURVE SMOOTH",
"348 500 OFFCURVE",
"340 505 OFFCURVE",
"330 505 CURVE SMOOTH",
"303 505 OFFCURVE",
"257 488 OFFCURVE",
"252 433 CURVE SMOOTH",
"221 107 LINE SMOOTH",
"220 98 OFFCURVE",
"216 69 OFFCURVE",
"216 60 CURVE SMOOTH",
"216 46 OFFCURVE",
"223 40 OFFCURVE",
"237 40 CURVE SMOOTH",
"257 40 OFFCURVE",
"304 59 OFFCURVE",
"309 108 CURVE SMOOTH",
"343 429 LINE SMOOTH"
);
}
);
width = 558;
},
{
layerId = "9F2BC935-6AE7-4E60-84C9-D3B586669EA4";
paths = (
{
closed = 1;
nodes = (
"118 308 LINE SMOOTH",
"69 307 OFFCURVE",
"50 279 OFFCURVE",
"50 259 CURVE SMOOTH",
"50 245 OFFCURVE",
"52 237 OFFCURVE",
"68 237 CURVE SMOOTH",
"432 245 LINE SMOOTH",
"487 246 OFFCURVE",
"504 274 OFFCURVE",
"504 301 CURVE SMOOTH",
"504 311 OFFCURVE",
"502 318 OFFCURVE",
"486 318 CURVE SMOOTH"
);
},
{
closed = 1;
nodes = (
"335 459 OFFCURVE",
"337 475 OFFCURVE",
"337 487 CURVE SMOOTH",
"337 503 OFFCURVE",
"329 505 OFFCURVE",
"319 505 CURVE SMOOTH",
"292 505 OFFCURVE",
"261 488 OFFCURVE",
"256 433 CURVE SMOOTH",
"225 107 LINE SMOOTH",
"224 98 OFFCURVE",
"220 67 OFFCURVE",
"220 58 CURVE SMOOTH",
"220 42 OFFCURVE",
"227 40 OFFCURVE",
"241 40 CURVE SMOOTH",
"261 40 OFFCURVE",
"293 59 OFFCURVE",
"298 108 CURVE SMOOTH",
"332 429 LINE SMOOTH"
);
}
);
width = 554;
}
);
unicode = 002B;
},
{
glyphname = comma;
lastChange = "2022-01-16 17:43:10 +0000";
layers = (
{
layerId = "555B79C6-6D98-46E7-9307-77C37975E414";
paths = (
{
closed = 1;
nodes = (
"14 -152 OFFCURVE",
"23 -170 OFFCURVE",
"38 -170 CURVE SMOOTH",
"103 -170 OFFCURVE",
"217 -99 OFFCURVE",
"217 40 CURVE SMOOTH",
"217 97 OFFCURVE",
"182 146 OFFCURVE",
"127 146 CURVE SMOOTH",
"76 146 OFFCURVE",
"34 111 OFFCURVE",
"34 57 CURVE SMOOTH",
"34 6 OFFCURVE",
"79 -23 OFFCURVE",
"117 -23 CURVE SMOOTH",
"127 -23 OFFCURVE",
"138 -21 OFFCURVE",
"148 -17 CURVE",
"79 35 LINE",
"103 -3 OFFCURVE",
"107 -8 OFFCURVE",
"107 -22 CURVE SMOOTH",
"107 -67 OFFCURVE",
"85 -100 OFFCURVE",
"28 -125 CURVE SMOOTH",
"20 -128 OFFCURVE",
"14 -131 OFFCURVE",
"14 -141 CURVE SMOOTH"
);
}
);
width = 237;
},
{
layerId = "9F2BC935-6AE7-4E60-84C9-D3B586669EA4";
paths = (
{
closed = 1;
nodes = (
"20 -156 OFFCURVE",
"30 -170 OFFCURVE",
"42 -170 CURVE SMOOTH",
"104 -170 OFFCURVE",
"203 -99 OFFCURVE",
"203 40 CURVE SMOOTH",
"203 92 OFFCURVE",
"178 131 OFFCURVE",
"130 131 CURVE SMOOTH",
"88 131 OFFCURVE",
"51 102 OFFCURVE",
"51 53 CURVE SMOOTH",
"51 12 OFFCURVE",
"81 -16 OFFCURVE",
"119 -16 CURVE SMOOTH",
"129 -16 OFFCURVE",
"140 -14 OFFCURVE",
"150 -10 CURVE",
"94 35 LINE",
"118 -3 OFFCURVE",
"118 -8 OFFCURVE",
"118 -22 CURVE SMOOTH",
"118 -67 OFFCURVE",
"90 -107 OFFCURVE",
"32 -130 CURVE SMOOTH",
"24 -133 OFFCURVE",
"20 -137 OFFCURVE",
"20 -145 CURVE SMOOTH"
);
}
);
width = 223;
}
);
unicode = 002C;
},
{
glyphname = hyphen;
lastChange = "2022-01-16 17:43:29 +0000";
layers = (
{
layerId = "555B79C6-6D98-46E7-9307-77C37975E414";
paths = (
{
closed = 1;
nodes = (
"118 291 LINE SMOOTH",
"69 289 OFFCURVE",
"44 250 OFFCURVE",
"44 222 CURVE SMOOTH",
"44 205 OFFCURVE",
"51 195 OFFCURVE",
"64 195 CURVE SMOOTH",
"65 195 OFFCURVE",
"70 195 OFFCURVE",
"71 195 CURVE SMOOTH",
"255 202 LINE SMOOTH",
"312 204 OFFCURVE",
"328 249 OFFCURVE",
"328 278 CURVE SMOOTH",
"328 292 OFFCURVE",
"320 299 OFFCURVE",
"304 299 CURVE SMOOTH",
"303 299 OFFCURVE",
"302 299 OFFCURVE",
"250 297 CURVE SMOOTH"
);
}
);
width = 372;
},
{
layerId = "9F2BC935-6AE7-4E60-84C9-D3B586669EA4";
paths = (
{
closed = 1;
nodes = (
"118 279 LINE SMOOTH",
"69 277 OFFCURVE",
"50 249 OFFCURVE",
"50 229 CURVE SMOOTH",
"50 215 OFFCURVE",
"52 207 OFFCURVE",
"68 207 CURVE SMOOTH",
"69 207 OFFCURVE",
"70 207 OFFCURVE",
"71 207 CURVE SMOOTH",
"250 214 LINE SMOOTH",
"305 216 OFFCURVE",
"322 243 OFFCURVE",
"322 270 CURVE SMOOTH",
"322 280 OFFCURVE",
"320 287 OFFCURVE",
"304 287 CURVE SMOOTH",
"303 287 OFFCURVE",
"302 287 OFFCURVE",
"250 285 CURVE SMOOTH"
);
}
);
width = 372;
}
);
unicode = 002D;
},
{
glyphname = period;
lastChange = "2022-01-16 17:41:42 +0000";
layers = (
{
layerId = "555B79C6-6D98-46E7-9307-77C37975E414";
paths = (
{
closed = 1;
nodes = (
"158 -22 OFFCURVE",
"203 20 OFFCURVE",
"203 76 CURVE SMOOTH",
"203 132 OFFCURVE",
"166 161 OFFCURVE",
"118 161 CURVE SMOOTH",
"66 161 OFFCURVE",
"20 125 OFFCURVE",
"20 64 CURVE SMOOTH",
"20 13 OFFCURVE",
"59 -22 OFFCURVE",
"106 -22 CURVE SMOOTH"
);
}
);
width = 223;
},
{
layerId = "9F2BC935-6AE7-4E60-84C9-D3B586669EA4";
paths = (
{
closed = 1;
nodes = (
"141 -16 OFFCURVE",
"177 18 OFFCURVE",
"177 63 CURVE SMOOTH",
"177 108 OFFCURVE",
"147 131 OFFCURVE",
"109 131 CURVE SMOOTH",
"67 131 OFFCURVE",
"30 102 OFFCURVE",
"30 53 CURVE SMOOTH",
"30 12 OFFCURVE",
"61 -16 OFFCURVE",
"99 -16 CURVE SMOOTH"
);
}
);
width = 207;
}
);
unicode = 002E;
},
{
glyphname = slash;
lastChange = "2022-01-16 17:42:21 +0000";
layers = (
{
layerId = "555B79C6-6D98-46E7-9307-77C37975E414";
paths = (
{
closed = 1;
nodes = (
"324 636 CURVE SMOOTH",
"324 662 OFFCURVE",
"293 696 OFFCURVE",
"264 696 CURVE SMOOTH",
"250 696 OFFCURVE",
"235 691 OFFCURVE",
"227 662 CURVE SMOOTH",
"45 -30 LINE SMOOTH",
"38 -56 OFFCURVE",
"35 -80 OFFCURVE",
"35 -97 CURVE SMOOTH",
"35 -132 OFFCURVE",
"54 -170 OFFCURVE",
"79 -170 CURVE SMOOTH",
"101 -170 OFFCURVE",
"119 -155 OFFCURVE",
"130 -115 CURVE SMOOTH",
"316 577 LINE SMOOTH",
"320 593 OFFCURVE",
"324 611 OFFCURVE"
);
}
);
width = 359;
},
{
layerId = "9F2BC935-6AE7-4E60-84C9-D3B586669EA4";
paths = (
{
closed = 1;
nodes = (
"298 641 CURVE SMOOTH",
"298 662 OFFCURVE",
"278 696 OFFCURVE",
"257 696 CURVE SMOOTH",
"245 696 OFFCURVE",
"237 691 OFFCURVE",
"232 671 CURVE SMOOTH",
"45 -51 LINE SMOOTH",
"38 -77 OFFCURVE",
"35 -101 OFFCURVE",
"35 -118 CURVE SMOOTH",
"35 -140 OFFCURVE",
"54 -170 OFFCURVE",
"68 -170 CURVE SMOOTH",
"85 -170 OFFCURVE",
"93 -155 OFFCURVE",
"98 -136 CURVE SMOOTH",
"290 582 LINE SMOOTH",
"294 598 OFFCURVE",
"298 616 OFFCURVE"
);
}
);
width = 333;
}
);
unicode = 002F;
},
{
glyphname = equal;
lastChange = "2022-01-16 17:45:36 +0000";
layers = (
{
layerId = "555B79C6-6D98-46E7-9307-77C37975E414";
paths = (
{
closed = 1;
nodes = (
"111 408 LINE SMOOTH",
"62 407 OFFCURVE",
"43 359 OFFCURVE",
"43 339 CURVE SMOOTH",
"43 325 OFFCURVE",
"45 317 OFFCURVE",
"61 317 CURVE SMOOTH",
"441 323 LINE SMOOTH",
"496 324 OFFCURVE",
"513 372 OFFCURVE",
"513 399 CURVE SMOOTH",
"513 409 OFFCURVE",
"511 416 OFFCURVE",
"495 416 CURVE SMOOTH"
);
},
{
closed = 1;
nodes = (
"106 232 LINE SMOOTH",
"57 231 OFFCURVE",
"38 183 OFFCURVE",
"38 163 CURVE SMOOTH",
"38 149 OFFCURVE",
"40 141 OFFCURVE",
"56 141 CURVE SMOOTH",
"436 147 LINE SMOOTH",
"491 148 OFFCURVE",
"508 196 OFFCURVE",
"508 223 CURVE SMOOTH",
"508 233 OFFCURVE",
"506 240 OFFCURVE",
"490 240 CURVE SMOOTH"
);
}
);
width = 547;
},
{
layerId = "9F2BC935-6AE7-4E60-84C9-D3B586669EA4";
paths = (
{
closed = 1;
nodes = (
"109 388 LINE SMOOTH",
"60 387 OFFCURVE",
"41 359 OFFCURVE",
"41 339 CURVE SMOOTH",
"41 325 OFFCURVE",
"43 317 OFFCURVE",
"59 317 CURVE SMOOTH",
"423 323 LINE SMOOTH",
"478 324 OFFCURVE",
"495 352 OFFCURVE",
"495 379 CURVE SMOOTH",
"495 389 OFFCURVE",
"493 396 OFFCURVE",
"477 396 CURVE SMOOTH"
);
},
{
closed = 1;
nodes = (
"109 232 LINE SMOOTH",
"60 231 OFFCURVE",
"41 203 OFFCURVE",
"41 183 CURVE SMOOTH",
"41 169 OFFCURVE",
"43 161 OFFCURVE",
"59 161 CURVE SMOOTH",
"423 167 LINE SMOOTH",
"478 168 OFFCURVE",
"495 196 OFFCURVE",
"495 223 CURVE SMOOTH",
"495 233 OFFCURVE",
"493 240 OFFCURVE",
"477 240 CURVE SMOOTH"
);
}
);
width = 537;
}
);
unicode = 003D;
},
{
glyphname = greater;
lastChange = "2022-01-16 17:45:27 +0000";
layers = (
{
layerId = "555B79C6-6D98-46E7-9307-77C37975E414";
paths = (
{
closed = 1;
nodes = (
"68 49 OFFCURVE",
"101 36 OFFCURVE",
"128 50 CURVE SMOOTH",
"410 199 LINE SMOOTH",
"487 240 OFFCURVE",
"501 263 OFFCURVE",
"501 287 CURVE SMOOTH",
"501 301 OFFCURVE",
"492 316 OFFCURVE",
"477 324 CURVE SMOOTH",
"175 483 LINE SMOOTH",
"163 489 OFFCURVE",
"152 491 OFFCURVE",
"141 491 CURVE SMOOTH",
"111 491 OFFCURVE",
"76 460 OFFCURVE",
"76 430 CURVE SMOOTH",
"76 420 OFFCURVE",
"89 414 OFFCURVE",
"100 409 CURVE SMOOTH",
"430 253 LINE",
"430 294 LINE",
"129 159 LINE SMOOTH",
"90 141 OFFCURVE",
"68 111 OFFCURVE",
"68 77 CURVE SMOOTH"
);
}
);
width = 543;
},
{
layerId = "9F2BC935-6AE7-4E60-84C9-D3B586669EA4";
paths = (
{
closed = 1;
nodes = (
"75 56 OFFCURVE",
"92 43 OFFCURVE",
"127 61 CURVE SMOOTH",
"401 199 LINE SMOOTH",
"476 237 OFFCURVE",
"492 263 OFFCURVE",
"492 287 CURVE SMOOTH",
"492 301 OFFCURVE",
"483 316 OFFCURVE",
"468 324 CURVE SMOOTH",
"169 475 LINE SMOOTH",
"157 481 OFFCURVE",
"146 483 OFFCURVE",
"135 483 CURVE SMOOTH",
"105 483 OFFCURVE",
"81 461 OFFCURVE",
"81 446 CURVE SMOOTH",
"81 432 OFFCURVE",
"85 431 OFFCURVE",
"99 424 CURVE SMOOTH",
"421 258 LINE",
"421 289 LINE",
"127 143 LINE SMOOTH",
"81 120 OFFCURVE",
"75 90 OFFCURVE",
"75 76 CURVE SMOOTH"
);
}
);
width = 539;
}
);
unicode = 003E;
},
{
glyphname = question;
lastChange = "2022-01-16 17:46:02 +0000";
layers = (
{
components = (
{
name = period;
transform = "{1, 0, 0, 1, 42, 0}";
}
);
layerId = "555B79C6-6D98-46E7-9307-77C37975E414";
paths = (
{
closed = 1;
nodes = (
"403 636 OFFCURVE",
"328 696 OFFCURVE",
"192 696 CURVE SMOOTH",
"83 696 OFFCURVE",
"16 660 OFFCURVE",
"16 615 CURVE SMOOTH",
"16 587 OFFCURVE",
"31 550 OFFCURVE",
"50 550 CURVE SMOOTH",
"76 550 OFFCURVE",
"114 612 OFFCURVE",
"184 612 CURVE SMOOTH",
"222 612 OFFCURVE",
"243 590 OFFCURVE",
"243 540 CURVE SMOOTH",
"243 477 OFFCURVE",
"216 439 OFFCURVE",
"141 390 CURVE SMOOTH",
"106 367 OFFCURVE",
"99 361 OFFCURVE",
"97 330 CURVE SMOOTH",
"91 224 LINE SMOOTH",
"90 205 OFFCURVE",
"98 194 OFFCURVE",
"127 194 CURVE SMOOTH",
"182 194 OFFCURVE",
"195 231 OFFCURVE",
"240 393 CURVE",
"154 319 LINE",
"251 356 OFFCURVE",
"403 427 OFFCURVE",
"403 556 CURVE SMOOTH"
);
}
);
width = 412;
},
{
components = (
{
name = period;
transform = "{1, 0, 0, 1, 29, 0}";
}
);
layerId = "9F2BC935-6AE7-4E60-84C9-D3B586669EA4";
paths = (
{
closed = 1;
nodes = (
"367 636 OFFCURVE",
"295 696 OFFCURVE",
"171 696 CURVE SMOOTH",
"62 696 OFFCURVE",
"8 658 OFFCURVE",
"8 624 CURVE SMOOTH",
"8 600 OFFCURVE",
"17 570 OFFCURVE",
"32 570 CURVE SMOOTH",
"51 570 OFFCURVE",
"89 622 OFFCURVE",
"163 622 CURVE SMOOTH",
"217 622 OFFCURVE",
"237 590 OFFCURVE",
"237 540 CURVE SMOOTH",
"237 477 OFFCURVE",
"199 439 OFFCURVE",
"124 390 CURVE SMOOTH",
"89 367 OFFCURVE",
"82 361 OFFCURVE",
"80 330 CURVE SMOOTH",
"74 220 LINE SMOOTH",
"73 201 OFFCURVE",
"81 194 OFFCURVE",
"97 194 CURVE SMOOTH",
"142 194 OFFCURVE",
"155 231 OFFCURVE",
"208 385 CURVE",
"124 322 LINE",
"221 359 OFFCURVE",
"367 427 OFFCURVE",
"367 556 CURVE SMOOTH"
);
}
);
width = 385;
}
);
unicode = 003F;
},
{
glyphname = at;
lastChange = "2022-01-16 17:46:15 +0000";
layers = (
{
layerId = "555B79C6-6D98-46E7-9307-77C37975E414";
paths = (
{
closed = 1;
nodes = (
"389 128 OFFCURVE",
"463 215 OFFCURVE",
"525 399 CURVE",
"526 473 LINE",
"504 473 LINE",
"431 269 OFFCURVE",
"362 219 OFFCURVE",
"344 219 CURVE SMOOTH",
"331 219 OFFCURVE",
"330 254 OFFCURVE",
"330 310 CURVE SMOOTH",
"330 387 OFFCURVE",
"358 481 OFFCURVE",
"396 481 CURVE SMOOTH",
"416 481 OFFCURVE",
"491 454 OFFCURVE",
"538 419 CURVE",
"565 523 LINE",
"541 534 OFFCURVE",
"495 553 OFFCURVE",
"441 553 CURVE SMOOTH",
"310 553 OFFCURVE",
"200 430 OFFCURVE",
"200 275 CURVE SMOOTH",
"200 177 OFFCURVE",
"239 128 OFFCURVE",
"306 128 CURVE SMOOTH"
);
},
{
closed = 1;
nodes = (
"30 86 OFFCURVE",
"155 -15 OFFCURVE",
"356 -15 CURVE SMOOTH",
"473 -15 OFFCURVE",
"601 36 OFFCURVE",
"601 68 CURVE SMOOTH",
"601 79 OFFCURVE",
"585 85 OFFCURVE",
"572 85 CURVE SMOOTH",
"567 85 OFFCURVE",
"561 84 OFFCURVE",
"554 83 CURVE SMOOTH",
"529 78 OFFCURVE",
"472 56 OFFCURVE",
"367 56 CURVE SMOOTH",
"230 56 OFFCURVE",
"135 126 OFFCURVE",
"135 274 CURVE SMOOTH",
"135 490 OFFCURVE",
"290 626 OFFCURVE",
"462 626 CURVE SMOOTH",
"596 626 OFFCURVE",
"694 556 OFFCURVE",
"694 414 CURVE SMOOTH",
"694 284 OFFCURVE",
"634 219 OFFCURVE",
"600 219 CURVE SMOOTH",
"580 219 OFFCURVE",
"584 229 OFFCURVE",
"588 271 CURVE SMOOTH",
"593 321 LINE SMOOTH",
"601 406 OFFCURVE",
"623 462 OFFCURVE",
"635 499 CURVE SMOOTH",
"639 512 OFFCURVE",
"640 521 OFFCURVE",
"640 527 CURVE SMOOTH",
"640 534 OFFCURVE",
"636 537 OFFCURVE",
"628 537 CURVE SMOOTH",
"618 537 OFFCURVE",
"533 528 OFFCURVE",
"506 525 CURVE",
"486 398 LINE",
"498 376 LINE",
"490 314 LINE SMOOTH",
"482 251 OFFCURVE",
"474 218 OFFCURVE",
"474 191 CURVE SMOOTH",
"474 161 OFFCURVE",
"496 128 OFFCURVE",
"543 128 CURVE SMOOTH",
"668 128 OFFCURVE",
"799 257 OFFCURVE",
"799 425 CURVE SMOOTH",
"799 597 OFFCURVE",
"663 696 OFFCURVE",
"471 696 CURVE SMOOTH",
"280 696 OFFCURVE",
"30 553 OFFCURVE",
"30 263 CURVE SMOOTH"
);
}
);
width = 809;
},
{
layerId = "9F2BC935-6AE7-4E60-84C9-D3B586669EA4";
paths = (
{
closed = 1;
nodes = (
"384 133 OFFCURVE",
"458 215 OFFCURVE",
"520 399 CURVE",
"521 473 LINE",
"499 473 LINE",
"426 269 OFFCURVE",
"357 214 OFFCURVE",
"337 214 CURVE SMOOTH",
"319 214 OFFCURVE",
"315 254 OFFCURVE",
"315 310 CURVE SMOOTH",
"315 407 OFFCURVE",
"353 487 OFFCURVE",
"391 487 CURVE SMOOTH",
"411 487 OFFCURVE",
"486 460 OFFCURVE",
"533 425 CURVE",
"560 518 LINE",
"536 529 OFFCURVE",
"490 548 OFFCURVE",
"436 548 CURVE SMOOTH",
"305 548 OFFCURVE",
"205 430 OFFCURVE",
"205 275 CURVE SMOOTH",
"205 177 OFFCURVE",
"234 133 OFFCURVE",
"301 133 CURVE SMOOTH"
);
},
{
closed = 1;
nodes = (
"35 86 OFFCURVE",
"160 -15 OFFCURVE",
"351 -15 CURVE SMOOTH",
"447 -15 OFFCURVE",
"591 36 OFFCURVE",
"591 68 CURVE SMOOTH",
"591 75 OFFCURVE",
"579 79 OFFCURVE",
"564 79 CURVE SMOOTH",
"561 79 OFFCURVE",
"556 78 OFFCURVE",
"549 77 CURVE SMOOTH",
"524 72 OFFCURVE",
"467 50 OFFCURVE",
"362 50 CURVE SMOOTH",
"209 50 OFFCURVE",
"115 126 OFFCURVE",
"115 274 CURVE SMOOTH",
"115 490 OFFCURVE",
"274 631 OFFCURVE",
"457 631 CURVE SMOOTH",
"602 631 OFFCURVE",
"704 556 OFFCURVE",
"704 414 CURVE SMOOTH",
"704 284 OFFCURVE",
"629 214 OFFCURVE",
"595 214 CURVE SMOOTH",
"575 214 OFFCURVE",
"568 224 OFFCURVE",
"573 271 CURVE SMOOTH",
"578 321 LINE SMOOTH",
"586 406 OFFCURVE",
"608 462 OFFCURVE",
"620 499 CURVE SMOOTH",
"624 512 OFFCURVE",
"625 516 OFFCURVE",
"625 522 CURVE SMOOTH",
"625 529 OFFCURVE",
"621 532 OFFCURVE",
"613 532 CURVE SMOOTH",
"603 532 OFFCURVE",
"530 523 OFFCURVE",
"503 520 CURVE",
"483 398 LINE",
"495 376 LINE",
"487 314 LINE SMOOTH",
"479 251 OFFCURVE",
"471 218 OFFCURVE",
"471 191 CURVE SMOOTH",
"471 161 OFFCURVE",
"491 133 OFFCURVE",
"538 133 CURVE SMOOTH",
"663 133 OFFCURVE",
"784 257 OFFCURVE",
"784 425 CURVE SMOOTH",
"784 597 OFFCURVE",
"658 696 OFFCURVE",
"466 696 CURVE SMOOTH",
"275 696 OFFCURVE",
"35 553 OFFCURVE",
"35 263 CURVE SMOOTH"
);
}
);
width = 819;
}
);
unicode = 0040;
},
{
glyphname = bracketleft;
lastChange = "2022-01-16 17:46:24 +0000";
layers = (
{
layerId = "555B79C6-6D98-46E7-9307-77C37975E414";
paths = (
{
closed = 1;
nodes = (
"55 -170 LINE",
"170 -170 LINE",
"260 680 LINE",
"145 680 LINE"
);
},
{
closed = 1;
nodes = (
"148 -170 LINE",
"300 -170 LINE SMOOTH",
"307 -170 OFFCURVE",
"310 -167 OFFCURVE",
"312 -162 CURVE SMOOTH",
"321 -118 OFFCURVE",
"294 -97 OFFCURVE",
"240 -97 CURVE SMOOTH",
"149 -97 LINE"
);
},
{
closed = 1;
nodes = (
"304 607 LINE SMOOTH",
"358 607 OFFCURVE",
"379 628 OFFCURVE",
"379 665 CURVE SMOOTH",
"379 676 OFFCURVE",
"374 680 OFFCURVE",
"364 680 CURVE SMOOTH",
"212 680 LINE",
"213 607 LINE"
);
}
);
width = 429;
},
{
layerId = "9F2BC935-6AE7-4E60-84C9-D3B586669EA4";
paths = (
{
closed = 1;
nodes = (
"55 -170 LINE",
"146 -170 LINE",
"236 680 LINE",
"145 680 LINE"
);
},
{
closed = 1;
nodes = (
"125 -170 LINE",
"277 -170 LINE SMOOTH",
"284 -170 OFFCURVE",
"287 -167 OFFCURVE",
"289 -162 CURVE SMOOTH",
"298 -118 OFFCURVE",
"264 -110 OFFCURVE",
"217 -110 CURVE SMOOTH",
"126 -110 LINE"
);
},
{
closed = 1;
nodes = (
"280 620 LINE SMOOTH",
"327 620 OFFCURVE",
"363 628 OFFCURVE",
"364 672 CURVE SMOOTH",
"364 677 OFFCURVE",
"361 680 OFFCURVE",
"354 680 CURVE SMOOTH",
"202 680 LINE",
"189 620 LINE"
);
}
);
width = 414;
}
);
unicode = 005B;
},
{
glyphname = backslash;
lastChange = "2022-01-16 17:46:32 +0000";
layers = (
{
layerId = "555B79C6-6D98-46E7-9307-77C37975E414";
paths = (
{
closed = 1;
nodes = (
"110 663 OFFCURVE",
"72 696 OFFCURVE",
"36 696 CURVE SMOOTH",
"15 696 OFFCURVE",
"-3 689 OFFCURVE",
"1 665 CURVE SMOOTH",
"127 -93 LINE SMOOTH",
"135 -143 OFFCURVE",
"169 -169 OFFCURVE",
"197 -169 CURVE SMOOTH",
"208 -169 OFFCURVE",
"232 -161 OFFCURVE",
"231 -133 CURVE SMOOTH",
"231 -128 OFFCURVE",
"230 -121 OFFCURVE",
"228 -111 CURVE SMOOTH",
"116 623 LINE SMOOTH"
);
}
);
width = 231;
},
{
layerId = "9F2BC935-6AE7-4E60-84C9-D3B586669EA4";
paths = (
{
closed = 1;
nodes = (
"83 663 OFFCURVE",
"50 695 OFFCURVE",
"24 696 CURVE SMOOTH",
"13 696 OFFCURVE",
"-3 689 OFFCURVE",
"0 673 CURVE SMOOTH",
"128 -93 LINE SMOOTH",
"136 -143 OFFCURVE",
"157 -169 OFFCURVE",
"185 -169 CURVE SMOOTH",
"196 -169 OFFCURVE",
"205 -161 OFFCURVE",
"205 -148 CURVE SMOOTH",
"205 -143 OFFCURVE",
"204 -136 OFFCURVE",
"202 -126 CURVE SMOOTH",
"88 630 LINE SMOOTH"
);
}
);
width = 205;
}
);
unicode = 005C;
},
{
glyphname = asciicircum;
lastChange = "2022-01-16 17:46:48 +0000";
layers = (
{
layerId = "555B79C6-6D98-46E7-9307-77C37975E414";
paths = (
{
closed = 1;
nodes = (
"162 196 OFFCURVE",
"199 209 OFFCURVE",
"218 257 CURVE SMOOTH",
"342 573 LINE",
"303 573 LINE",
"382 241 LINE SMOOTH",
"389 211 OFFCURVE",
"391 204 OFFCURVE",
"412 204 CURVE SMOOTH",
"444 204 OFFCURVE",
"485 231 OFFCURVE",
"485 267 CURVE SMOOTH",
"485 278 OFFCURVE",
"486 290 OFFCURVE",
"482 302 CURVE SMOOTH",
"390 597 LINE SMOOTH",
"378 635 OFFCURVE",
"352 644 OFFCURVE",
"334 644 CURVE SMOOTH",
"297 644 OFFCURVE",
"271 616 OFFCURVE",
"243 553 CURVE SMOOTH",
"107 248 LINE SMOOTH",
"90 211 OFFCURVE",
"106 196 OFFCURVE",
"131 196 CURVE SMOOTH"
);
}
);
width = 554;
},
{
layerId = "9F2BC935-6AE7-4E60-84C9-D3B586669EA4";
paths = (
{
closed = 1;
nodes = (
"159 196 OFFCURVE",
"185 209 OFFCURVE",
"198 243 CURVE SMOOTH",
"328 573 LINE",
"315 573 LINE",
"399 222 LINE SMOOTH",
"402 208 OFFCURVE",
"404 204 OFFCURVE",
"418 204 CURVE SMOOTH",
"433 204 OFFCURVE",
"467 224 OFFCURVE",
"467 254 CURVE SMOOTH",
"467 265 OFFCURVE",
"468 276 OFFCURVE",
"465 288 CURVE SMOOTH",
"380 611 LINE SMOOTH",
"374 635 OFFCURVE",
"349 644 OFFCURVE",
"335 644 CURVE SMOOTH",
"302 644 OFFCURVE",
"273 617 OFFCURVE",
"247 553 CURVE SMOOTH",
"123 248 LINE SMOOTH",
"108 210 OFFCURVE",
"118 196 OFFCURVE",
"138 196 CURVE SMOOTH"
);
}
);
width = 554;
}
);
unicode = 005E;
},
{
glyphname = underscore;
lastChange = "2022-01-16 17:46:57 +0000";
layers = (
{
layerId = "555B79C6-6D98-46E7-9307-77C37975E414";
paths = (
{
closed = 1;
nodes = (
"44 -98 OFFCURVE",
"45 -105 OFFCURVE",
"55 -105 CURVE SMOOTH",
"509 -105 LINE SMOOTH",
"536 -105 OFFCURVE",
"559 -69 OFFCURVE",
"559 -41 CURVE SMOOTH",
"559 -32 OFFCURVE",
"557 -25 OFFCURVE",
"547 -25 CURVE SMOOTH",
"99 -25 LINE SMOOTH",
"66 -25 OFFCURVE",
"44 -68 OFFCURVE",
"44 -89 CURVE SMOOTH"
);
}
);
width = 603;
},
{
layerId = "9F2BC935-6AE7-4E60-84C9-D3B586669EA4";
paths = (
{
closed = 1;
nodes = (
"50 -88 OFFCURVE",
"51 -95 OFFCURVE",
"61 -95 CURVE SMOOTH",
"495 -95 LINE SMOOTH",
"522 -95 OFFCURVE",
"545 -79 OFFCURVE",
"545 -51 CURVE SMOOTH",
"545 -42 OFFCURVE",
"543 -35 OFFCURVE",
"533 -35 CURVE SMOOTH",
"105 -35 LINE SMOOTH",
"72 -35 OFFCURVE",
"50 -58 OFFCURVE",
"50 -79 CURVE SMOOTH"
);
}
);
width = 595;
}
);
unicode = 005F;
},
{
glyphname = braceleft;
lastChange = "2022-01-16 17:47:05 +0000";
layers = (
{
layerId = "555B79C6-6D98-46E7-9307-77C37975E414";
paths = (
{
closed = 1;
nodes = (
"6 238 OFFCURVE",
"9 217 OFFCURVE",
"25 217 CURVE SMOOTH",
"39 217 OFFCURVE",
"72 225 OFFCURVE",
"101 231 CURVE",
"102 225 OFFCURVE",
"102 219 OFFCURVE",
"102 212 CURVE SMOOTH",
"102 204 OFFCURVE",
"101 185 OFFCURVE",
"95 154 CURVE SMOOTH",
"59 -30 LINE SMOOTH",
"55 -52 OFFCURVE",
"54 -61 OFFCURVE",
"54 -71 CURVE SMOOTH",
"54 -140 OFFCURVE",
"114 -169 OFFCURVE",
"255 -169 CURVE SMOOTH",
"273 -169 OFFCURVE",
"282 -162 OFFCURVE",
"282 -152 CURVE SMOOTH",
"282 -133 OFFCURVE",
"268 -111 OFFCURVE",
"230 -105 CURVE SMOOTH",
"177 -96 OFFCURVE",
"173 -79 OFFCURVE",
"173 -66 CURVE SMOOTH",
"173 -54 OFFCURVE",
"175 -44 OFFCURVE",
"177 -32 CURVE SMOOTH",
"212 143 LINE SMOOTH",
"214 153 OFFCURVE",
"220 173 OFFCURVE",
"220 197 CURVE SMOOTH",
"220 225 OFFCURVE",
"202 265 OFFCURVE",
"130 290 CURVE",
"101 252 LINE",
"167 262 OFFCURVE",
"237 292 OFFCURVE",
"237 379 CURVE SMOOTH",
"236 563 LINE SMOOTH",
"236 614 OFFCURVE",
"243 620 OFFCURVE",
"326 635 CURVE SMOOTH",
"354 640 OFFCURVE",
"371 664 OFFCURVE",
"371 681 CURVE SMOOTH",
"371 690 OFFCURVE",
"367 696 OFFCURVE",
"344 696 CURVE SMOOTH",
"311 696 LINE SMOOTH",
"210 696 OFFCURVE",
"121 666 OFFCURVE",
"121 563 CURVE SMOOTH",
"121 426 LINE SMOOTH",
"121 348 OFFCURVE",
"118 331 OFFCURVE",
"110 306 CURVE",
"78 319 OFFCURVE",
"56 327 OFFCURVE",
"39 327 CURVE SMOOTH",
"16 327 OFFCURVE",
"6 298 OFFCURVE",
"6 253 CURVE SMOOTH"
);
}
);
width = 381;
},
{
layerId = "9F2BC935-6AE7-4E60-84C9-D3B586669EA4";
paths = (
{
closed = 1;
nodes = (
"6 238 OFFCURVE",
"9 227 OFFCURVE",
"25 227 CURVE SMOOTH",
"39 227 OFFCURVE",
"74 231 OFFCURVE",
"103 237 CURVE",
"104 231 OFFCURVE",
"104 225 OFFCURVE",
"104 217 CURVE SMOOTH",
"104 204 OFFCURVE",
"103 185 OFFCURVE",
"97 154 CURVE SMOOTH",
"60 -41 LINE SMOOTH",
"58 -52 OFFCURVE",
"57 -61 OFFCURVE",
"57 -71 CURVE SMOOTH",
"57 -140 OFFCURVE",
"111 -169 OFFCURVE",
"247 -169 CURVE SMOOTH",
"260 -169 OFFCURVE",
"266 -162 OFFCURVE",
"266 -152 CURVE SMOOTH",
"266 -133 OFFCURVE",
"247 -123 OFFCURVE",
"222 -118 CURVE SMOOTH",
"169 -109 OFFCURVE",
"150 -90 OFFCURVE",
"150 -66 CURVE SMOOTH",
"150 -51 OFFCURVE",
"152 -44 OFFCURVE",
"154 -36 CURVE SMOOTH",
"189 143 LINE SMOOTH",
"191 153 OFFCURVE",
"197 173 OFFCURVE",
"197 197 CURVE SMOOTH",
"197 225 OFFCURVE",
"194 265 OFFCURVE",
"122 290 CURVE",
"93 252 LINE",
"159 262 OFFCURVE",
"214 292 OFFCURVE",
"214 379 CURVE SMOOTH",
"213 563 LINE SMOOTH",
"213 629 OFFCURVE",
"235 633 OFFCURVE",
"318 648 CURVE SMOOTH",
"339 652 OFFCURVE",
"353 670 OFFCURVE",
"353 683 CURVE SMOOTH",
"353 690 OFFCURVE",
"349 696 OFFCURVE",
"336 696 CURVE SMOOTH",
"303 696 LINE SMOOTH",
"202 696 OFFCURVE",
"123 658 OFFCURVE",
"123 568 CURVE SMOOTH",
"123 426 LINE SMOOTH",
"123 348 OFFCURVE",
"120 321 OFFCURVE",
"112 296 CURVE",
"80 309 OFFCURVE",
"56 317 OFFCURVE",
"39 317 CURVE SMOOTH",
"16 317 OFFCURVE",
"6 298 OFFCURVE",
"6 253 CURVE SMOOTH"
);
}
);
width = 363;
}
);
unicode = 007B;
},
{
glyphname = bar;
lastChange = "2022-01-16 17:47:19 +0000";
layers = (
{
layerId = "555B79C6-6D98-46E7-9307-77C37975E414";
paths = (
{
closed = 1;
nodes = (
"220 598 OFFCURVE",
"223 616 OFFCURVE",
"223 636 CURVE SMOOTH",
"223 662 OFFCURVE",
"194 696 OFFCURVE",
"165 696 CURVE SMOOTH",
"149 696 OFFCURVE",
"131 691 OFFCURVE",
"129 667 CURVE SMOOTH",
"70 -160 LINE SMOOTH",
"67 -198 OFFCURVE",
"97 -221 OFFCURVE",
"121 -221 CURVE SMOOTH",
"140 -221 OFFCURVE",
"159 -206 OFFCURVE",
"160 -187 CURVE SMOOTH",
"219 582 LINE SMOOTH"
);
}
);
width = 293;
},
{
layerId = "9F2BC935-6AE7-4E60-84C9-D3B586669EA4";
paths = (
{
closed = 1;
nodes = (
"211 598 OFFCURVE",
"214 616 OFFCURVE",
"214 641 CURVE SMOOTH",
"214 662 OFFCURVE",
"186 696 OFFCURVE",
"165 696 CURVE SMOOTH",
"153 696 OFFCURVE",
"141 691 OFFCURVE",
"140 671 CURVE SMOOTH",
"80 -169 LINE SMOOTH",
"78 -198 OFFCURVE",
"104 -221 OFFCURVE",
"121 -221 CURVE SMOOTH",
"138 -221 OFFCURVE",
"150 -206 OFFCURVE",
"151 -187 CURVE SMOOTH",
"210 582 LINE SMOOTH"
);
}
);
width = 294;
}
);
unicode = 007C;
},
{
glyphname = asciitilde;
lastChange = "2022-01-16 17:47:39 +0000";
layers = (
{
layerId = "555B79C6-6D98-46E7-9307-77C37975E414";
paths = (
{
closed = 1;
nodes = (
"70 218 OFFCURVE",
"94 207 OFFCURVE",
"114 207 CURVE SMOOTH",
"131 207 OFFCURVE",
"137 216 OFFCURVE",
"141 231 CURVE SMOOTH",
"152 273 OFFCURVE",
"162 282 OFFCURVE",
"190 282 CURVE SMOOTH",
"245 282 OFFCURVE",
"287 188 OFFCURVE",
"381 188 CURVE SMOOTH",
"444 188 OFFCURVE",
"499 260 OFFCURVE",
"499 327 CURVE SMOOTH",
"499 360 OFFCURVE",
"471 366 OFFCURVE",
"456 366 CURVE SMOOTH",
"444 366 OFFCURVE",
"433 357 OFFCURVE",
"430 342 CURVE SMOOTH",
"418 300 OFFCURVE",
"407 291 OFFCURVE",
"379 291 CURVE SMOOTH",
"327 291 OFFCURVE",
"282 385 OFFCURVE",
"188 385 CURVE SMOOTH",
"125 385 OFFCURVE",
"70 313 OFFCURVE",
"70 246 CURVE SMOOTH"
);
}
);
width = 557;
},
{
layerId = "9F2BC935-6AE7-4E60-84C9-D3B586669EA4";
paths = (
{
closed = 1;
nodes = (
"70 212 OFFCURVE",
"94 206 OFFCURVE",
"109 206 CURVE SMOOTH",
"121 206 OFFCURVE",
"127 210 OFFCURVE",
"130 225 CURVE SMOOTH",
"142 287 OFFCURVE",
"157 311 OFFCURVE",
"185 311 CURVE SMOOTH",
"240 311 OFFCURVE",
"282 197 OFFCURVE",
"376 197 CURVE SMOOTH",
"439 197 OFFCURVE",
"489 254 OFFCURVE",
"489 341 CURVE SMOOTH",
"489 369 OFFCURVE",
"466 375 OFFCURVE",
"451 375 CURVE SMOOTH",
"439 375 OFFCURVE",
"433 371 OFFCURVE",
"430 356 CURVE SMOOTH",
"418 294 OFFCURVE",
"402 270 OFFCURVE",
"374 270 CURVE SMOOTH",
"322 270 OFFCURVE",
"277 384 OFFCURVE",
"183 384 CURVE SMOOTH",
"120 384 OFFCURVE",
"70 327 OFFCURVE",
"70 240 CURVE SMOOTH"
);
}
);
width = 547;
}
);
unicode = 007E;
},
{
glyphname = brokenbar;
lastChange = "2022-01-16 17:48:09 +0000";
layers = (
{
layerId = "555B79C6-6D98-46E7-9307-77C37975E414";
paths = (
{
closed = 1;
nodes = (
"215 598 OFFCURVE",
"218 616 OFFCURVE",
"218 634 CURVE SMOOTH",
"218 662 OFFCURVE",
"190 696 OFFCURVE",
"161 696 CURVE SMOOTH",
"146 696 OFFCURVE",
"128 689 OFFCURVE",
"127 669 CURVE SMOOTH",
"107 350 LINE SMOOTH",
"104 307 OFFCURVE",
"128 279 OFFCURVE",
"155 279 CURVE SMOOTH",
"178 279 OFFCURVE",
"192 294 OFFCURVE",
"193 313 CURVE SMOOTH",
"214 582 LINE SMOOTH"
);
},
{
closed = 1;
nodes = (
"178 98 OFFCURVE",
"181 116 OFFCURVE",
"181 134 CURVE SMOOTH",
"181 162 OFFCURVE",
"153 196 OFFCURVE",
"124 196 CURVE SMOOTH",
"109 196 OFFCURVE",
"91 189 OFFCURVE",
"90 169 CURVE SMOOTH",
"70 -150 LINE SMOOTH",
"67 -193 OFFCURVE",
"91 -221 OFFCURVE",
"118 -221 CURVE SMOOTH",
"141 -221 OFFCURVE",
"155 -206 OFFCURVE",
"156 -187 CURVE SMOOTH",
"177 82 LINE SMOOTH"
);
}
);
width = 288;
},
{
layerId = "9F2BC935-6AE7-4E60-84C9-D3B586669EA4";
paths = (
{
closed = 1;
nodes = (
"211 598 OFFCURVE",
"214 616 OFFCURVE",
"214 641 CURVE SMOOTH",
"214 662 OFFCURVE",
"186 696 OFFCURVE",
"165 696 CURVE SMOOTH",
"153 696 OFFCURVE",
"141 691 OFFCURVE",
"140 671 CURVE SMOOTH",
"118 331 LINE SMOOTH",
"116 302 OFFCURVE",
"142 279 OFFCURVE",
"159 279 CURVE SMOOTH",
"176 279 OFFCURVE",
"188 294 OFFCURVE",
"189 313 CURVE SMOOTH",
"210 582 LINE SMOOTH"
);
},
{
closed = 1;
nodes = (
"173 98 OFFCURVE",
"176 116 OFFCURVE",
"176 141 CURVE SMOOTH",
"176 162 OFFCURVE",
"148 196 OFFCURVE",
"127 196 CURVE SMOOTH",
"115 196 OFFCURVE",
"103 191 OFFCURVE",
"102 171 CURVE SMOOTH",
"80 -169 LINE SMOOTH",
"78 -198 OFFCURVE",
"104 -221 OFFCURVE",
"121 -221 CURVE SMOOTH",
"138 -221 OFFCURVE",
"150 -206 OFFCURVE",
"151 -187 CURVE SMOOTH",
"172 82 LINE SMOOTH"
);
}
);
width = 294;
}
);
unicode = 00A6;
},
{
glyphname = section;
lastChange = "2022-01-16 17:48:17 +0000";
layers = (
{
layerId = "555B79C6-6D98-46E7-9307-77C37975E414";
paths = (
{
closed = 1;
nodes = (
"30 -140 OFFCURVE",
"114 -170 OFFCURVE",
"218 -170 CURVE SMOOTH",
"336 -170 OFFCURVE",
"457 -104 OFFCURVE",
"457 15 CURVE SMOOTH",
"457 88 OFFCURVE",
"400 132 OFFCURVE",
"334 164 CURVE",
"327 143 LINE",
"408 148 OFFCURVE",
"496 203 OFFCURVE",
"496 294 CURVE SMOOTH",
"496 363 OFFCURVE",
"445 409 OFFCURVE",
"373 447 CURVE SMOOTH",
"302 484 LINE SMOOTH",
"262 505 OFFCURVE",
"245 527 OFFCURVE",
"245 554 CURVE SMOOTH",
"245 584 OFFCURVE",
"262 608 OFFCURVE",
"298 608 CURVE SMOOTH",
"347 608 OFFCURVE",
"400 575 OFFCURVE",
"420 567 CURVE SMOOTH",
"428 563 OFFCURVE",
"438 559 OFFCURVE",
"445 559 CURVE SMOOTH",
"465 559 OFFCURVE",
"488 607 OFFCURVE",
"488 638 CURVE SMOOTH",
"488 676 OFFCURVE",
"433 695 OFFCURVE",
"334 695 CURVE SMOOTH",
"196 695 OFFCURVE",
"114 627 OFFCURVE",
"114 533 CURVE SMOOTH",
"114 456 OFFCURVE",
"163 418 OFFCURVE",
"228 380 CURVE",
"239 397 LINE",
"160 390 OFFCURVE",
"75 334 OFFCURVE",
"75 245 CURVE SMOOTH",
"75 184 OFFCURVE",
"105 141 OFFCURVE",
"169 104 CURVE SMOOTH",
"251 57 LINE SMOOTH",
"290 35 OFFCURVE",
"309 10 OFFCURVE",
"309 -17 CURVE SMOOTH",
"309 -53 OFFCURVE",
"290 -78 OFFCURVE",
"243 -78 CURVE SMOOTH",
"193 -78 OFFCURVE",
"142 -51 OFFCURVE",
"97 -21 CURVE SMOOTH",
"75 -7 OFFCURVE",
"68 -5 OFFCURVE",
"63 -5 CURVE SMOOTH",
"45 -5 OFFCURVE",
"30 -39 OFFCURVE",
"30 -76 CURVE SMOOTH"
);
},
{
closed = 1;
nodes = (
"201 303 OFFCURVE",
"233 327 OFFCURVE",
"299 328 CURVE",
"336 309 OFFCURVE",
"352 288 OFFCURVE",
"352 262 CURVE SMOOTH",
"352 228 OFFCURVE",
"324 199 OFFCURVE",
"281 199 CURVE",
"223 223 OFFCURVE",
"201 242 OFFCURVE",
"201 273 CURVE SMOOTH"
);
}
);
width = 541;
},
{
layerId = "9F2BC935-6AE7-4E60-84C9-D3B586669EA4";
paths = (
{
closed = 1;
nodes = (
"30 -132 OFFCURVE",
"101 -170 OFFCURVE",
"205 -170 CURVE SMOOTH",
"317 -170 OFFCURVE",
"429 -104 OFFCURVE",
"429 15 CURVE SMOOTH",
"429 88 OFFCURVE",
"387 127 OFFCURVE",
"321 159 CURVE",
"314 147 LINE",
"395 152 OFFCURVE",
"468 203 OFFCURVE",
"468 294 CURVE SMOOTH",
"468 363 OFFCURVE",
"425 403 OFFCURVE",
"360 436 CURVE SMOOTH",
"283 475 LINE SMOOTH",
"239 497 OFFCURVE",
"219 519 OFFCURVE",
"219 554 CURVE SMOOTH",
"219 595 OFFCURVE",
"243 620 OFFCURVE",
"285 620 CURVE SMOOTH",
"334 620 OFFCURVE",
"387 593 OFFCURVE",
"407 585 CURVE SMOOTH",
"415 581 OFFCURVE",
"425 577 OFFCURVE",
"432 577 CURVE SMOOTH",
"452 577 OFFCURVE",
"465 607 OFFCURVE",
"465 638 CURVE SMOOTH",
"465 676 OFFCURVE",
"420 695 OFFCURVE",
"321 695 CURVE SMOOTH",
"188 695 OFFCURVE",
"116 627 OFFCURVE",
"116 533 CURVE SMOOTH",
"116 456 OFFCURVE",
"150 421 OFFCURVE",
"215 383 CURVE",
"226 393 LINE",
"147 386 OFFCURVE",
"77 332 OFFCURVE",
"77 254 CURVE SMOOTH",
"77 176 OFFCURVE",
"112 141 OFFCURVE",
"176 104 CURVE SMOOTH",
"258 57 LINE SMOOTH",
"297 35 OFFCURVE",
"308 12 OFFCURVE",
"308 -17 CURVE SMOOTH",
"308 -58 OFFCURVE",
"277 -93 OFFCURVE",
"230 -93 CURVE SMOOTH",
"180 -93 OFFCURVE",
"133 -68 OFFCURVE",
"88 -38 CURVE SMOOTH",
"66 -24 OFFCURVE",
"61 -22 OFFCURVE",
"56 -22 CURVE SMOOTH",
"38 -22 OFFCURVE",
"30 -51 OFFCURVE",
"30 -79 CURVE SMOOTH"
);
},
{
closed = 1;
nodes = (
"180 315 OFFCURVE",
"215 340 OFFCURVE",
"288 341 CURVE",
"329 318 OFFCURVE",
"347 299 OFFCURVE",
"347 262 CURVE SMOOTH",
"347 221 OFFCURVE",
"316 186 OFFCURVE",
"269 186 CURVE",
"204 215 OFFCURVE",
"180 231 OFFCURVE",
"180 275 CURVE SMOOTH"
);
}
);
width = 513;
}
);
unicode = 00A7;
},
{
glyphname = copyright;
lastChange = "2022-01-16 17:48:26 +0000";
layers = (
{
layerId = "555B79C6-6D98-46E7-9307-77C37975E414";
paths = (
{
closed = 1;
nodes = (
"604 -25 OFFCURVE",
"782 138 OFFCURVE",
"782 378 CURVE SMOOTH",
"782 576 OFFCURVE",
"649 707 OFFCURVE",
"441 707 CURVE SMOOTH",
"206 707 OFFCURVE",
"30 530 OFFCURVE",
"30 296 CURVE SMOOTH",
"30 98 OFFCURVE",
"169 -25 OFFCURVE",
"366 -25 CURVE SMOOTH"
);
},
{
closed = 1;
nodes = (
"482 115 OFFCURVE",
"547 182 OFFCURVE",
"548 231 CURVE SMOOTH",
"548 244 OFFCURVE",
"541 258 OFFCURVE",
"531 258 CURVE SMOOTH",
"508 258 OFFCURVE",
"460 191 OFFCURVE",
"403 191 CURVE SMOOTH",
"356 191 OFFCURVE",
"322 229 OFFCURVE",
"322 317 CURVE SMOOTH",
"322 437 OFFCURVE",
"364 495 OFFCURVE",
"436 495 CURVE SMOOTH",
"471 495 OFFCURVE",
"498 474 OFFCURVE",
"516 462 CURVE SMOOTH",
"529 453 OFFCURVE",
"536 448 OFFCURVE",
"544 448 CURVE SMOOTH",
"559 448 OFFCURVE",
"569 471 OFFCURVE",
"569 494 CURVE SMOOTH",
"569 549 OFFCURVE",
"533 569 OFFCURVE",
"459 569 CURVE SMOOTH",
"320 569 OFFCURVE",
"195 463 OFFCURVE",
"195 306 CURVE SMOOTH",
"195 182 OFFCURVE",
"281 115 OFFCURVE",
"385 115 CURVE SMOOTH"
);
},
{
closed = 1;
nodes = (
"219 55 OFFCURVE",
"129 157 OFFCURVE",
"129 304 CURVE SMOOTH",
"129 478 OFFCURVE",
"249 626 OFFCURVE",
"433 626 CURVE SMOOTH",
"598 626 OFFCURVE",
"679 511 OFFCURVE",
"679 362 CURVE SMOOTH",
"679 186 OFFCURVE",
"558 55 OFFCURVE",
"374 55 CURVE SMOOTH"
);
}
);
width = 812;
},
{
layerId = "9F2BC935-6AE7-4E60-84C9-D3B586669EA4";
paths = (
{
closed = 1;
nodes = (
"593 -15 OFFCURVE",
"755 156 OFFCURVE",
"755 375 CURVE SMOOTH",
"755 555 OFFCURVE",
"638 696 OFFCURVE",
"432 696 CURVE SMOOTH",
"199 696 OFFCURVE",
"35 513 OFFCURVE",
"35 300 CURVE SMOOTH",
"35 120 OFFCURVE",
"162 -15 OFFCURVE",
"357 -15 CURVE SMOOTH"
);
},
{
closed = 1;
nodes = (
"464 118 OFFCURVE",
"531 176 OFFCURVE",
"532 225 CURVE SMOOTH",
"532 238 OFFCURVE",
"525 242 OFFCURVE",
"515 242 CURVE SMOOTH",
"492 242 OFFCURVE",
"459 181 OFFCURVE",
"394 181 CURVE SMOOTH",
"335 181 OFFCURVE",
"295 218 OFFCURVE",
"295 317 CURVE SMOOTH",
"295 437 OFFCURVE",
"348 502 OFFCURVE",
"427 502 CURVE SMOOTH",
"466 502 OFFCURVE",
"488 488 OFFCURVE",
"507 477 CURVE SMOOTH",
"519 471 OFFCURVE",
"529 465 OFFCURVE",
"537 465 CURVE SMOOTH",
"544 465 OFFCURVE",
"553 482 OFFCURVE",
"553 502 CURVE SMOOTH",
"553 550 OFFCURVE",
"519 565 OFFCURVE",
"450 565 CURVE SMOOTH",
"301 565 OFFCURVE",
"196 456 OFFCURVE",
"196 306 CURVE SMOOTH",
"196 182 OFFCURVE",
"272 118 OFFCURVE",
"379 118 CURVE SMOOTH"
);
},
{
closed = 1;
nodes = (
"210 50 OFFCURVE",
"115 157 OFFCURVE",
"115 304 CURVE SMOOTH",
"115 478 OFFCURVE",
"240 631 OFFCURVE",
"424 631 CURVE SMOOTH",
"589 631 OFFCURVE",
"675 511 OFFCURVE",
"675 362 CURVE SMOOTH",
"675 186 OFFCURVE",
"549 50 OFFCURVE",
"365 50 CURVE SMOOTH"
);
}
);
width = 790;
}
);
unicode = 00A9;
},
{
glyphname = logicalnot;
lastChange = "2022-01-16 17:48:36 +0000";
layers = (
{
layerId = "555B79C6-6D98-46E7-9307-77C37975E414";
paths = (
{
closed = 1;
nodes = (
"26 302 OFFCURVE",
"33 295 OFFCURVE",
"54 295 CURVE SMOOTH",
"394 302 LINE",
"380 163 LINE SMOOTH",
"379 154 OFFCURVE",
"375 123 OFFCURVE",
"375 114 CURVE SMOOTH",
"375 98 OFFCURVE",
"389 91 OFFCURVE",
"411 91 CURVE SMOOTH",
"438 91 OFFCURVE",
"478 115 OFFCURVE",
"483 164 CURVE SMOOTH",
"505 388 LINE SMOOTH",
"506 398 OFFCURVE",
"503 405 OFFCURVE",
"487 405 CURVE SMOOTH",
"114 396 LINE SMOOTH",
"45 394 OFFCURVE",
"26 339 OFFCURVE",
"26 318 CURVE SMOOTH"
);
}
);
width = 555;
},
{
layerId = "9F2BC935-6AE7-4E60-84C9-D3B586669EA4";
paths = (
{
closed = 1;
nodes = (
"35 317 OFFCURVE",
"37 309 OFFCURVE",
"53 309 CURVE SMOOTH",
"408 317 LINE",
"394 163 LINE SMOOTH",
"393 154 OFFCURVE",
"389 123 OFFCURVE",
"389 114 CURVE SMOOTH",
"389 98 OFFCURVE",
"396 96 OFFCURVE",
"410 96 CURVE SMOOTH",
"430 96 OFFCURVE",
"462 115 OFFCURVE",
"467 164 CURVE SMOOTH",
"489 373 LINE SMOOTH",
"490 383 OFFCURVE",
"487 390 OFFCURVE",
"471 390 CURVE SMOOTH",
"103 380 LINE SMOOTH",
"54 379 OFFCURVE",
"35 351 OFFCURVE",
"35 331 CURVE SMOOTH"
);
}
);
width = 554;
}
);
unicode = 00AC;
},
{
glyphname = registered;
lastChange = "2022-01-16 17:48:44 +0000";
layers = (
{
layerId = "555B79C6-6D98-46E7-9307-77C37975E414";
paths = (
{
closed = 1;
nodes = (
"429 183 OFFCURVE",
"554 310 OFFCURVE",
"554 467 CURVE SMOOTH",
"554 595 OFFCURVE",
"461 701 OFFCURVE",
"313 701 CURVE SMOOTH",
"147 701 OFFCURVE",
"20 565 OFFCURVE",
"20 413 CURVE SMOOTH",
"20 284 OFFCURVE",
"120 183 OFFCURVE",
"260 183 CURVE SMOOTH"
);
},
{
closed = 1;
nodes = (
"162 250 OFFCURVE",
"107 318 OFFCURVE",
"107 417 CURVE SMOOTH",
"107 535 OFFCURVE",
"182 635 OFFCURVE",
"307 635 CURVE SMOOTH",
"419 635 OFFCURVE",
"467 558 OFFCURVE",
"467 456 CURVE SMOOTH",
"467 337 OFFCURVE",
"392 250 OFFCURVE",
"267 250 CURVE SMOOTH"
);
},
{
closed = 1;
nodes = (
"168 311 OFFCURVE",
"177 300 OFFCURVE",
"197 300 CURVE SMOOTH",
"233 300 OFFCURVE",
"266 328 OFFCURVE",
"266 338 CURVE SMOOTH",
"266 341 OFFCURVE",
"264 345 OFFCURVE",
"261 349 CURVE SMOOTH",
"256 356 OFFCURVE",
"254 361 OFFCURVE",
"257 394 CURVE SMOOTH",
"273 548 LINE",
"312 546 OFFCURVE",
"328 525 OFFCURVE",
"328 499 CURVE SMOOTH",
"328 478 OFFCURVE",
"316 458 OFFCURVE",
"283 447 CURVE SMOOTH",
"275 444 OFFCURVE",
"267 441 OFFCURVE",
"267 432 CURVE SMOOTH",
"267 424 OFFCURVE",
"271 412 OFFCURVE",
"278 395 CURVE SMOOTH",
"304 334 OFFCURVE",
"325 305 OFFCURVE",
"352 305 CURVE SMOOTH",
"385 305 OFFCURVE",
"417 328 OFFCURVE",
"417 340 CURVE SMOOTH",
"417 347 OFFCURVE",
"406 347 OFFCURVE",
"393 357 CURVE SMOOTH",
"384 364 OFFCURVE",
"356 389 OFFCURVE",
"332 438 CURVE",
"309 438 LINE",
"306 414 LINE",
"369 422 OFFCURVE",
"420 460 OFFCURVE",
"420 503 CURVE SMOOTH",
"420 550 OFFCURVE",
"374 583 OFFCURVE",
"288 583 CURVE SMOOTH",
"273 583 LINE SMOOTH",
"221 583 OFFCURVE",
"176 561 OFFCURVE",
"176 547 CURVE SMOOTH",
"176 541 OFFCURVE",
"180 536 OFFCURVE",
"185 529 CURVE SMOOTH",
"189 524 OFFCURVE",
"187 506 OFFCURVE",
"185 488 CURVE SMOOTH",
"169 346 LINE SMOOTH",
"168 340 OFFCURVE",
"168 336 OFFCURVE",
"168 328 CURVE SMOOTH"
);
}
);
width = 575;
},
{
layerId = "9F2BC935-6AE7-4E60-84C9-D3B586669EA4";
paths = (
{
closed = 1;
nodes = (
"429 188 OFFCURVE",
"544 310 OFFCURVE",
"544 467 CURVE SMOOTH",
"544 595 OFFCURVE",
"461 696 OFFCURVE",
"313 696 CURVE SMOOTH",
"147 696 OFFCURVE",
"30 565 OFFCURVE",
"30 413 CURVE SMOOTH",
"30 284 OFFCURVE",
"120 188 OFFCURVE",
"260 188 CURVE SMOOTH"
);
},
{
closed = 1;
nodes = (
"162 244 OFFCURVE",
"97 318 OFFCURVE",
"97 417 CURVE SMOOTH",
"97 535 OFFCURVE",
"182 640 OFFCURVE",
"307 640 CURVE SMOOTH",
"419 640 OFFCURVE",
"477 558 OFFCURVE",
"477 456 CURVE SMOOTH",
"477 337 OFFCURVE",
"392 244 OFFCURVE",
"267 244 CURVE SMOOTH"
);
},
{
closed = 1;
nodes = (
"178 311 OFFCURVE",
"183 305 OFFCURVE",
"200 305 CURVE SMOOTH",
"228 305 OFFCURVE",
"260 328 OFFCURVE",
"260 338 CURVE SMOOTH",
"260 341 OFFCURVE",
"258 345 OFFCURVE",
"255 349 CURVE SMOOTH",
"250 356 OFFCURVE",
"248 361 OFFCURVE",
"251 394 CURVE SMOOTH",
"267 548 LINE",
"323 546 OFFCURVE",
"338 531 OFFCURVE",
"338 499 CURVE SMOOTH",
"338 467 OFFCURVE",
"316 450 OFFCURVE",
"284 444 CURVE SMOOTH",
"275 442 OFFCURVE",
"270 437 OFFCURVE",
"270 431 CURVE SMOOTH",
"270 429 OFFCURVE",
"270 416 OFFCURVE",
"274 408 CURVE SMOOTH",
"309 338 OFFCURVE",
"331 305 OFFCURVE",
"358 305 CURVE SMOOTH",
"374 305 OFFCURVE",
"411 326 OFFCURVE",
"411 335 CURVE SMOOTH",
"411 342 OFFCURVE",
"401 343 OFFCURVE",
"387 352 CURVE SMOOTH",
"382 355 OFFCURVE",
"352 389 OFFCURVE",
"328 438 CURVE",
"309 438 LINE",
"306 417 LINE",
"369 425 OFFCURVE",
"410 460 OFFCURVE",
"410 503 CURVE SMOOTH",
"410 550 OFFCURVE",
"370 583 OFFCURVE",
"288 583 CURVE SMOOTH",
"269 583 LINE SMOOTH",
"222 583 OFFCURVE",
"186 559 OFFCURVE",
"186 550 CURVE SMOOTH",
"186 541 OFFCURVE",
"190 536 OFFCURVE",
"195 529 CURVE SMOOTH",
"199 524 OFFCURVE",
"197 506 OFFCURVE",
"195 488 CURVE SMOOTH",
"179 346 LINE SMOOTH",
"178 340 OFFCURVE",
"178 336 OFFCURVE",
"178 328 CURVE SMOOTH"
);
}
);
width = 574;
}
);
unicode = 00AE;
},
{
glyphname = degree;
lastChange = "2022-01-16 17:48:53 +0000";
layers = (
{
layerId = "555B79C6-6D98-46E7-9307-77C37975E414";
paths = (
{
closed = 1;
nodes = (
"163 417 OFFCURVE",
"126 454 OFFCURVE",
"126 514 CURVE SMOOTH",
"126 579 OFFCURVE",
"164 627 OFFCURVE",
"216 627 CURVE SMOOTH",
"263 627 OFFCURVE",
"295 591 OFFCURVE",
"295 532 CURVE SMOOTH",
"295 458 OFFCURVE",
"253 417 OFFCURVE",
"199 417 CURVE SMOOTH"
);
},
{
closed = 1;
nodes = (
"308 342 OFFCURVE",
"392 424 OFFCURVE",
"392 539 CURVE SMOOTH",
"392 632 OFFCURVE",
"335 700 OFFCURVE",
"227 700 CURVE SMOOTH",
"109 700 OFFCURVE",
"30 616 OFFCURVE",
"30 505 CURVE SMOOTH",
"30 410 OFFCURVE",
"96 342 OFFCURVE",
"197 342 CURVE SMOOTH"
);
}
);
width = 422;
},
{
layerId = "9F2BC935-6AE7-4E60-84C9-D3B586669EA4";
paths = (
{
closed = 1;
nodes = (
"118 413 OFFCURVE",
"89 454 OFFCURVE",
"89 514 CURVE SMOOTH",
"89 579 OFFCURVE",
"128 631 OFFCURVE",
"187 631 CURVE SMOOTH",
"247 631 OFFCURVE",
"274 591 OFFCURVE",
"274 532 CURVE SMOOTH",
"274 458 OFFCURVE",
"233 413 OFFCURVE",
"174 413 CURVE SMOOTH"
);
},
{
closed = 1;
nodes = (
"277 346 OFFCURVE",
"353 432 OFFCURVE",
"353 539 CURVE SMOOTH",
"353 625 OFFCURVE",
"302 696 OFFCURVE",
"196 696 CURVE SMOOTH",
"83 696 OFFCURVE",
"10 609 OFFCURVE",
"10 505 CURVE SMOOTH",
"10 417 OFFCURVE",
"69 346 OFFCURVE",
"168 346 CURVE SMOOTH"
);
}
);
width = 363;
}
);
unicode = 00B0;
},
{
glyphname = plusminus;
lastChange = "2022-01-16 17:49:06 +0000";
layers = (
{
layerId = "555B79C6-6D98-46E7-9307-77C37975E414";
paths = (
{
closed = 1;
nodes = (
"119 127 LINE SMOOTH",
"67 126 OFFCURVE",
"47 80 OFFCURVE",
"47 58 CURVE SMOOTH",
"47 43 OFFCURVE",
"49 34 OFFCURVE",
"66 34 CURVE SMOOTH",
"457 40 LINE SMOOTH",
"515 41 OFFCURVE",
"533 87 OFFCURVE",
"533 117 CURVE SMOOTH",
"533 128 OFFCURVE",
"531 136 OFFCURVE",
"514 136 CURVE SMOOTH"
);
},
{
closed = 1;
nodes = (
"146 373 LINE SMOOTH",
"94 372 OFFCURVE",
"72 321 OFFCURVE",
"72 299 CURVE SMOOTH",
"72 283 OFFCURVE",
"76 275 OFFCURVE",
"93 275 CURVE SMOOTH",
"475 283 LINE SMOOTH",
"533 284 OFFCURVE",
"553 335 OFFCURVE",
"553 365 CURVE SMOOTH",
"553 376 OFFCURVE",
"549 384 OFFCURVE",
"532 384 CURVE SMOOTH"
);
},
{
closed = 1;
nodes = (
"381 459 OFFCURVE",
"382 476 OFFCURVE",
"382 489 CURVE SMOOTH",
"382 507 OFFCURVE",
"364 509 OFFCURVE",
"353 509 CURVE SMOOTH",
"325 509 OFFCURVE",
"283 490 OFFCURVE",
"277 430 CURVE SMOOTH",
"257 223 LINE SMOOTH",
"256 213 OFFCURVE",
"252 179 OFFCURVE",
"252 169 CURVE SMOOTH",
"252 151 OFFCURVE",
"269 149 OFFCURVE",
"284 149 CURVE SMOOTH",
"305 149 OFFCURVE",
"348 170 OFFCURVE",
"354 224 CURVE SMOOTH",
"377 426 LINE SMOOTH"
);
}
);
width = 603;
},
{
layerId = "9F2BC935-6AE7-4E60-84C9-D3B586669EA4";
paths = (
{
closed = 1;
nodes = (
"115 132 LINE SMOOTH",
"66 131 OFFCURVE",
"47 103 OFFCURVE",
"47 83 CURVE SMOOTH",
"47 69 OFFCURVE",
"49 61 OFFCURVE",
"65 61 CURVE SMOOTH",
"429 67 LINE SMOOTH",
"484 68 OFFCURVE",
"501 96 OFFCURVE",
"501 123 CURVE SMOOTH",
"501 133 OFFCURVE",
"499 140 OFFCURVE",
"483 140 CURVE SMOOTH"
);
},
{
closed = 1;
nodes = (
"136 360 LINE SMOOTH",
"87 359 OFFCURVE",
"68 331 OFFCURVE",
"68 311 CURVE SMOOTH",
"68 297 OFFCURVE",
"70 289 OFFCURVE",
"86 289 CURVE SMOOTH",
"450 297 LINE SMOOTH",
"505 298 OFFCURVE",
"522 326 OFFCURVE",
"522 353 CURVE SMOOTH",
"522 363 OFFCURVE",
"520 370 OFFCURVE",
"504 370 CURVE SMOOTH"
);
},
{
closed = 1;
nodes = (
"350 459 OFFCURVE",
"352 475 OFFCURVE",
"352 487 CURVE SMOOTH",
"352 503 OFFCURVE",
"344 505 OFFCURVE",
"334 505 CURVE SMOOTH",
"307 505 OFFCURVE",
"276 488 OFFCURVE",
"271 433 CURVE SMOOTH",
"252 219 LINE SMOOTH",
"251 210 OFFCURVE",
"247 179 OFFCURVE",
"247 170 CURVE SMOOTH",
"247 154 OFFCURVE",
"254 152 OFFCURVE",
"268 152 CURVE SMOOTH",
"288 152 OFFCURVE",
"320 171 OFFCURVE",
"325 220 CURVE SMOOTH",
"347 429 LINE SMOOTH"
);
}
);
width = 572;
}
);
unicode = 00B1;
},
{
glyphname = paragraph;
lastChange = "2022-01-16 17:49:15 +0000";
layers = (
{
layerId = "555B79C6-6D98-46E7-9307-77C37975E414";
paths = (
{
closed = 1;
nodes = (
"30 80 OFFCURVE",
"147 -16 OFFCURVE",
"306 -16 CURVE SMOOTH",
"341 -16 OFFCURVE",
"366 -2 OFFCURVE",
"366 13 CURVE SMOOTH",
"366 26 OFFCURVE",
"355 30 OFFCURVE",
"319 46 CURVE SMOOTH",
"253 75 OFFCURVE",
"203 152 OFFCURVE",
"203 283 CURVE SMOOTH",
"203 477 OFFCURVE",
"306 610 OFFCURVE",
"486 610 CURVE",
"462 659 LINE",
"366 -142 LINE SMOOTH",
"364 -159 OFFCURVE",
"363 -175 OFFCURVE",
"363 -188 CURVE SMOOTH",
"363 -207 OFFCURVE",
"375 -219 OFFCURVE",
"393 -219 CURVE SMOOTH",
"442 -219 OFFCURVE",
"538 -101 OFFCURVE",
"546 -24 CURVE SMOOTH",
"553 45 OFFCURVE",
"559 129 OFFCURVE",
"568 208 CURVE SMOOTH",
"617 652 LINE",
"569 596 LINE",
"625 591 OFFCURVE",
"704 634 OFFCURVE",
"704 665 CURVE SMOOTH",
"704 675 OFFCURVE",
"698 682 OFFCURVE",
"688 682 CURVE SMOOTH",
"643 682 OFFCURVE",
"545 696 OFFCURVE",
"487 696 CURVE SMOOTH",
"228 696 OFFCURVE",
"30 522 OFFCURVE",
"30 283 CURVE SMOOTH"
);
}
);
width = 714;
},
{
layerId = "9F2BC935-6AE7-4E60-84C9-D3B586669EA4";
paths = (
{
closed = 1;
nodes = (
"35 86 OFFCURVE",
"144 -16 OFFCURVE",
"304 -16 CURVE SMOOTH",
"331 -16 OFFCURVE",
"356 -2 OFFCURVE",
"356 13 CURVE SMOOTH",
"356 26 OFFCURVE",
"345 26 OFFCURVE",
"321 32 CURVE SMOOTH",
"228 56 OFFCURVE",
"168 142 OFFCURVE",
"168 283 CURVE SMOOTH",
"168 495 OFFCURVE",
"291 620 OFFCURVE",
"471 620 CURVE",
"452 659 LINE",
"356 -142 LINE SMOOTH",
"354 -159 OFFCURVE",
"353 -175 OFFCURVE",
"353 -188 CURVE SMOOTH",
"353 -207 OFFCURVE",
"360 -219 OFFCURVE",
"378 -219 CURVE SMOOTH",
"409 -219 OFFCURVE",
"489 -91 OFFCURVE",
"496 -24 CURVE SMOOTH",
"503 45 OFFCURVE",
"509 129 OFFCURVE",
"518 208 CURVE SMOOTH",
"567 652 LINE",
"519 606 LINE",
"575 601 OFFCURVE",
"654 634 OFFCURVE",
"654 665 CURVE SMOOTH",
"654 675 OFFCURVE",
"648 682 OFFCURVE",
"638 682 CURVE SMOOTH",
"593 682 OFFCURVE",
"495 696 OFFCURVE",
"472 696 CURVE SMOOTH",
"220 696 OFFCURVE",
"35 522 OFFCURVE",
"35 283 CURVE SMOOTH"
);
}
);
width = 664;
}
);
unicode = 00B6;
},
{
glyphname = multiply;
lastChange = "2022-01-16 17:49:46 +0000";
layers = (
{
layerId = "555B79C6-6D98-46E7-9307-77C37975E414";
paths = (
{
closed = 1;
nodes = (
"142 494 OFFCURVE",
"125 490 OFFCURVE",
"113 479 CURVE SMOOTH",
"90 459 OFFCURVE",
"79 419 OFFCURVE",
"118 379 CURVE SMOOTH",
"410 74 LINE SMOOTH",
"425 58 OFFCURVE",
"433 63 OFFCURVE",
"443 72 CURVE SMOOTH",
"457 87 OFFCURVE",
"485 134 OFFCURVE",
"450 170 CURVE SMOOTH",
"157 479 LINE SMOOTH"
);
},
{
closed = 1;
nodes = (
"96 170 LINE SMOOTH",
"61 133 OFFCURVE",
"72 102 OFFCURVE",
"88 86 CURVE SMOOTH",
"98 76 OFFCURVE",
"115 61 OFFCURVE",
"137 84 CURVE SMOOTH",
"436 390 LINE SMOOTH",
"475 430 OFFCURVE",
"466 467 OFFCURVE",
"443 487 CURVE SMOOTH",
"428 500 OFFCURVE",
"414 499 OFFCURVE",
"399 484 CURVE SMOOTH"
);
}
);
width = 536;
},
{
layerId = "9F2BC935-6AE7-4E60-84C9-D3B586669EA4";
paths = (
{
closed = 1;
nodes = (
"128 493 OFFCURVE",
"114 483 OFFCURVE",
"107 476 CURVE SMOOTH",
"88 457 OFFCURVE",
"80 426 OFFCURVE",
"119 386 CURVE SMOOTH",
"414 78 LINE SMOOTH",
"426 65 OFFCURVE",
"433 71 OFFCURVE",
"443 80 CURVE SMOOTH",
"457 95 OFFCURVE",
"471 133 OFFCURVE",
"436 169 CURVE SMOOTH",
"139 481 LINE SMOOTH"
);
},
{
closed = 1;
nodes = (
"99 159 LINE",
"66 123 OFFCURVE",
"73 99 OFFCURVE",
"87 85 CURVE SMOOTH",
"97 75 OFFCURVE",
"108 71 OFFCURVE",
"119 83 CURVE SMOOTH",
"428 400 LINE SMOOTH",
"467 441 OFFCURVE",
"459 465 OFFCURVE",
"440 484 CURVE SMOOTH",
"433 491 OFFCURVE",
"421 495 OFFCURVE",
"410 484 CURVE"
);
}
);
width = 532;
}
);
unicode = 00D7;
},
{
glyphname = divide;
lastChange = "2022-01-16 17:50:12 +0000";
layers = (
{
components = (
{
name = period;
transform = "{0.91024, 0, 0, 0.91024, 206, 385}";
},
{
name = period;
transform = "{0.91024, 0, 0, 0.91024, 192, 52}";
}
);
layerId = "555B79C6-6D98-46E7-9307-77C37975E414";
paths = (
{
closed = 1;
nodes = (
"126 327 LINE SMOOTH",
"75 326 OFFCURVE",
"51 278 OFFCURVE",
"51 258 CURVE SMOOTH",
"51 244 OFFCURVE",
"53 236 OFFCURVE",
"69 236 CURVE SMOOTH",
"469 244 LINE SMOOTH",
"524 245 OFFCURVE",
"545 293 OFFCURVE",
"545 320 CURVE SMOOTH",
"545 330 OFFCURVE",
"543 337 OFFCURVE",
"527 337 CURVE SMOOTH"
);
}
);
width = 556;
},
{
components = (
{
name = period;
transform = "{0.91024, 0, 0, 0.91024, 205, 388}";
},
{
name = period;
transform = "{0.91024, 0, 0, 0.91024, 205, 72}";
}
);
layerId = "9F2BC935-6AE7-4E60-84C9-D3B586669EA4";
paths = (
{
closed = 1;
nodes = (
"108 317 LINE SMOOTH",
"59 316 OFFCURVE",
"40 288 OFFCURVE",
"40 268 CURVE SMOOTH",
"40 254 OFFCURVE",
"42 246 OFFCURVE",
"58 246 CURVE SMOOTH",
"442 254 LINE SMOOTH",
"497 255 OFFCURVE",
"514 283 OFFCURVE",
"514 310 CURVE SMOOTH",
"514 320 OFFCURVE",
"512 327 OFFCURVE",
"496 327 CURVE SMOOTH"
);
}
);
width = 554;
}
);
unicode = 00F7;
},
{
glyphname = endash;
lastChange = "2022-01-16 17:50:21 +0000";
layers = (
{
layerId = "555B79C6-6D98-46E7-9307-77C37975E414";
paths = (
{
closed = 1;
nodes = (
"44 202 OFFCURVE",
"45 195 OFFCURVE",
"55 195 CURVE SMOOTH",
"509 195 LINE SMOOTH",
"536 195 OFFCURVE",
"559 231 OFFCURVE",
"559 259 CURVE SMOOTH",
"559 268 OFFCURVE",
"557 275 OFFCURVE",
"547 275 CURVE SMOOTH",
"99 275 LINE SMOOTH",
"66 275 OFFCURVE",
"44 232 OFFCURVE",
"44 211 CURVE SMOOTH"
);
}
);
width = 603;
},
{
layerId = "9F2BC935-6AE7-4E60-84C9-D3B586669EA4";
paths = (
{
closed = 1;
nodes = (
"50 212 OFFCURVE",
"51 205 OFFCURVE",
"61 205 CURVE SMOOTH",
"495 205 LINE SMOOTH",
"522 205 OFFCURVE",
"545 221 OFFCURVE",
"545 249 CURVE SMOOTH",
"545 258 OFFCURVE",
"543 265 OFFCURVE",
"533 265 CURVE SMOOTH",
"105 265 LINE SMOOTH",
"72 265 OFFCURVE",
"50 242 OFFCURVE",
"50 221 CURVE SMOOTH"
);
}
);
width = 595;
}
);
unicode = 2013;
},
{
glyphname = emdash;
lastChange = "2022-01-16 17:50:32 +0000";
layers = (
{
layerId = "555B79C6-6D98-46E7-9307-77C37975E414";
paths = (
{
closed = 1;
nodes = (
"-11 202 OFFCURVE",
"-10 195 OFFCURVE",
"0 195 CURVE SMOOTH",
"669 195 LINE SMOOTH",
"696 195 OFFCURVE",
"719 231 OFFCURVE",
"719 259 CURVE SMOOTH",
"719 268 OFFCURVE",
"717 275 OFFCURVE",
"707 275 CURVE SMOOTH",
"44 275 LINE SMOOTH",
"11 275 OFFCURVE",
"-11 232 OFFCURVE",
"-11 211 CURVE SMOOTH"
);
}
);
width = 708;
},
{
layerId = "9F2BC935-6AE7-4E60-84C9-D3B586669EA4";
paths = (
{
closed = 1;
nodes = (
"1 212 OFFCURVE",
"2 205 OFFCURVE",
"12 205 CURVE SMOOTH",
"644 205 LINE SMOOTH",
"671 205 OFFCURVE",
"704 221 OFFCURVE",
"704 249 CURVE SMOOTH",
"704 258 OFFCURVE",
"702 265 OFFCURVE",
"692 265 CURVE SMOOTH",
"46 265 LINE SMOOTH",
"18 265 OFFCURVE",
"1 242 OFFCURVE",
"1 221 CURVE SMOOTH"
);
}
);
width = 705;
}
);
unicode = 2014;
},
{
glyphname = dagger;
lastChange = "2022-01-16 17:53:32 +0000";
layers = (
{
layerId = "555B79C6-6D98-46E7-9307-77C37975E414";
paths = (
{
closed = 1;
nodes = (
"84 536 LINE SMOOTH",
"35 535 OFFCURVE",
"16 495 OFFCURVE",
"16 475 CURVE SMOOTH",
"16 461 OFFCURVE",
"20 453 OFFCURVE",
"36 453 CURVE SMOOTH",
"297 459 LINE SMOOTH",
"352 460 OFFCURVE",
"369 500 OFFCURVE",
"369 527 CURVE SMOOTH",
"369 537 OFFCURVE",
"364 544 OFFCURVE",
"348 544 CURVE SMOOTH"
);
},
{
closed = 1;
nodes = (
"238 598 OFFCURVE",
"241 616 OFFCURVE",
"241 634 CURVE SMOOTH",
"241 662 OFFCURVE",
"213 696 OFFCURVE",
"184 696 CURVE SMOOTH",
"169 696 OFFCURVE",
"151 689 OFFCURVE",
"150 669 CURVE SMOOTH",
"114 137 LINE SMOOTH",
"111 94 OFFCURVE",
"135 66 OFFCURVE",
"162 66 CURVE SMOOTH",
"185 66 OFFCURVE",
"199 81 OFFCURVE",
"200 100 CURVE SMOOTH",
"237 582 LINE SMOOTH"
);
}
);
width = 385;
},
{
layerId = "9F2BC935-6AE7-4E60-84C9-D3B586669EA4";
paths = (
{
closed = 1;
nodes = (
"88 530 LINE SMOOTH",
"39 528 OFFCURVE",
"20 501 OFFCURVE",
"20 481 CURVE SMOOTH",
"20 467 OFFCURVE",
"22 459 OFFCURVE",
"38 459 CURVE SMOOTH",
"291 465 LINE SMOOTH",
"346 466 OFFCURVE",
"363 494 OFFCURVE",
"363 521 CURVE SMOOTH",
"363 531 OFFCURVE",
"361 538 OFFCURVE",
"345 538 CURVE SMOOTH"
);
},
{
closed = 1;
nodes = (
"231 598 OFFCURVE",
"234 616 OFFCURVE",
"234 641 CURVE SMOOTH",
"234 662 OFFCURVE",
"206 696 OFFCURVE",
"185 696 CURVE SMOOTH",
"173 696 OFFCURVE",
"161 691 OFFCURVE",
"160 671 CURVE SMOOTH",
"122 121 LINE SMOOTH",
"120 92 OFFCURVE",
"146 69 OFFCURVE",
"163 69 CURVE SMOOTH",
"180 69 OFFCURVE",
"192 84 OFFCURVE",
"193 103 CURVE SMOOTH",
"230 582 LINE SMOOTH"
);
}
);
width = 383;
}
);
unicode = 2020;
},
{
glyphname = daggerdbl;
lastChange = "2022-01-16 17:53:44 +0000";
layers = (
{
layerId = "555B79C6-6D98-46E7-9307-77C37975E414";
paths = (
{
closed = 1;
nodes = (
"102 536 LINE SMOOTH",
"53 535 OFFCURVE",
"34 495 OFFCURVE",
"34 475 CURVE SMOOTH",
"34 461 OFFCURVE",
"38 453 OFFCURVE",
"54 453 CURVE SMOOTH",
"315 459 LINE SMOOTH",
"370 460 OFFCURVE",
"387 500 OFFCURVE",
"387 527 CURVE SMOOTH",
"387 537 OFFCURVE",
"382 544 OFFCURVE",
"366 544 CURVE SMOOTH"
);
},
{
closed = 1;
nodes = (
"256 598 OFFCURVE",
"259 616 OFFCURVE",
"259 634 CURVE SMOOTH",
"259 662 OFFCURVE",
"231 696 OFFCURVE",
"202 696 CURVE SMOOTH",
"187 696 OFFCURVE",
"169 689 OFFCURVE",
"168 669 CURVE SMOOTH",
"132 137 LINE SMOOTH",
"129 94 OFFCURVE",
"153 66 OFFCURVE",
"180 66 CURVE SMOOTH",
"203 66 OFFCURVE",
"217 81 OFFCURVE",
"218 100 CURVE SMOOTH",
"255 582 LINE SMOOTH"
);
},
{
closed = 1;
nodes = (
"84 314 LINE SMOOTH",
"35 313 OFFCURVE",
"16 273 OFFCURVE",
"16 253 CURVE SMOOTH",
"16 239 OFFCURVE",
"20 231 OFFCURVE",
"36 231 CURVE SMOOTH",
"297 237 LINE SMOOTH",
"352 238 OFFCURVE",
"369 278 OFFCURVE",
"369 305 CURVE SMOOTH",
"369 315 OFFCURVE",
"364 322 OFFCURVE",
"348 322 CURVE SMOOTH"
);
}
);
width = 403;
},
{
layerId = "9F2BC935-6AE7-4E60-84C9-D3B586669EA4";
paths = (
{
closed = 1;
nodes = (
"106 530 LINE SMOOTH",
"57 528 OFFCURVE",
"38 501 OFFCURVE",
"38 481 CURVE SMOOTH",
"38 467 OFFCURVE",
"40 459 OFFCURVE",
"56 459 CURVE SMOOTH",
"309 465 LINE SMOOTH",
"364 466 OFFCURVE",
"381 494 OFFCURVE",
"381 521 CURVE SMOOTH",
"381 531 OFFCURVE",
"379 538 OFFCURVE",
"363 538 CURVE SMOOTH"
);
},
{
closed = 1;
nodes = (
"249 598 OFFCURVE",
"252 616 OFFCURVE",
"252 641 CURVE SMOOTH",
"252 662 OFFCURVE",
"224 696 OFFCURVE",
"203 696 CURVE SMOOTH",
"191 696 OFFCURVE",
"179 691 OFFCURVE",
"178 671 CURVE SMOOTH",
"140 121 LINE SMOOTH",
"138 92 OFFCURVE",
"164 69 OFFCURVE",
"181 69 CURVE SMOOTH",
"198 69 OFFCURVE",
"210 84 OFFCURVE",
"211 103 CURVE SMOOTH",
"248 582 LINE SMOOTH"
);
},
{
closed = 1;
nodes = (
"88 308 LINE SMOOTH",
"39 306 OFFCURVE",
"20 279 OFFCURVE",
"20 259 CURVE SMOOTH",
"20 245 OFFCURVE",
"22 237 OFFCURVE",
"38 237 CURVE SMOOTH",
"291 243 LINE SMOOTH",
"346 244 OFFCURVE",
"363 272 OFFCURVE",
"363 299 CURVE SMOOTH",
"363 309 OFFCURVE",
"361 316 OFFCURVE",
"345 316 CURVE SMOOTH"
);
}
);
width = 401;
}
);
unicode = 2021;
},
{
glyphname = perthousand;
lastChange = "2022-01-16 17:54:12 +0000";
layers = (
{
components = (
{
name = percent;
}
);
layerId = "555B79C6-6D98-46E7-9307-77C37975E414";
paths = (
{
closed = 1;
nodes = (
"810 -26 OFFCURVE",
"873 48 OFFCURVE",
"873 140 CURVE SMOOTH",
"873 214 OFFCURVE",
"831 276 OFFCURVE",
"744 276 CURVE SMOOTH",
"650 276 OFFCURVE",
"590 201 OFFCURVE",
"590 111 CURVE SMOOTH",
"590 35 OFFCURVE",
"639 -26 OFFCURVE",
"720 -26 CURVE SMOOTH"
);
},
{
closed = 1;
nodes = (
"693 63 OFFCURVE",
"676 87 OFFCURVE",
"676 121 CURVE SMOOTH",
"676 161 OFFCURVE",
"702 191 OFFCURVE",
"740 189 CURVE SMOOTH",
"772 188 OFFCURVE",
"787 164 OFFCURVE",
"787 131 CURVE SMOOTH",
"787 89 OFFCURVE",
"762 63 OFFCURVE",
"727 63 CURVE SMOOTH"
);
}
);
width = 883;
},
{
components = (
{
name = percent;
}
);
layerId = "9F2BC935-6AE7-4E60-84C9-D3B586669EA4";
paths = (
{
closed = 1;
nodes = (
"772 -12 OFFCURVE",
"832 55 OFFCURVE",
"832 139 CURVE SMOOTH",
"832 206 OFFCURVE",
"792 262 OFFCURVE",
"709 262 CURVE SMOOTH",
"620 262 OFFCURVE",
"563 194 OFFCURVE",
"563 112 CURVE SMOOTH",
"563 43 OFFCURVE",
"609 -12 OFFCURVE",
"687 -12 CURVE SMOOTH"
);
},
{
closed = 1;
nodes = (
"657 57 OFFCURVE",
"637 83 OFFCURVE",
"637 121 CURVE SMOOTH",
"637 164 OFFCURVE",
"666 197 OFFCURVE",
"706 195 CURVE SMOOTH",
"740 194 OFFCURVE",
"758 168 OFFCURVE",
"758 132 CURVE SMOOTH",
"758 85 OFFCURVE",
"730 57 OFFCURVE",
"693 57 CURVE SMOOTH"
);
}
);
width = 842;
}
);
unicode = 2030;
},
{
glyphname = guilsinglleft;
lastChange = "2022-01-16 17:54:24 +0000";
layers = (
{
layerId = "555B79C6-6D98-46E7-9307-77C37975E414";
paths = (
{
closed = 1;
nodes = (
"321 440 CURVE SMOOTH",
"338 440 OFFCURVE",
"347 429 OFFCURVE",
"347 416 CURVE SMOOTH",
"347 380 OFFCURVE",
"304 348 OFFCURVE",
"211 281 CURVE SMOOTH",
"132 224 LINE",
"139 249 LINE",
"301 129 LINE SMOOTH",
"315 119 OFFCURVE",
"317 112 OFFCURVE",
"317 104 CURVE SMOOTH",
"317 84 OFFCURVE",
"274 42 OFFCURVE",
"250 42 CURVE SMOOTH",
"236 42 OFFCURVE",
"224 49 OFFCURVE",
"202 69 CURVE SMOOTH",
"37 215 LINE SMOOTH",
"31 220 OFFCURVE",
"22 227 OFFCURVE",
"22 240 CURVE SMOOTH",
"22 252 OFFCURVE",
"30 260 OFFCURVE",
"44 269 CURVE SMOOTH",
"266 417 LINE SMOOTH",
"281 427 OFFCURVE",
"305 440 OFFCURVE"
);
}
);
width = 367;
},
{
layerId = "9F2BC935-6AE7-4E60-84C9-D3B586669EA4";
paths = (
{
closed = 1;
nodes = (
"317 428 CURVE SMOOTH",
"330 428 OFFCURVE",
"339 422 OFFCURVE",
"339 409 CURVE SMOOTH",
"339 393 OFFCURVE",
"329 362 OFFCURVE",
"211 286 CURVE SMOOTH",
"132 235 LINE",
"139 246 LINE",
"291 125 LINE SMOOTH",
"299 118 OFFCURVE",
"302 112 OFFCURVE",
"302 104 CURVE SMOOTH",
"302 84 OFFCURVE",
"270 58 OFFCURVE",
"252 58 CURVE SMOOTH",
"238 58 OFFCURVE",
"225 65 OFFCURVE",
"202 84 CURVE SMOOTH",
"37 218 LINE SMOOTH",
"31 223 OFFCURVE",
"25 231 OFFCURVE",
"25 240 CURVE SMOOTH",
"25 248 OFFCURVE",
"30 257 OFFCURVE",
"44 266 CURVE SMOOTH",
"281 416 LINE SMOOTH",
"292 423 OFFCURVE",
"304 428 OFFCURVE"
);
}
);
width = 369;
}
);
unicode = 2039;
},
{
glyphname = fraction;
lastChange = "2022-01-16 17:54:44 +0000";
layers = (
{
layerId = "555B79C6-6D98-46E7-9307-77C37975E414";
paths = (
{
closed = 1;
nodes = (
"525 600 OFFCURVE",
"541 620 OFFCURVE",
"541 645 CURVE SMOOTH",
"541 662 OFFCURVE",
"524 696 OFFCURVE",
"500 696 CURVE SMOOTH",
"490 696 OFFCURVE",
"485 692 OFFCURVE",
"473 675 CURVE SMOOTH",
"57 91 LINE SMOOTH",
"39 66 OFFCURVE",
"28 48 OFFCURVE",
"28 31 CURVE SMOOTH",
"28 14 OFFCURVE",
"48 -15 OFFCURVE",
"66 -15 CURVE SMOOTH",
"83 -15 OFFCURVE",
"87 -5 OFFCURVE",
"100 13 CURVE SMOOTH",
"515 586 LINE SMOOTH"
);
}
);
width = 600;
},
{
layerId = "9F2BC935-6AE7-4E60-84C9-D3B586669EA4";
paths = (
{
closed = 1;
nodes = (
"524 600 OFFCURVE",
"540 620 OFFCURVE",
"540 645 CURVE SMOOTH",
"540 656 OFFCURVE",
"529 688 OFFCURVE",
"508 688 CURVE SMOOTH",
"496 688 OFFCURVE",
"493 684 OFFCURVE",
"481 667 CURVE SMOOTH",
"68 86 LINE SMOOTH",
"50 61 OFFCURVE",
"39 43 OFFCURVE",
"39 26 CURVE SMOOTH",
"39 13 OFFCURVE",
"51 -15 OFFCURVE",
"65 -15 CURVE SMOOTH",
"82 -15 OFFCURVE",
"86 -5 OFFCURVE",
"99 13 CURVE SMOOTH",
"514 586 LINE SMOOTH"
);
}
);
width = 600;
}
);
unicode = 2044;
},
{
glyphname = trademark;
lastChange = "2022-01-16 17:55:05 +0000";
layers = (
{
hints = (
{
origin = "{0, 14}";
type = Corner;
name = _corner.serifUC;
},
{
origin = "{1, 27}";
type = Corner;
name = _corner.serifUC;
},
{
origin = "{1, 41}";
type = Corner;
name = _corner.serifUC;
}
);
layerId = "555B79C6-6D98-46E7-9307-77C37975E414";
paths = (
{
closed = 1;
nodes = (
"10 579 OFFCURVE",
"14 570 OFFCURVE",
"24 570 CURVE SMOOTH",
"31 570 OFFCURVE",
"47 575 OFFCURVE",
"58 578 CURVE SMOOTH",
"141 604 LINE",
"112 351 LINE SMOOTH",
"106 296 OFFCURVE",
"102 269 OFFCURVE",
"102 243 CURVE SMOOTH",
"102 218 OFFCURVE",
"107 192 OFFCURVE",
"133 192 CURVE SMOOTH",
"229 192 LINE",
"269 604 LINE",
"340 585 LINE SMOOTH",
"356 581 OFFCURVE",
"371 577 OFFCURVE",
"380 577 CURVE SMOOTH",
"399 577 OFFCURVE",
"417 618 OFFCURVE",
"416 671 CURVE SMOOTH",
"416 687 OFFCURVE",
"408 692 OFFCURVE",
"399 692 CURVE SMOOTH",
"381 692 OFFCURVE",
"341 680 OFFCURVE",
"222 680 CURVE SMOOTH",
"48 680 LINE SMOOTH",
"25 680 OFFCURVE",
"10 625 OFFCURVE",
"10 593 CURVE SMOOTH"
);
},
{
closed = 1;
nodes = (
"423 206 OFFCURVE",
"429 189 OFFCURVE",
"444 189 CURVE SMOOTH",
"476 189 OFFCURVE",
"541 211 OFFCURVE",
"541 232 CURVE SMOOTH",
"541 255 OFFCURVE",
"514 256 OFFCURVE",
"531 406 CURVE SMOOTH",
"552 589 LINE",
"531 589 LINE",
"625 231 LINE SMOOTH",
"630 211 OFFCURVE",
"640 207 OFFCURVE",
"652 207 CURVE SMOOTH",
"696 207 OFFCURVE",
"721 225 OFFCURVE",
"781 351 CURVE SMOOTH",
"896 593 LINE",
"877 596 LINE",
"843 364 LINE SMOOTH",
"837 322 OFFCURVE",
"831 274 OFFCURVE",
"831 236 CURVE SMOOTH",
"831 208 OFFCURVE",
"843 192 OFFCURVE",
"866 192 CURVE SMOOTH",
"954 192 LINE",
"1002 658 LINE SMOOTH",
"1005 684 OFFCURVE",
"995 690 OFFCURVE",
"968 691 CURVE SMOOTH",
"891 694 OFFCURVE",
"840 678 OFFCURVE",
"821 635 CURVE SMOOTH",
"667 287 LINE",
"738 300 LINE",
"636 651 LINE SMOOTH",
"626 684 OFFCURVE",
"596 691 OFFCURVE",
"576 691 CURVE SMOOTH",
"474 691 LINE",
"431 333 LINE SMOOTH",
"427 297 OFFCURVE",
"423 259 OFFCURVE",
"423 226 CURVE SMOOTH"
);
}
);
width = 1033;
},
{
hints = (
{
origin = "{0, 14}";
type = Corner;
name = _corner.serifUC;
},
{
origin = "{1, 27}";
type = Corner;
name = _corner.serifUC;
},
{
origin = "{1, 41}";
type = Corner;
name = _corner.serifUC;
}
);
layerId = "9F2BC935-6AE7-4E60-84C9-D3B586669EA4";
paths = (
{
closed = 1;
nodes = (
"10 592 OFFCURVE",
"14 584 OFFCURVE",
"24 584 CURVE SMOOTH",
"31 584 OFFCURVE",
"39 587 OFFCURVE",
"50 589 CURVE SMOOTH",
"144 610 LINE",
"115 351 LINE SMOOTH",
"109 296 OFFCURVE",
"105 269 OFFCURVE",
"105 243 CURVE SMOOTH",
"105 218 OFFCURVE",
"105 192 OFFCURVE",
"120 192 CURVE SMOOTH",
"211 192 LINE",
"251 610 LINE",
"332 596 LINE SMOOTH",
"348 593 OFFCURVE",
"359 590 OFFCURVE",
"369 590 CURVE SMOOTH",
"384 590 OFFCURVE",
"403 620 OFFCURVE",
"402 678 CURVE SMOOTH",
"402 689 OFFCURVE",
"398 692 OFFCURVE",
"389 692 CURVE SMOOTH",
"373 692 OFFCURVE",
"333 680 OFFCURVE",
"214 680 CURVE SMOOTH",
"42 680 LINE SMOOTH",
"25 680 OFFCURVE",
"12 636 OFFCURVE",
"10 601 CURVE SMOOTH"
);
},
{
closed = 1;
nodes = (
"412 206 OFFCURVE",
"415 189 OFFCURVE",
"430 189 CURVE SMOOTH",
"447 189 OFFCURVE",
"516 211 OFFCURVE",
"516 232 CURVE SMOOTH",
"516 255 OFFCURVE",
"489 256 OFFCURVE",
"506 406 CURVE SMOOTH",
"527 589 LINE",
"519 589 LINE",
"616 227 LINE SMOOTH",
"621 210 OFFCURVE",
"631 207 OFFCURVE",
"643 207 CURVE SMOOTH",
"676 207 OFFCURVE",
"697 225 OFFCURVE",
"757 351 CURVE SMOOTH",
"872 593 LINE",
"868 596 LINE",
"834 364 LINE SMOOTH",
"828 322 OFFCURVE",
"822 274 OFFCURVE",
"822 236 CURVE SMOOTH",
"822 208 OFFCURVE",
"834 192 OFFCURVE",
"847 192 CURVE SMOOTH",
"927 192 LINE",
"975 658 LINE SMOOTH",
"978 684 OFFCURVE",
"968 690 OFFCURVE",
"949 691 CURVE SMOOTH",
"872 696 OFFCURVE",
"826 678 OFFCURVE",
"807 635 CURVE SMOOTH",
"653 287 LINE",
"711 293 LINE",
"607 651 LINE SMOOTH",
"597 684 OFFCURVE",
"577 691 OFFCURVE",
"557 691 CURVE SMOOTH",
"463 691 LINE",
"420 333 LINE SMOOTH",
"416 297 OFFCURVE",
"412 259 OFFCURVE",
"412 226 CURVE SMOOTH"
);
}
);
width = 1006;
}
);
unicode = 2122;
},
{
glyphname = minus;
lastChange = "2022-01-16 17:55:15 +0000";
layers = (
{
layerId = "555B79C6-6D98-46E7-9307-77C37975E414";
paths = (
{
closed = 1;
nodes = (
"123 320 LINE SMOOTH",
"74 319 OFFCURVE",
"50 267 OFFCURVE",
"50 247 CURVE SMOOTH",
"50 233 OFFCURVE",
"52 225 OFFCURVE",
"68 225 CURVE SMOOTH",
"441 233 LINE SMOOTH",
"496 234 OFFCURVE",
"518 286 OFFCURVE",
"518 313 CURVE SMOOTH",
"518 323 OFFCURVE",
"516 330 OFFCURVE",
"500 330 CURVE SMOOTH"
);
}
);
width = 568;
},
{
layerId = "9F2BC935-6AE7-4E60-84C9-D3B586669EA4";
paths = (
{
closed = 1;
nodes = (
"118 308 LINE SMOOTH",
"69 307 OFFCURVE",
"50 279 OFFCURVE",
"50 259 CURVE SMOOTH",
"50 245 OFFCURVE",
"52 237 OFFCURVE",
"68 237 CURVE SMOOTH",
"432 245 LINE SMOOTH",
"487 246 OFFCURVE",
"504 274 OFFCURVE",
"504 301 CURVE SMOOTH",
"504 311 OFFCURVE",
"502 318 OFFCURVE",
"486 318 CURVE SMOOTH"
);
}
);
width = 554;
}
);
unicode = 2212;
},
{
glyphname = approxequal;
lastChange = "2022-01-16 17:55:25 +0000";
layers = (
{
layerId = "555B79C6-6D98-46E7-9307-77C37975E414";
paths = (
{
closed = 1;
nodes = (
"90 280 OFFCURVE",
"114 269 OFFCURVE",
"134 269 CURVE SMOOTH",
"151 269 OFFCURVE",
"157 278 OFFCURVE",
"161 293 CURVE SMOOTH",
"172 335 OFFCURVE",
"182 344 OFFCURVE",
"210 344 CURVE SMOOTH",
"265 344 OFFCURVE",
"307 250 OFFCURVE",
"401 250 CURVE SMOOTH",
"464 250 OFFCURVE",
"519 322 OFFCURVE",
"519 389 CURVE SMOOTH",
"519 422 OFFCURVE",
"491 428 OFFCURVE",
"476 428 CURVE SMOOTH",
"464 428 OFFCURVE",
"453 419 OFFCURVE",
"450 404 CURVE SMOOTH",
"438 362 OFFCURVE",
"427 353 OFFCURVE",
"399 353 CURVE SMOOTH",
"347 353 OFFCURVE",
"302 447 OFFCURVE",
"208 447 CURVE SMOOTH",
"145 447 OFFCURVE",
"90 375 OFFCURVE",
"90 308 CURVE SMOOTH"
);
},
{
closed = 1;
nodes = (
"69 88 OFFCURVE",
"93 77 OFFCURVE",
"113 77 CURVE SMOOTH",
"130 77 OFFCURVE",
"136 86 OFFCURVE",
"140 101 CURVE SMOOTH",
"151 143 OFFCURVE",
"161 152 OFFCURVE",
"189 152 CURVE SMOOTH",
"244 152 OFFCURVE",
"286 58 OFFCURVE",
"380 58 CURVE SMOOTH",
"443 58 OFFCURVE",
"498 130 OFFCURVE",
"498 197 CURVE SMOOTH",
"498 230 OFFCURVE",
"470 236 OFFCURVE",
"455 236 CURVE SMOOTH",
"443 236 OFFCURVE",
"432 227 OFFCURVE",
"429 212 CURVE SMOOTH",
"417 170 OFFCURVE",
"406 161 OFFCURVE",
"378 161 CURVE SMOOTH",
"326 161 OFFCURVE",
"281 255 OFFCURVE",
"187 255 CURVE SMOOTH",
"124 255 OFFCURVE",
"69 183 OFFCURVE",
"69 116 CURVE SMOOTH"
);
}
);
width = 577;
},
{
layerId = "9F2BC935-6AE7-4E60-84C9-D3B586669EA4";
paths = (
{
closed = 1;
nodes = (
"95 280 OFFCURVE",
"119 274 OFFCURVE",
"134 274 CURVE SMOOTH",
"146 274 OFFCURVE",
"152 278 OFFCURVE",
"156 293 CURVE SMOOTH",
"167 335 OFFCURVE",
"182 359 OFFCURVE",
"210 359 CURVE SMOOTH",
"265 359 OFFCURVE",
"307 265 OFFCURVE",
"401 265 CURVE SMOOTH",
"464 265 OFFCURVE",
"514 322 OFFCURVE",
"514 389 CURVE SMOOTH",
"514 417 OFFCURVE",
"491 423 OFFCURVE",
"476 423 CURVE SMOOTH",
"464 423 OFFCURVE",
"458 419 OFFCURVE",
"455 404 CURVE SMOOTH",
"443 362 OFFCURVE",
"427 338 OFFCURVE",
"399 338 CURVE SMOOTH",
"347 338 OFFCURVE",
"302 432 OFFCURVE",
"208 432 CURVE SMOOTH",
"145 432 OFFCURVE",
"95 375 OFFCURVE",
"95 308 CURVE SMOOTH"
);
},
{
closed = 1;
nodes = (
"74 88 OFFCURVE",
"98 82 OFFCURVE",
"113 82 CURVE SMOOTH",
"125 82 OFFCURVE",
"131 86 OFFCURVE",
"135 101 CURVE SMOOTH",
"146 143 OFFCURVE",
"161 167 OFFCURVE",
"189 167 CURVE SMOOTH",
"244 167 OFFCURVE",
"286 73 OFFCURVE",
"380 73 CURVE SMOOTH",
"443 73 OFFCURVE",
"493 130 OFFCURVE",
"493 197 CURVE SMOOTH",
"493 225 OFFCURVE",
"470 231 OFFCURVE",
"455 231 CURVE SMOOTH",
"443 231 OFFCURVE",
"437 227 OFFCURVE",
"434 212 CURVE SMOOTH",
"422 170 OFFCURVE",
"406 146 OFFCURVE",
"378 146 CURVE SMOOTH",
"326 146 OFFCURVE",
"281 240 OFFCURVE",
"187 240 CURVE SMOOTH",
"124 240 OFFCURVE",
"74 183 OFFCURVE",
"74 116 CURVE SMOOTH"
);
}
);
width = 577;
}
);
unicode = 2248;
},
{
glyphname = notequal;
lastChange = "2022-01-16 17:55:39 +0000";
layers = (
{
components = (
{
name = equal;
}
);
layerId = "555B79C6-6D98-46E7-9307-77C37975E414";
paths = (
{
closed = 1;
nodes = (
"162 112 LINE SMOOTH",
"141 71 OFFCURVE",
"137 44 OFFCURVE",
"151 30 CURVE SMOOTH",
"161 20 OFFCURVE",
"185 15 OFFCURVE",
"192 28 CURVE SMOOTH",
"404 437 LINE SMOOTH",
"430 487 OFFCURVE",
"425 510 OFFCURVE",
"406 529 CURVE SMOOTH",
"399 536 OFFCURVE",
"383 542 OFFCURVE",
"376 529 CURVE SMOOTH"
);
}
);
width = 552;
},
{
components = (
{
name = equal;
transform = "{1, 0, 0, 1, 41, 0}";
}
);
layerId = "9F2BC935-6AE7-4E60-84C9-D3B586669EA4";
paths = (
{
closed = 1;
nodes = (
"203 112 LINE SMOOTH",
"182 71 OFFCURVE",
"178 44 OFFCURVE",
"192 30 CURVE SMOOTH",
"202 20 OFFCURVE",
"226 15 OFFCURVE",
"233 28 CURVE SMOOTH",
"445 437 LINE SMOOTH",
"471 487 OFFCURVE",
"466 510 OFFCURVE",
"447 529 CURVE SMOOTH",
"440 536 OFFCURVE",
"424 542 OFFCURVE",
"417 529 CURVE SMOOTH"
);
}
);
width = 505;
}
);
unicode = 2260;
},
{
glyphname = lessequal;
lastChange = "2022-01-16 17:55:51 +0000";
layers = (
{
layerId = "555B79C6-6D98-46E7-9307-77C37975E414";
paths = (
{
closed = 1;
nodes = (
"508 519 OFFCURVE",
"495 526 OFFCURVE",
"454 514 CURVE SMOOTH",
"166 428 LINE SMOOTH",
"95 407 OFFCURVE",
"71 368 OFFCURVE",
"71 331 CURVE SMOOTH",
"71 316 OFFCURVE",
"80 296 OFFCURVE",
"105 288 CURVE SMOOTH",
"408 188 LINE SMOOTH",
"421 184 OFFCURVE",
"432 180 OFFCURVE",
"444 180 CURVE SMOOTH",
"475 180 OFFCURVE",
"504 214 OFFCURVE",
"504 238 CURVE SMOOTH",
"504 253 OFFCURVE",
"496 258 OFFCURVE",
"481 262 CURVE SMOOTH",
"145 360 LINE",
"145 337 LINE",
"451 419 LINE SMOOTH",
"490 429 OFFCURVE",
"508 466 OFFCURVE",
"508 497 CURVE SMOOTH"
);
},
{
closed = 1;
nodes = (
"113 136 LINE SMOOTH",
"64 135 OFFCURVE",
"45 87 OFFCURVE",
"45 67 CURVE SMOOTH",
"45 53 OFFCURVE",
"47 45 OFFCURVE",
"63 45 CURVE SMOOTH",
"437 51 LINE SMOOTH",
"492 52 OFFCURVE",
"509 100 OFFCURVE",
"509 127 CURVE SMOOTH",
"509 137 OFFCURVE",
"507 144 OFFCURVE",
"491 144 CURVE SMOOTH"
);
}
);
width = 554;
},
{
layerId = "9F2BC935-6AE7-4E60-84C9-D3B586669EA4";
paths = (
{
closed = 1;
nodes = (
"496 502 OFFCURVE",
"483 508 OFFCURVE",
"444 497 CURVE SMOOTH",
"170 419 LINE SMOOTH",
"102 400 OFFCURVE",
"79 364 OFFCURVE",
"79 331 CURVE SMOOTH",
"79 317 OFFCURVE",
"88 299 OFFCURVE",
"112 292 CURVE SMOOTH",
"404 201 LINE SMOOTH",
"416 197 OFFCURVE",
"427 193 OFFCURVE",
"438 193 CURVE SMOOTH",
"468 193 OFFCURVE",
"488 219 OFFCURVE",
"488 234 CURVE SMOOTH",
"488 248 OFFCURVE",
"484 252 OFFCURVE",
"470 256 CURVE SMOOTH",
"150 354 LINE",
"150 339 LINE",
"449 423 LINE SMOOTH",
"483 433 OFFCURVE",
"496 461 OFFCURVE",
"496 482 CURVE SMOOTH"
);
},
{
closed = 1;
nodes = (
"118 132 LINE SMOOTH",
"69 131 OFFCURVE",
"50 103 OFFCURVE",
"50 83 CURVE SMOOTH",
"50 69 OFFCURVE",
"52 61 OFFCURVE",
"68 61 CURVE SMOOTH",
"432 67 LINE SMOOTH",
"487 68 OFFCURVE",
"504 96 OFFCURVE",
"504 123 CURVE SMOOTH",
"504 133 OFFCURVE",
"502 140 OFFCURVE",
"486 140 CURVE SMOOTH"
);
}
);
width = 554;
}
);
unicode = 2264;
},
{
glyphname = greaterequal;
lastChange = "2022-01-16 17:56:00 +0000";
layers = (
{
layerId = "555B79C6-6D98-46E7-9307-77C37975E414";
paths = (
{
closed = 1;
nodes = (
"78 178 OFFCURVE",
"91 171 OFFCURVE",
"132 183 CURVE SMOOTH",
"420 269 LINE SMOOTH",
"491 290 OFFCURVE",
"515 329 OFFCURVE",
"515 366 CURVE SMOOTH",
"515 381 OFFCURVE",
"506 401 OFFCURVE",
"481 409 CURVE SMOOTH",
"178 509 LINE SMOOTH",
"165 513 OFFCURVE",
"154 517 OFFCURVE",
"142 517 CURVE SMOOTH",
"111 517 OFFCURVE",
"82 483 OFFCURVE",
"82 459 CURVE SMOOTH",
"82 444 OFFCURVE",
"90 439 OFFCURVE",
"105 435 CURVE SMOOTH",
"441 337 LINE",
"441 360 LINE",
"135 278 LINE SMOOTH",
"96 268 OFFCURVE",
"78 231 OFFCURVE",
"78 200 CURVE SMOOTH"
);
},
{
closed = 1;
nodes = (
"112 136 LINE SMOOTH",
"63 135 OFFCURVE",
"44 87 OFFCURVE",
"44 67 CURVE SMOOTH",
"44 53 OFFCURVE",
"46 45 OFFCURVE",
"62 45 CURVE SMOOTH",
"436 51 LINE SMOOTH",
"491 52 OFFCURVE",
"508 100 OFFCURVE",
"508 127 CURVE SMOOTH",
"508 137 OFFCURVE",
"506 144 OFFCURVE",
"490 144 CURVE SMOOTH"
);
}
);
width = 560;
},
{
layerId = "9F2BC935-6AE7-4E60-84C9-D3B586669EA4";
paths = (
{
closed = 1;
nodes = (
"89 193 OFFCURVE",
"102 187 OFFCURVE",
"141 198 CURVE SMOOTH",
"415 276 LINE SMOOTH",
"483 295 OFFCURVE",
"506 331 OFFCURVE",
"506 364 CURVE SMOOTH",
"506 378 OFFCURVE",
"497 396 OFFCURVE",
"473 403 CURVE SMOOTH",
"181 494 LINE SMOOTH",
"169 498 OFFCURVE",
"158 502 OFFCURVE",
"147 502 CURVE SMOOTH",
"117 502 OFFCURVE",
"97 476 OFFCURVE",
"97 461 CURVE SMOOTH",
"97 447 OFFCURVE",
"101 443 OFFCURVE",
"115 439 CURVE SMOOTH",
"435 341 LINE",
"435 356 LINE",
"136 272 LINE SMOOTH",
"102 262 OFFCURVE",
"89 234 OFFCURVE",
"89 213 CURVE SMOOTH"
);
},
{
closed = 1;
nodes = (
"118 132 LINE SMOOTH",
"69 131 OFFCURVE",
"50 103 OFFCURVE",
"50 83 CURVE SMOOTH",
"50 69 OFFCURVE",
"52 61 OFFCURVE",
"68 61 CURVE SMOOTH",
"432 67 LINE SMOOTH",
"487 68 OFFCURVE",
"504 96 OFFCURVE",
"504 123 CURVE SMOOTH",
"504 133 OFFCURVE",
"502 140 OFFCURVE",
"486 140 CURVE SMOOTH"
);
}
);
width = 556;
}
);
unicode = 2265;
},
{
glyphname = "a-oriya";
lastChange = "2021-11-05 16:35:26 +0000";
layers = (
{
background = {
paths = (
{
closed = 1;
nodes = (
"411 519 OFFCURVE",
"426 491 OFFCURVE",
"426 466 CURVE SMOOTH",
"426 380 OFFCURVE",
"50 330 OFFCURVE",
"50 166 CURVE SMOOTH",
"50 79 OFFCURVE",
"125 10 OFFCURVE",
"261 10 CURVE SMOOTH",
"411 10 OFFCURVE",
"531 96 OFFCURVE",
"564 126 CURVE",
"575 284 LINE",
"520 216 OFFCURVE",
"369 114 OFFCURVE",
"258 114 CURVE SMOOTH",
"212 114 OFFCURVE",
"173 138 OFFCURVE",
"173 171 CURVE SMOOTH",
"173 266 OFFCURVE",
"530 288 OFFCURVE",
"530 478 CURVE SMOOTH",
"530 570 OFFCURVE",
"462 613 OFFCURVE",
"403 613 CURVE SMOOTH",
"365 613 OFFCURVE",
"329 594 OFFCURVE",
"307 565 CURVE",
"287 592 OFFCURVE",
"257 613 OFFCURVE",
"207 613 CURVE SMOOTH",
"139 613 OFFCURVE",
"68 554 OFFCURVE",
"68 475 CURVE SMOOTH",
"68 405 OFFCURVE",
"127 343 OFFCURVE",
"165 343 CURVE SMOOTH",
"203 343 OFFCURVE",
"249 396 OFFCURVE",
"249 435 CURVE SMOOTH",
"249 441 OFFCURVE",
"247 443 OFFCURVE",
"244 443 CURVE SMOOTH",
"237 443 OFFCURVE",
"226 428 OFFCURVE",
"216 428 CURVE SMOOTH",
"200 428 OFFCURVE",
"163 453 OFFCURVE",
"163 478 CURVE SMOOTH",
"163 508 OFFCURVE",
"191 524 OFFCURVE",
"215 524 CURVE SMOOTH",
"248 524 OFFCURVE",
"264 506 OFFCURVE",
"264 477 CURVE SMOOTH",
"264 463 OFFCURVE",
"267 458 OFFCURVE",
"276 458 CURVE SMOOTH",
"290 458 OFFCURVE",
"317 458 OFFCURVE",
"327 458 CURVE SMOOTH",
"336 458 OFFCURVE",
"341 461 OFFCURVE",
"341 476 CURVE SMOOTH",
"341 506 OFFCURVE",
"352 519 OFFCURVE",
"380 519 CURVE SMOOTH"
);
},
{
closed = 1;
nodes = (
"704 595 OFFCURVE",
"704 606 OFFCURVE",
"691 606 CURVE SMOOTH",
"677 606 OFFCURVE",
"662 606 OFFCURVE",
"613 606 CURVE SMOOTH",
"600 606 OFFCURVE",
"596 600 OFFCURVE",
"595 589 CURVE SMOOTH",
"578 402 OFFCURVE",
"556 171 OFFCURVE",
"543 77 CURVE SMOOTH",
"538 40 OFFCURVE",
"530 -3 OFFCURVE",
"557 -3 CURVE SMOOTH",
"601 -3 OFFCURVE",
"660 109 OFFCURVE",
"668 188 CURVE SMOOTH",
"683 339 OFFCURVE",
"697 542 OFFCURVE",
"703 587 CURVE SMOOTH"
);
}
);
};
layerId = "555B79C6-6D98-46E7-9307-77C37975E414";
paths = (
{
closed = 1;
nodes = (
"400 506 OFFCURVE",
"415 490 OFFCURVE",
"415 468 CURVE SMOOTH",
"415 383 OFFCURVE",
"40 319 OFFCURVE",
"40 155 CURVE SMOOTH",
"40 64 OFFCURVE",
"127 0 OFFCURVE",
"259 0 CURVE SMOOTH",
"409 0 OFFCURVE",
"532 87 OFFCURVE",
"565 117 CURVE",
"576 304 LINE",
"521 236 OFFCURVE",
"370 132 OFFCURVE",
"259 132 CURVE SMOOTH",
"215 132 OFFCURVE",
"196 151 OFFCURVE",
"196 170 CURVE SMOOTH",
"196 240 OFFCURVE",
"551 292 OFFCURVE",
"551 473 CURVE SMOOTH",
"551 577 OFFCURVE",
"476 613 OFFCURVE",
"415 613 CURVE SMOOTH",
"370 613 OFFCURVE",
"330 594 OFFCURVE",
"308 565 CURVE",
"288 592 OFFCURVE",
"258 613 OFFCURVE",
"208 613 CURVE SMOOTH",
"140 613 OFFCURVE",
"59 554 OFFCURVE",
"59 475 CURVE SMOOTH",
"59 392 OFFCURVE",
"125 336 OFFCURVE",
"163 336 CURVE SMOOTH",
"211 336 OFFCURVE",
"255 396 OFFCURVE",
"255 435 CURVE SMOOTH",
"255 441 OFFCURVE",
"253 447 OFFCURVE",
"247 447 CURVE SMOOTH",
"240 447 OFFCURVE",
"231 435 OFFCURVE",
"223 435 CURVE SMOOTH",
"207 435 OFFCURVE",
"177 455 OFFCURVE",
"177 478 CURVE SMOOTH",
"177 497 OFFCURVE",
"195 509 OFFCURVE",
"216 509 CURVE SMOOTH",
"249 509 OFFCURVE",
"255 490 OFFCURVE",
"255 477 CURVE SMOOTH",
"255 463 OFFCURVE",
"258 458 OFFCURVE",
"267 458 CURVE SMOOTH",
"281 458 OFFCURVE",
"328 458 OFFCURVE",
"338 458 CURVE SMOOTH",
"347 458 OFFCURVE",
"352 461 OFFCURVE",
"352 476 CURVE SMOOTH",
"352 501 OFFCURVE",
"365 506 OFFCURVE",
"380 506 CURVE SMOOTH"
);
},
{
closed = 1;
nodes = (
"732 596 OFFCURVE",
"732 607 OFFCURVE",
"719 607 CURVE SMOOTH",
"705 607 OFFCURVE",
"690 607 OFFCURVE",
"614 607 CURVE SMOOTH",
"601 607 OFFCURVE",
"597 601 OFFCURVE",
"596 590 CURVE SMOOTH",
"579 403 OFFCURVE",
"557 172 OFFCURVE",
"544 78 CURVE SMOOTH",
"539 41 OFFCURVE",
"535 -2 OFFCURVE",
"562 -2 CURVE SMOOTH",
"606 -2 OFFCURVE",
"686 73 OFFCURVE",
"696 189 CURVE SMOOTH",
"709 340 OFFCURVE",
"725 543 OFFCURVE",
"731 588 CURVE SMOOTH"
);
}
);
width = 751;
},
{
background = {
paths = (
{
closed = 1;
nodes = (
"592 561 LINE",
"569 315 OFFCURVE",
"552 137 OFFCURVE",
"545 83 CURVE SMOOTH",
"540 47 OFFCURVE",
"528 -1 OFFCURVE",
"564 -1 CURVE SMOOTH",
"627 -1 OFFCURVE",
"691 114 OFFCURVE",
"696 194 CURVE SMOOTH",
"708 381 OFFCURVE",
"729 558 OFFCURVE",
"729 558 CURVE"
);
},
{
closed = 1;
nodes = (
"411 519 OFFCURVE",
"426 491 OFFCURVE",
"426 466 CURVE SMOOTH",
"426 380 OFFCURVE",
"50 330 OFFCURVE",
"50 166 CURVE SMOOTH",
"50 79 OFFCURVE",
"125 10 OFFCURVE",
"261 10 CURVE SMOOTH",
"411 10 OFFCURVE",
"531 96 OFFCURVE",
"564 126 CURVE",
"575 284 LINE",
"520 216 OFFCURVE",
"369 114 OFFCURVE",
"258 114 CURVE SMOOTH",
"212 114 OFFCURVE",
"173 138 OFFCURVE",
"173 171 CURVE SMOOTH",
"173 266 OFFCURVE",
"530 288 OFFCURVE",
"530 478 CURVE SMOOTH",
"530 570 OFFCURVE",
"462 613 OFFCURVE",
"403 613 CURVE SMOOTH",
"365 613 OFFCURVE",
"329 594 OFFCURVE",
"307 565 CURVE",
"287 592 OFFCURVE",
"257 613 OFFCURVE",
"207 613 CURVE SMOOTH",
"139 613 OFFCURVE",
"68 554 OFFCURVE",
"68 475 CURVE SMOOTH",
"68 405 OFFCURVE",
"127 343 OFFCURVE",
"165 343 CURVE SMOOTH",
"203 343 OFFCURVE",
"249 396 OFFCURVE",
"249 435 CURVE SMOOTH",
"249 441 OFFCURVE",
"247 443 OFFCURVE",
"244 443 CURVE SMOOTH",
"237 443 OFFCURVE",
"226 428 OFFCURVE",
"216 428 CURVE SMOOTH",
"200 428 OFFCURVE",
"163 453 OFFCURVE",
"163 478 CURVE SMOOTH",
"163 508 OFFCURVE",
"191 524 OFFCURVE",
"215 524 CURVE SMOOTH",
"248 524 OFFCURVE",
"264 506 OFFCURVE",
"264 477 CURVE SMOOTH",
"264 463 OFFCURVE",
"267 458 OFFCURVE",
"276 458 CURVE SMOOTH",
"290 458 OFFCURVE",
"317 458 OFFCURVE",
"327 458 CURVE SMOOTH",
"336 458 OFFCURVE",
"341 461 OFFCURVE",
"341 476 CURVE SMOOTH",
"341 506 OFFCURVE",
"352 519 OFFCURVE",
"380 519 CURVE SMOOTH"
);
},
{
closed = 1;
nodes = (
"704 596 OFFCURVE",
"704 607 OFFCURVE",
"691 607 CURVE SMOOTH",
"677 607 OFFCURVE",
"662 607 OFFCURVE",
"613 607 CURVE SMOOTH",
"600 607 OFFCURVE",
"596 601 OFFCURVE",
"595 590 CURVE SMOOTH",
"578 403 OFFCURVE",
"556 172 OFFCURVE",
"543 78 CURVE SMOOTH",
"538 41 OFFCURVE",
"530 -2 OFFCURVE",
"557 -2 CURVE SMOOTH",
"601 -2 OFFCURVE",
"660 110 OFFCURVE",
"668 189 CURVE SMOOTH",
"683 340 OFFCURVE",
"697 543 OFFCURVE",
"703 588 CURVE SMOOTH"
);
}
);
};
layerId = "9F2BC935-6AE7-4E60-84C9-D3B586669EA4";
paths = (
{
closed = 1;
nodes = (
"411 519 OFFCURVE",
"426 491 OFFCURVE",
"426 466 CURVE SMOOTH",
"426 380 OFFCURVE",
"50 330 OFFCURVE",
"50 166 CURVE SMOOTH",
"50 79 OFFCURVE",
"125 10 OFFCURVE",
"261 10 CURVE SMOOTH",
"411 10 OFFCURVE",
"531 96 OFFCURVE",
"564 126 CURVE",
"575 284 LINE",
"520 216 OFFCURVE",
"369 114 OFFCURVE",
"258 114 CURVE SMOOTH",
"212 114 OFFCURVE",
"173 138 OFFCURVE",
"173 171 CURVE SMOOTH",
"173 266 OFFCURVE",
"530 288 OFFCURVE",
"530 478 CURVE SMOOTH",
"530 570 OFFCURVE",
"462 613 OFFCURVE",
"403 613 CURVE SMOOTH",
"365 613 OFFCURVE",
"329 594 OFFCURVE",
"307 565 CURVE",
"287 592 OFFCURVE",
"257 613 OFFCURVE",
"207 613 CURVE SMOOTH",
"139 613 OFFCURVE",
"68 554 OFFCURVE",
"68 475 CURVE SMOOTH",
"68 405 OFFCURVE",
"127 343 OFFCURVE",
"165 343 CURVE SMOOTH",
"203 343 OFFCURVE",
"249 396 OFFCURVE",
"249 435 CURVE SMOOTH",
"249 441 OFFCURVE",
"247 443 OFFCURVE",
"244 443 CURVE SMOOTH",
"237 443 OFFCURVE",
"226 428 OFFCURVE",
"216 428 CURVE SMOOTH",
"200 428 OFFCURVE",
"163 453 OFFCURVE",
"163 478 CURVE SMOOTH",
"163 508 OFFCURVE",
"191 524 OFFCURVE",
"215 524 CURVE SMOOTH",
"248 524 OFFCURVE",
"264 506 OFFCURVE",
"264 477 CURVE SMOOTH",
"264 463 OFFCURVE",
"267 458 OFFCURVE",
"276 458 CURVE SMOOTH",
"290 458 OFFCURVE",
"317 458 OFFCURVE",
"327 458 CURVE SMOOTH",
"336 458 OFFCURVE",
"341 461 OFFCURVE",
"341 476 CURVE SMOOTH",
"341 506 OFFCURVE",
"352 519 OFFCURVE",
"380 519 CURVE SMOOTH"
);
},
{
closed = 1;
nodes = (
"704 596 OFFCURVE",
"704 607 OFFCURVE",
"691 607 CURVE SMOOTH",
"677 607 OFFCURVE",
"662 607 OFFCURVE",
"613 607 CURVE SMOOTH",
"600 607 OFFCURVE",
"596 601 OFFCURVE",
"595 590 CURVE SMOOTH",
"578 403 OFFCURVE",
"556 172 OFFCURVE",
"543 78 CURVE SMOOTH",
"538 41 OFFCURVE",
"530 -2 OFFCURVE",
"557 -2 CURVE SMOOTH",
"601 -2 OFFCURVE",
"660 110 OFFCURVE",
"668 189 CURVE SMOOTH",
"683 340 OFFCURVE",
"697 543 OFFCURVE",
"703 588 CURVE SMOOTH"
);
}
);
width = 743;
}
);
unicode = 0B05;
},
{
glyphname = "aa-oriya";
lastChange = "2021-11-05 16:35:20 +0000";
layers = (
{
background = {
paths = (
{
closed = 1;
nodes = (
"50 51 OFFCURVE",
"50 302 OFFCURVE",
"50 138 CURVE SMOOTH"
);
},
{
closed = 1;
nodes = (
"411 519 OFFCURVE",
"426 491 OFFCURVE",
"426 466 CURVE SMOOTH",
"426 380 OFFCURVE",
"50 330 OFFCURVE",
"50 166 CURVE SMOOTH",
"50 79 OFFCURVE",
"125 10 OFFCURVE",
"261 10 CURVE SMOOTH",
"411 10 OFFCURVE",
"528 96 OFFCURVE",
"561 126 CURVE",
"572 284 LINE",
"517 216 OFFCURVE",
"369 113 OFFCURVE",
"258 113 CURVE SMOOTH",
"212 113 OFFCURVE",
"173 138 OFFCURVE",
"173 171 CURVE SMOOTH",
"173 266 OFFCURVE",
"530 288 OFFCURVE",
"530 478 CURVE SMOOTH",
"530 570 OFFCURVE",
"462 613 OFFCURVE",
"403 613 CURVE SMOOTH",
"365 613 OFFCURVE",
"329 594 OFFCURVE",
"307 565 CURVE",
"287 592 OFFCURVE",
"257 613 OFFCURVE",
"207 613 CURVE SMOOTH",
"139 613 OFFCURVE",
"68 554 OFFCURVE",
"68 475 CURVE SMOOTH",
"68 405 OFFCURVE",
"127 343 OFFCURVE",
"165 343 CURVE SMOOTH",
"203 343 OFFCURVE",
"249 396 OFFCURVE",
"249 435 CURVE SMOOTH",
"249 441 OFFCURVE",
"247 443 OFFCURVE",
"244 443 CURVE SMOOTH",
"237 443 OFFCURVE",
"226 428 OFFCURVE",
"216 428 CURVE SMOOTH",
"200 428 OFFCURVE",
"163 453 OFFCURVE",
"163 478 CURVE SMOOTH",
"163 508 OFFCURVE",
"191 524 OFFCURVE",
"215 524 CURVE SMOOTH",
"248 524 OFFCURVE",
"264 506 OFFCURVE",
"264 477 CURVE SMOOTH",
"264 463 OFFCURVE",
"267 458 OFFCURVE",
"276 458 CURVE SMOOTH",
"290 458 OFFCURVE",
"317 458 OFFCURVE",
"327 458 CURVE SMOOTH",
"336 458 OFFCURVE",
"341 461 OFFCURVE",
"341 476 CURVE SMOOTH",
"341 506 OFFCURVE",
"352 519 OFFCURVE",
"380 519 CURVE SMOOTH"
);
},
{
closed = 1;
nodes = (
"704 595 OFFCURVE",
"704 606 OFFCURVE",
"691 606 CURVE SMOOTH",
"677 606 OFFCURVE",
"662 606 OFFCURVE",
"613 606 CURVE SMOOTH",
"600 606 OFFCURVE",
"596 600 OFFCURVE",
"595 589 CURVE SMOOTH",
"578 402 OFFCURVE",
"553 171 OFFCURVE",
"540 77 CURVE SMOOTH",
"535 40 OFFCURVE",
"527 -3 OFFCURVE",
"554 -3 CURVE SMOOTH",
"598 -3 OFFCURVE",
"657 109 OFFCURVE",
"665 188 CURVE SMOOTH",
"680 339 OFFCURVE",
"697 542 OFFCURVE",
"703 587 CURVE SMOOTH"
);
},
{
closed = 1;
nodes = (
"919 595 OFFCURVE",
"919 606 OFFCURVE",
"906 606 CURVE SMOOTH",
"892 606 OFFCURVE",
"877 606 OFFCURVE",
"828 606 CURVE SMOOTH",
"815 606 OFFCURVE",
"811 600 OFFCURVE",
"810 589 CURVE SMOOTH",
"793 402 OFFCURVE",
"768 171 OFFCURVE",
"755 77 CURVE SMOOTH",
"750 40 OFFCURVE",
"742 -3 OFFCURVE",
"769 -3 CURVE SMOOTH",
"813 -3 OFFCURVE",
"872 109 OFFCURVE",
"880 188 CURVE SMOOTH",
"895 339 OFFCURVE",
"912 542 OFFCURVE",
"918 587 CURVE SMOOTH"
);
}
);
};
layerId = "555B79C6-6D98-46E7-9307-77C37975E414";
paths = (
{
closed = 1;
nodes = (
"400 506 OFFCURVE",
"415 490 OFFCURVE",
"415 468 CURVE SMOOTH",
"415 383 OFFCURVE",
"40 319 OFFCURVE",
"40 155 CURVE SMOOTH",
"40 64 OFFCURVE",
"127 0 OFFCURVE",
"259 0 CURVE SMOOTH",
"409 0 OFFCURVE",
"532 87 OFFCURVE",
"565 117 CURVE",
"576 304 LINE",
"521 236 OFFCURVE",
"370 132 OFFCURVE",
"259 132 CURVE SMOOTH",
"215 132 OFFCURVE",
"196 151 OFFCURVE",
"196 170 CURVE SMOOTH",
"196 240 OFFCURVE",
"551 292 OFFCURVE",
"551 473 CURVE SMOOTH",
"551 577 OFFCURVE",
"476 613 OFFCURVE",
"415 613 CURVE SMOOTH",
"370 613 OFFCURVE",
"330 594 OFFCURVE",
"308 565 CURVE",
"288 592 OFFCURVE",
"258 613 OFFCURVE",
"208 613 CURVE SMOOTH",
"140 613 OFFCURVE",
"59 554 OFFCURVE",
"59 475 CURVE SMOOTH",
"59 392 OFFCURVE",
"125 336 OFFCURVE",
"163 336 CURVE SMOOTH",
"211 336 OFFCURVE",
"255 396 OFFCURVE",
"255 435 CURVE SMOOTH",
"255 441 OFFCURVE",
"253 447 OFFCURVE",
"247 447 CURVE SMOOTH",
"240 447 OFFCURVE",
"231 435 OFFCURVE",
"223 435 CURVE SMOOTH",
"207 435 OFFCURVE",
"177 455 OFFCURVE",
"177 478 CURVE SMOOTH",
"177 497 OFFCURVE",
"195 509 OFFCURVE",
"216 509 CURVE SMOOTH",
"249 509 OFFCURVE",
"255 490 OFFCURVE",
"255 477 CURVE SMOOTH",
"255 463 OFFCURVE",
"258 458 OFFCURVE",
"267 458 CURVE SMOOTH",
"281 458 OFFCURVE",
"328 458 OFFCURVE",
"338 458 CURVE SMOOTH",
"347 458 OFFCURVE",
"352 461 OFFCURVE",
"352 476 CURVE SMOOTH",
"352 501 OFFCURVE",
"365 506 OFFCURVE",
"380 506 CURVE SMOOTH"
);
},
{
closed = 1;
nodes = (
"732 596 OFFCURVE",
"732 607 OFFCURVE",
"719 607 CURVE SMOOTH",
"705 607 OFFCURVE",
"690 607 OFFCURVE",
"614 607 CURVE SMOOTH",
"601 607 OFFCURVE",
"597 601 OFFCURVE",
"596 590 CURVE SMOOTH",
"579 403 OFFCURVE",
"557 172 OFFCURVE",
"544 78 CURVE SMOOTH",
"539 41 OFFCURVE",
"535 -2 OFFCURVE",
"562 -2 CURVE SMOOTH",
"606 -2 OFFCURVE",
"686 73 OFFCURVE",
"696 189 CURVE SMOOTH",
"709 340 OFFCURVE",
"725 543 OFFCURVE",
"731 588 CURVE SMOOTH"
);
},
{
closed = 1;
nodes = (
"947 596 OFFCURVE",
"947 607 OFFCURVE",
"934 607 CURVE SMOOTH",
"920 607 OFFCURVE",
"905 607 OFFCURVE",
"829 607 CURVE SMOOTH",
"816 607 OFFCURVE",
"812 601 OFFCURVE",
"811 590 CURVE SMOOTH",
"794 403 OFFCURVE",
"772 172 OFFCURVE",
"759 78 CURVE SMOOTH",
"754 41 OFFCURVE",
"750 -2 OFFCURVE",
"777 -2 CURVE SMOOTH",
"821 -2 OFFCURVE",
"901 73 OFFCURVE",
"911 189 CURVE SMOOTH",
"924 340 OFFCURVE",
"940 543 OFFCURVE",
"946 588 CURVE SMOOTH"
);
}
);
width = 966;
},
{
background = {
paths = (
{
closed = 1;
nodes = (
"412 519 OFFCURVE",
"427 491 OFFCURVE",
"427 466 CURVE SMOOTH",
"427 380 OFFCURVE",
"51 330 OFFCURVE",
"51 166 CURVE SMOOTH",
"51 79 OFFCURVE",
"126 10 OFFCURVE",
"262 10 CURVE SMOOTH",
"412 10 OFFCURVE",
"529 96 OFFCURVE",
"562 126 CURVE",
"573 284 LINE",
"518 216 OFFCURVE",
"370 113 OFFCURVE",
"259 113 CURVE SMOOTH",
"213 113 OFFCURVE",
"174 138 OFFCURVE",
"174 171 CURVE SMOOTH",
"174 266 OFFCURVE",
"531 288 OFFCURVE",
"531 478 CURVE SMOOTH",
"531 570 OFFCURVE",
"463 613 OFFCURVE",
"404 613 CURVE SMOOTH",
"366 613 OFFCURVE",
"330 594 OFFCURVE",
"308 565 CURVE",
"288 592 OFFCURVE",
"258 613 OFFCURVE",
"208 613 CURVE SMOOTH",
"140 613 OFFCURVE",
"69 554 OFFCURVE",
"69 475 CURVE SMOOTH",
"69 405 OFFCURVE",
"128 343 OFFCURVE",
"166 343 CURVE SMOOTH",
"204 343 OFFCURVE",
"250 396 OFFCURVE",
"250 435 CURVE SMOOTH",
"250 441 OFFCURVE",
"248 443 OFFCURVE",
"245 443 CURVE SMOOTH",
"238 443 OFFCURVE",
"227 428 OFFCURVE",
"217 428 CURVE SMOOTH",
"201 428 OFFCURVE",
"164 453 OFFCURVE",
"164 478 CURVE SMOOTH",
"164 508 OFFCURVE",
"192 524 OFFCURVE",
"216 524 CURVE SMOOTH",
"249 524 OFFCURVE",
"265 506 OFFCURVE",
"265 477 CURVE SMOOTH",
"265 463 OFFCURVE",
"268 458 OFFCURVE",
"277 458 CURVE SMOOTH",
"291 458 OFFCURVE",
"318 458 OFFCURVE",
"328 458 CURVE SMOOTH",
"337 458 OFFCURVE",
"342 461 OFFCURVE",
"342 476 CURVE SMOOTH",
"342 506 OFFCURVE",
"353 519 OFFCURVE",
"381 519 CURVE SMOOTH"
);
},
{
closed = 1;
nodes = (
"705 596 OFFCURVE",
"705 607 OFFCURVE",
"692 607 CURVE SMOOTH",
"678 607 OFFCURVE",
"663 607 OFFCURVE",
"614 607 CURVE SMOOTH",
"601 607 OFFCURVE",
"597 601 OFFCURVE",
"596 590 CURVE SMOOTH",
"579 403 OFFCURVE",
"557 172 OFFCURVE",
"544 78 CURVE SMOOTH",
"539 41 OFFCURVE",
"531 -2 OFFCURVE",
"558 -2 CURVE SMOOTH",
"602 -2 OFFCURVE",
"661 110 OFFCURVE",
"669 189 CURVE SMOOTH",
"684 340 OFFCURVE",
"698 543 OFFCURVE",
"704 588 CURVE SMOOTH"
);
},
{
closed = 1;
nodes = (
"920 596 OFFCURVE",
"920 607 OFFCURVE",
"907 607 CURVE SMOOTH",
"893 607 OFFCURVE",
"878 607 OFFCURVE",
"829 607 CURVE SMOOTH",
"816 607 OFFCURVE",
"812 601 OFFCURVE",
"811 590 CURVE SMOOTH",
"794 403 OFFCURVE",
"772 172 OFFCURVE",
"759 78 CURVE SMOOTH",
"754 41 OFFCURVE",
"746 -2 OFFCURVE",
"773 -2 CURVE SMOOTH",
"817 -2 OFFCURVE",
"876 110 OFFCURVE",
"884 189 CURVE SMOOTH",
"899 340 OFFCURVE",
"913 543 OFFCURVE",
"919 588 CURVE SMOOTH"
);
}
);
};
layerId = "9F2BC935-6AE7-4E60-84C9-D3B586669EA4";
paths = (
{
closed = 1;
nodes = (
"412 519 OFFCURVE",
"427 491 OFFCURVE",
"427 466 CURVE SMOOTH",
"427 380 OFFCURVE",
"51 330 OFFCURVE",
"51 166 CURVE SMOOTH",
"51 79 OFFCURVE",
"126 10 OFFCURVE",
"262 10 CURVE SMOOTH",
"412 10 OFFCURVE",
"529 96 OFFCURVE",
"562 126 CURVE",
"573 284 LINE",
"518 216 OFFCURVE",
"370 113 OFFCURVE",
"259 113 CURVE SMOOTH",
"213 113 OFFCURVE",
"174 138 OFFCURVE",
"174 171 CURVE SMOOTH",
"174 266 OFFCURVE",
"531 288 OFFCURVE",
"531 478 CURVE SMOOTH",
"531 570 OFFCURVE",
"463 613 OFFCURVE",
"404 613 CURVE SMOOTH",
"366 613 OFFCURVE",
"330 594 OFFCURVE",
"308 565 CURVE",
"288 592 OFFCURVE",
"258 613 OFFCURVE",
"208 613 CURVE SMOOTH",
"140 613 OFFCURVE",
"69 554 OFFCURVE",
"69 475 CURVE SMOOTH",
"69 405 OFFCURVE",
"128 343 OFFCURVE",
"166 343 CURVE SMOOTH",
"204 343 OFFCURVE",
"250 396 OFFCURVE",
"250 435 CURVE SMOOTH",
"250 441 OFFCURVE",
"248 443 OFFCURVE",
"245 443 CURVE SMOOTH",
"238 443 OFFCURVE",
"227 428 OFFCURVE",
"217 428 CURVE SMOOTH",
"201 428 OFFCURVE",
"164 453 OFFCURVE",
"164 478 CURVE SMOOTH",
"164 508 OFFCURVE",
"192 524 OFFCURVE",
"216 524 CURVE SMOOTH",
"249 524 OFFCURVE",
"265 506 OFFCURVE",
"265 477 CURVE SMOOTH",
"265 463 OFFCURVE",
"268 458 OFFCURVE",
"277 458 CURVE SMOOTH",
"291 458 OFFCURVE",
"318 458 OFFCURVE",
"328 458 CURVE SMOOTH",
"337 458 OFFCURVE",
"342 461 OFFCURVE",
"342 476 CURVE SMOOTH",
"342 506 OFFCURVE",
"353 519 OFFCURVE",
"381 519 CURVE SMOOTH"
);
},
{
closed = 1;
nodes = (
"705 596 OFFCURVE",
"705 607 OFFCURVE",
"692 607 CURVE SMOOTH",
"678 607 OFFCURVE",
"663 607 OFFCURVE",
"614 607 CURVE SMOOTH",
"601 607 OFFCURVE",
"597 601 OFFCURVE",
"596 590 CURVE SMOOTH",
"579 403 OFFCURVE",
"557 172 OFFCURVE",
"544 78 CURVE SMOOTH",
"539 41 OFFCURVE",
"531 -2 OFFCURVE",
"558 -2 CURVE SMOOTH",
"602 -2 OFFCURVE",
"661 110 OFFCURVE",
"669 189 CURVE SMOOTH",
"684 340 OFFCURVE",
"698 543 OFFCURVE",
"704 588 CURVE SMOOTH"
);
},
{
closed = 1;
nodes = (
"920 596 OFFCURVE",
"920 607 OFFCURVE",
"907 607 CURVE SMOOTH",
"893 607 OFFCURVE",
"878 607 OFFCURVE",
"829 607 CURVE SMOOTH",
"816 607 OFFCURVE",
"812 601 OFFCURVE",
"811 590 CURVE SMOOTH",
"794 403 OFFCURVE",
"772 172 OFFCURVE",
"759 78 CURVE SMOOTH",
"754 41 OFFCURVE",
"746 -2 OFFCURVE",
"773 -2 CURVE SMOOTH",
"817 -2 OFFCURVE",
"876 110 OFFCURVE",
"884 189 CURVE SMOOTH",
"899 340 OFFCURVE",
"913 543 OFFCURVE",
"919 588 CURVE SMOOTH"
);
}
);
width = 976;
}
);
unicode = 0B06;
},
{
glyphname = "i-oriya";
lastChange = "2021-11-01 06:24:55 +0000";
layers = (
{
background = {
paths = (
{
closed = 1;
nodes = (
"180 316 OFFCURVE",
"122 205 OFFCURVE",
"122 125 CURVE SMOOTH",
"122 45 OFFCURVE",
"168 -4 OFFCURVE",
"248 -4 CURVE SMOOTH",
"342 -4 OFFCURVE",
"434 76 OFFCURVE",
"434 176 CURVE SMOOTH",
"434 265 OFFCURVE",
"374 316 OFFCURVE",
"295 316 CURVE SMOOTH"
);
},
{
closed = 1;
nodes = (
"324 235 OFFCURVE",
"340 180 OFFCURVE",
"340 143 CURVE SMOOTH",
"340 97 OFFCURVE",
"298 72 OFFCURVE",
"263 72 CURVE SMOOTH",
"221 72 OFFCURVE",
"206 128 OFFCURVE",
"206 165 CURVE SMOOTH",
"206 210 OFFCURVE",
"246 235 OFFCURVE",
"282 235 CURVE SMOOTH"
);
},
{
closed = 1;
nodes = (
"429 316 OFFCURVE",
"371 205 OFFCURVE",
"371 125 CURVE SMOOTH",
"371 45 OFFCURVE",
"417 -4 OFFCURVE",
"497 -4 CURVE SMOOTH",
"591 -4 OFFCURVE",
"683 76 OFFCURVE",
"683 176 CURVE SMOOTH",
"683 265 OFFCURVE",
"622 316 OFFCURVE",
"544 316 CURVE SMOOTH"
);
},
{
closed = 1;
nodes = (
"572 235 OFFCURVE",
"588 180 OFFCURVE",
"588 143 CURVE SMOOTH",
"588 97 OFFCURVE",
"547 72 OFFCURVE",
"511 72 CURVE SMOOTH",
"470 72 OFFCURVE",
"455 128 OFFCURVE",
"455 165 CURVE SMOOTH",
"455 210 OFFCURVE",
"495 235 OFFCURVE",
"531 235 CURVE SMOOTH"
);
},
{
closed = 1;
nodes = (
"824 85 OFFCURVE",
"921 180 OFFCURVE",
"921 283 CURVE SMOOTH",
"921 485 OFFCURVE",
"725 617 OFFCURVE",
"508 617 CURVE SMOOTH",
"239 617 OFFCURVE",
"50 465 OFFCURVE",
"50 328 CURVE SMOOTH",
"50 246 OFFCURVE",
"129 192 OFFCURVE",
"182 192 CURVE",
"237 289 LINE",
"202 284 OFFCURVE",
"169 302 OFFCURVE",
"169 339 CURVE SMOOTH",
"169 409 OFFCURVE",
"285 522 OFFCURVE",
"487 522 CURVE SMOOTH",
"668 522 OFFCURVE",
"801 391 OFFCURVE",
"802 276 CURVE SMOOTH",
"803 164 OFFCURVE",
"715 113 OFFCURVE",
"715 88 CURVE SMOOTH",
"715 66 OFFCURVE",
"778 -39 OFFCURVE",
"817 -39 CURVE SMOOTH",
"839 -39 OFFCURVE",
"894 7 OFFCURVE",
"894 37 CURVE SMOOTH",
"894 42 OFFCURVE",
"893 45 OFFCURVE",
"890 45 CURVE SMOOTH",
"886 45 OFFCURVE",
"876 35 OFFCURVE",
"871 35 CURVE SMOOTH",
"862 35 OFFCURVE",
"824 62 OFFCURVE",
"817 73 CURVE"
);
}
);
};
layerId = "555B79C6-6D98-46E7-9307-77C37975E414";
paths = (
{
closed = 1;
nodes = (
"180 323 OFFCURVE",
"120 207 OFFCURVE",
"120 124 CURVE SMOOTH",
"120 40 OFFCURVE",
"168 -11 OFFCURVE",
"252 -11 CURVE SMOOTH",
"350 -11 OFFCURVE",
"446 72 OFFCURVE",
"446 177 CURVE SMOOTH",
"446 270 OFFCURVE",
"383 323 OFFCURVE",
"301 323 CURVE SMOOTH"
);
},
{
closed = 1;
nodes = (
"316 215 OFFCURVE",
"328 173 OFFCURVE",
"328 146 CURVE SMOOTH",
"328 111 OFFCURVE",
"297 92 OFFCURVE",
"270 92 CURVE SMOOTH",
"239 92 OFFCURVE",
"228 134 OFFCURVE",
"228 162 CURVE SMOOTH",
"228 196 OFFCURVE",
"258 215 OFFCURVE",
"285 215 CURVE SMOOTH"
);
},
{
closed = 1;
nodes = (
"844 87 OFFCURVE",
"941 177 OFFCURVE",
"941 293 CURVE SMOOTH",
"941 485 OFFCURVE",
"753 622 OFFCURVE",
"513 622 CURVE SMOOTH",
"228 622 OFFCURVE",
"40 465 OFFCURVE",
"40 328 CURVE SMOOTH",
"40 238 OFFCURVE",
"119 183 OFFCURVE",
"187 183 CURVE",
"231 302 LINE",
"209 300 OFFCURVE",
"191 316 OFFCURVE",
"191 338 CURVE SMOOTH",
"191 393 OFFCURVE",
"304 498 OFFCURVE",
"488 498 CURVE SMOOTH",
"653 498 OFFCURVE",
"786 381 OFFCURVE",
"787 276 CURVE SMOOTH",
"788 168 OFFCURVE",
"704 117 OFFCURVE",
"704 92 CURVE SMOOTH",
"704 56 OFFCURVE",
"779 -52 OFFCURVE",
"818 -52 CURVE SMOOTH",
"856 -52 OFFCURVE",
"910 11 OFFCURVE",
"910 39 CURVE SMOOTH",
"910 47 OFFCURVE",
"908 55 OFFCURVE",
"903 55 CURVE SMOOTH",
"899 55 OFFCURVE",
"887 43 OFFCURVE",
"882 43 CURVE SMOOTH",
"873 43 OFFCURVE",
"839 62 OFFCURVE",
"832 73 CURVE"
);
},
{
closed = 1;
nodes = (
"429 323 OFFCURVE",
"369 207 OFFCURVE",
"369 124 CURVE SMOOTH",
"369 40 OFFCURVE",
"417 -11 OFFCURVE",
"501 -11 CURVE SMOOTH",
"599 -11 OFFCURVE",
"695 72 OFFCURVE",
"695 177 CURVE SMOOTH",
"695 270 OFFCURVE",
"632 323 OFFCURVE",
"550 323 CURVE SMOOTH"
);
},
{
closed = 1;
nodes = (
"565 215 OFFCURVE",
"577 173 OFFCURVE",
"577 146 CURVE SMOOTH",
"577 111 OFFCURVE",
"546 92 OFFCURVE",
"519 92 CURVE SMOOTH",
"488 92 OFFCURVE",
"477 134 OFFCURVE",
"477 162 CURVE SMOOTH",
"477 196 OFFCURVE",
"507 215 OFFCURVE",
"534 215 CURVE SMOOTH"
);
}
);
width = 961;
},
{
background = {
paths = (
{
closed = 1;
nodes = (
"185 316 OFFCURVE",
"127 205 OFFCURVE",
"127 125 CURVE SMOOTH",
"127 45 OFFCURVE",
"173 -4 OFFCURVE",
"253 -4 CURVE SMOOTH",
"347 -4 OFFCURVE",
"439 76 OFFCURVE",
"439 176 CURVE SMOOTH",
"439 265 OFFCURVE",
"379 316 OFFCURVE",
"300 316 CURVE SMOOTH"
);
},
{
closed = 1;
nodes = (
"329 235 OFFCURVE",
"345 180 OFFCURVE",
"345 143 CURVE SMOOTH",
"345 97 OFFCURVE",
"303 72 OFFCURVE",
"268 72 CURVE SMOOTH",
"226 72 OFFCURVE",
"211 128 OFFCURVE",
"211 165 CURVE SMOOTH",
"211 210 OFFCURVE",
"251 235 OFFCURVE",
"287 235 CURVE SMOOTH"
);
},
{
closed = 1;
nodes = (
"434 316 OFFCURVE",
"376 205 OFFCURVE",
"376 125 CURVE SMOOTH",
"376 45 OFFCURVE",
"422 -4 OFFCURVE",
"502 -4 CURVE SMOOTH",
"596 -4 OFFCURVE",
"688 76 OFFCURVE",
"688 176 CURVE SMOOTH",
"688 265 OFFCURVE",
"627 316 OFFCURVE",
"549 316 CURVE SMOOTH"
);
},
{
closed = 1;
nodes = (
"577 235 OFFCURVE",
"593 180 OFFCURVE",
"593 143 CURVE SMOOTH",
"593 97 OFFCURVE",
"552 72 OFFCURVE",
"516 72 CURVE SMOOTH",
"475 72 OFFCURVE",
"460 128 OFFCURVE",
"460 165 CURVE SMOOTH",
"460 210 OFFCURVE",
"500 235 OFFCURVE",
"536 235 CURVE SMOOTH"
);
},
{
closed = 1;
nodes = (
"829 85 OFFCURVE",
"926 180 OFFCURVE",
"926 283 CURVE SMOOTH",
"926 485 OFFCURVE",
"730 617 OFFCURVE",
"513 617 CURVE SMOOTH",
"244 617 OFFCURVE",
"55 465 OFFCURVE",
"55 328 CURVE SMOOTH",
"55 246 OFFCURVE",
"134 192 OFFCURVE",
"187 192 CURVE",
"242 289 LINE",
"207 284 OFFCURVE",
"174 302 OFFCURVE",
"174 339 CURVE SMOOTH",
"174 409 OFFCURVE",
"290 522 OFFCURVE",
"492 522 CURVE SMOOTH",
"673 522 OFFCURVE",
"806 391 OFFCURVE",
"807 276 CURVE SMOOTH",
"808 164 OFFCURVE",
"720 113 OFFCURVE",
"720 88 CURVE SMOOTH",
"720 66 OFFCURVE",
"783 -39 OFFCURVE",
"822 -39 CURVE SMOOTH",
"844 -39 OFFCURVE",
"899 7 OFFCURVE",
"899 37 CURVE SMOOTH",
"899 42 OFFCURVE",
"898 45 OFFCURVE",
"895 45 CURVE SMOOTH",
"891 45 OFFCURVE",
"881 35 OFFCURVE",
"876 35 CURVE SMOOTH",
"867 35 OFFCURVE",
"829 62 OFFCURVE",
"822 73 CURVE"
);
}
);
};
layerId = "9F2BC935-6AE7-4E60-84C9-D3B586669EA4";
paths = (
{
closed = 1;
nodes = (
"185 316 OFFCURVE",
"127 205 OFFCURVE",
"127 125 CURVE SMOOTH",
"127 45 OFFCURVE",
"173 -4 OFFCURVE",
"253 -4 CURVE SMOOTH",
"347 -4 OFFCURVE",
"439 76 OFFCURVE",
"439 176 CURVE SMOOTH",
"439 265 OFFCURVE",
"379 316 OFFCURVE",
"300 316 CURVE SMOOTH"
);
},
{
closed = 1;
nodes = (
"329 235 OFFCURVE",
"345 180 OFFCURVE",
"345 143 CURVE SMOOTH",
"345 97 OFFCURVE",
"303 72 OFFCURVE",
"268 72 CURVE SMOOTH",
"226 72 OFFCURVE",
"211 128 OFFCURVE",
"211 165 CURVE SMOOTH",
"211 210 OFFCURVE",
"251 235 OFFCURVE",
"287 235 CURVE SMOOTH"
);
},
{
closed = 1;
nodes = (
"434 316 OFFCURVE",
"376 205 OFFCURVE",
"376 125 CURVE SMOOTH",
"376 45 OFFCURVE",
"422 -4 OFFCURVE",
"502 -4 CURVE SMOOTH",
"596 -4 OFFCURVE",
"688 76 OFFCURVE",
"688 176 CURVE SMOOTH",
"688 265 OFFCURVE",
"627 316 OFFCURVE",
"549 316 CURVE SMOOTH"
);
},
{
closed = 1;
nodes = (
"577 235 OFFCURVE",
"593 180 OFFCURVE",
"593 143 CURVE SMOOTH",
"593 97 OFFCURVE",
"552 72 OFFCURVE",
"516 72 CURVE SMOOTH",
"475 72 OFFCURVE",
"460 128 OFFCURVE",
"460 165 CURVE SMOOTH",
"460 210 OFFCURVE",
"500 235 OFFCURVE",
"536 235 CURVE SMOOTH"
);
},
{
closed = 1;
nodes = (
"829 85 OFFCURVE",
"926 180 OFFCURVE",
"926 283 CURVE SMOOTH",
"926 485 OFFCURVE",
"730 617 OFFCURVE",
"513 617 CURVE SMOOTH",
"244 617 OFFCURVE",
"55 465 OFFCURVE",
"55 328 CURVE SMOOTH",
"55 246 OFFCURVE",
"134 192 OFFCURVE",
"187 192 CURVE",
"242 289 LINE",
"207 284 OFFCURVE",
"174 302 OFFCURVE",
"174 339 CURVE SMOOTH",
"174 409 OFFCURVE",
"290 522 OFFCURVE",
"492 522 CURVE SMOOTH",
"673 522 OFFCURVE",
"806 391 OFFCURVE",
"807 276 CURVE SMOOTH",
"808 164 OFFCURVE",
"720 113 OFFCURVE",
"720 88 CURVE SMOOTH",
"720 66 OFFCURVE",
"783 -39 OFFCURVE",
"822 -39 CURVE SMOOTH",
"844 -39 OFFCURVE",
"899 7 OFFCURVE",
"899 37 CURVE SMOOTH",
"899 42 OFFCURVE",
"898 45 OFFCURVE",
"895 45 CURVE SMOOTH",
"891 45 OFFCURVE",
"881 35 OFFCURVE",
"876 35 CURVE SMOOTH",
"867 35 OFFCURVE",
"829 62 OFFCURVE",
"822 73 CURVE"
);
}
);
width = 971;
}
);
unicode = 0B07;
},
{
glyphname = "ii-oriya";
lastChange = "2021-11-01 06:26:14 +0000";
layers = (
{
background = {
paths = (
{
closed = 1;
nodes = (
"178 316 OFFCURVE",
"120 205 OFFCURVE",
"120 125 CURVE SMOOTH",
"120 45 OFFCURVE",
"166 -4 OFFCURVE",
"246 -4 CURVE SMOOTH",
"340 -4 OFFCURVE",
"432 76 OFFCURVE",
"432 176 CURVE SMOOTH",
"432 265 OFFCURVE",
"372 316 OFFCURVE",
"293 316 CURVE SMOOTH"
);
},
{
closed = 1;
nodes = (
"322 235 OFFCURVE",
"338 180 OFFCURVE",
"338 143 CURVE SMOOTH",
"338 97 OFFCURVE",
"296 72 OFFCURVE",
"261 72 CURVE SMOOTH",
"219 72 OFFCURVE",
"204 128 OFFCURVE",
"204 165 CURVE SMOOTH",
"204 210 OFFCURVE",
"244 235 OFFCURVE",
"280 235 CURVE SMOOTH"
);
},
{
closed = 0;
nodes = (
"226 321 LINE"
);
},
{
closed = 1;
nodes = (
"669 526 OFFCURVE",
"799 391 OFFCURVE",
"800 276 CURVE SMOOTH",
"801 164 OFFCURVE",
"713 113 OFFCURVE",
"713 88 CURVE SMOOTH",
"713 66 OFFCURVE",
"776 -39 OFFCURVE",
"815 -39 CURVE SMOOTH",
"837 -39 OFFCURVE",
"892 7 OFFCURVE",
"892 37 CURVE SMOOTH",
"892 42 OFFCURVE",
"891 45 OFFCURVE",
"888 45 CURVE SMOOTH",
"884 45 OFFCURVE",
"874 35 OFFCURVE",
"869 35 CURVE SMOOTH",
"860 35 OFFCURVE",
"822 62 OFFCURVE",
"815 73 CURVE",
"822 85 OFFCURVE",
"919 180 OFFCURVE",
"919 283 CURVE SMOOTH",
"919 485 OFFCURVE",
"726 619 OFFCURVE",
"506 619 CURVE SMOOTH",
"391 619 OFFCURVE",
"252 588 OFFCURVE",
"229 485 CURVE",
"120 485 OFFCURVE",
"50 411 OFFCURVE",
"50 337 CURVE SMOOTH",
"50 249 OFFCURVE",
"136 192 OFFCURVE",
"180 192 CURVE",
"235 289 LINE",
"200 284 OFFCURVE",
"167 302 OFFCURVE",
"167 339 CURVE SMOOTH",
"167 381 OFFCURVE",
"208 400 OFFCURVE",
"229 402 CURVE SMOOTH",
"257 405 OFFCURVE",
"258 376 OFFCURVE",
"270 376 CURVE SMOOTH",
"287 376 OFFCURVE",
"340 416 OFFCURVE",
"340 430 CURVE SMOOTH",
"340 439 OFFCURVE",
"321 450 OFFCURVE",
"321 461 CURVE SMOOTH",
"321 494 OFFCURVE",
"397 526 OFFCURVE",
"495 526 CURVE SMOOTH"
);
},
{
closed = 1;
nodes = (
"429 316 OFFCURVE",
"371 205 OFFCURVE",
"371 125 CURVE SMOOTH",
"371 45 OFFCURVE",
"417 -4 OFFCURVE",
"497 -4 CURVE SMOOTH",
"591 -4 OFFCURVE",
"683 76 OFFCURVE",
"683 176 CURVE SMOOTH",
"683 265 OFFCURVE",
"622 316 OFFCURVE",
"544 316 CURVE SMOOTH"
);
},
{
closed = 1;
nodes = (
"572 235 OFFCURVE",
"588 180 OFFCURVE",
"588 143 CURVE SMOOTH",
"588 97 OFFCURVE",
"547 72 OFFCURVE",
"511 72 CURVE SMOOTH",
"470 72 OFFCURVE",
"455 128 OFFCURVE",
"455 165 CURVE SMOOTH",
"455 210 OFFCURVE",
"495 235 OFFCURVE",
"531 235 CURVE SMOOTH"
);
}
);
};
layerId = "555B79C6-6D98-46E7-9307-77C37975E414";
paths = (
{
closed = 0;
nodes = (
"231 321 LINE"
);
},
{
closed = 1;
nodes = (
"653 498 OFFCURVE",
"786 381 OFFCURVE",
"787 276 CURVE SMOOTH",
"788 168 OFFCURVE",
"704 117 OFFCURVE",
"704 92 CURVE SMOOTH",
"704 56 OFFCURVE",
"779 -52 OFFCURVE",
"818 -52 CURVE SMOOTH",
"856 -52 OFFCURVE",
"910 11 OFFCURVE",
"910 39 CURVE SMOOTH",
"910 47 OFFCURVE",
"908 55 OFFCURVE",
"903 55 CURVE SMOOTH",
"899 55 OFFCURVE",
"887 43 OFFCURVE",
"882 43 CURVE SMOOTH",
"873 43 OFFCURVE",
"839 62 OFFCURVE",
"832 73 CURVE",
"844 87 OFFCURVE",
"941 177 OFFCURVE",
"941 293 CURVE SMOOTH",
"941 485 OFFCURVE",
"755 622 OFFCURVE",
"502 622 CURVE SMOOTH",
"387 622 OFFCURVE",
"265 596 OFFCURVE",
"227 494 CURVE",
"124 494 OFFCURVE",
"40 420 OFFCURVE",
"40 328 CURVE SMOOTH",
"40 238 OFFCURVE",
"119 183 OFFCURVE",
"187 183 CURVE",
"231 302 LINE",
"209 300 OFFCURVE",
"191 316 OFFCURVE",
"191 339 CURVE SMOOTH",
"191 369 OFFCURVE",
"223 389 OFFCURVE",
"243 389 CURVE SMOOTH",
"260 389 OFFCURVE",
"264 362 OFFCURVE",
"276 362 CURVE SMOOTH",
"295 362 OFFCURVE",
"360 410 OFFCURVE",
"360 428 CURVE SMOOTH",
"360 437 OFFCURVE",
"343 444 OFFCURVE",
"343 455 CURVE SMOOTH",
"343 475 OFFCURVE",
"390 498 OFFCURVE",
"488 498 CURVE SMOOTH"
);
},
{
closed = 1;
nodes = (
"180 323 OFFCURVE",
"120 207 OFFCURVE",
"120 124 CURVE SMOOTH",
"120 40 OFFCURVE",
"168 -11 OFFCURVE",
"252 -11 CURVE SMOOTH",
"350 -11 OFFCURVE",
"446 72 OFFCURVE",
"446 177 CURVE SMOOTH",
"446 270 OFFCURVE",
"383 323 OFFCURVE",
"301 323 CURVE SMOOTH"
);
},
{
closed = 1;
nodes = (
"316 215 OFFCURVE",
"328 173 OFFCURVE",
"328 146 CURVE SMOOTH",
"328 111 OFFCURVE",
"297 92 OFFCURVE",
"270 92 CURVE SMOOTH",
"239 92 OFFCURVE",
"228 134 OFFCURVE",
"228 162 CURVE SMOOTH",
"228 196 OFFCURVE",
"258 215 OFFCURVE",
"285 215 CURVE SMOOTH"
);
},
{
closed = 1;
nodes = (
"429 323 OFFCURVE",
"369 207 OFFCURVE",
"369 124 CURVE SMOOTH",
"369 40 OFFCURVE",
"417 -11 OFFCURVE",
"501 -11 CURVE SMOOTH",
"599 -11 OFFCURVE",
"695 72 OFFCURVE",
"695 177 CURVE SMOOTH",
"695 270 OFFCURVE",
"632 323 OFFCURVE",
"550 323 CURVE SMOOTH"
);
},
{
closed = 1;
nodes = (
"565 215 OFFCURVE",
"577 173 OFFCURVE",
"577 146 CURVE SMOOTH",
"577 111 OFFCURVE",
"546 92 OFFCURVE",
"519 92 CURVE SMOOTH",
"488 92 OFFCURVE",
"477 134 OFFCURVE",
"477 162 CURVE SMOOTH",
"477 196 OFFCURVE",
"507 215 OFFCURVE",
"534 215 CURVE SMOOTH"
);
}
);
width = 961;
},
{
background = {
paths = (
{
closed = 1;
nodes = (
"183 316 OFFCURVE",
"125 205 OFFCURVE",
"125 125 CURVE SMOOTH",
"125 45 OFFCURVE",
"171 -4 OFFCURVE",
"251 -4 CURVE SMOOTH",
"345 -4 OFFCURVE",
"437 76 OFFCURVE",
"437 176 CURVE SMOOTH",
"437 265 OFFCURVE",
"377 316 OFFCURVE",
"298 316 CURVE SMOOTH"
);
},
{
closed = 1;
nodes = (
"327 235 OFFCURVE",
"343 180 OFFCURVE",
"343 143 CURVE SMOOTH",
"343 97 OFFCURVE",
"301 72 OFFCURVE",
"266 72 CURVE SMOOTH",
"224 72 OFFCURVE",
"209 128 OFFCURVE",
"209 165 CURVE SMOOTH",
"209 210 OFFCURVE",
"249 235 OFFCURVE",
"285 235 CURVE SMOOTH"
);
},
{
closed = 0;
nodes = (
"231 321 LINE"
);
},
{
closed = 1;
nodes = (
"434 316 OFFCURVE",
"376 205 OFFCURVE",
"376 125 CURVE SMOOTH",
"376 45 OFFCURVE",
"422 -4 OFFCURVE",
"502 -4 CURVE SMOOTH",
"596 -4 OFFCURVE",
"688 76 OFFCURVE",
"688 176 CURVE SMOOTH",
"688 265 OFFCURVE",
"627 316 OFFCURVE",
"549 316 CURVE SMOOTH"
);
},
{
closed = 1;
nodes = (
"577 235 OFFCURVE",
"593 180 OFFCURVE",
"593 143 CURVE SMOOTH",
"593 97 OFFCURVE",
"552 72 OFFCURVE",
"516 72 CURVE SMOOTH",
"475 72 OFFCURVE",
"460 128 OFFCURVE",
"460 165 CURVE SMOOTH",
"460 210 OFFCURVE",
"500 235 OFFCURVE",
"536 235 CURVE SMOOTH"
);
},
{
closed = 1;
nodes = (
"674 526 OFFCURVE",
"804 391 OFFCURVE",
"805 276 CURVE SMOOTH",
"806 164 OFFCURVE",
"718 113 OFFCURVE",
"718 88 CURVE SMOOTH",
"718 66 OFFCURVE",
"781 -39 OFFCURVE",
"820 -39 CURVE SMOOTH",
"842 -39 OFFCURVE",
"897 7 OFFCURVE",
"897 37 CURVE SMOOTH",
"897 42 OFFCURVE",
"896 45 OFFCURVE",
"893 45 CURVE SMOOTH",
"889 45 OFFCURVE",
"879 35 OFFCURVE",
"874 35 CURVE SMOOTH",
"865 35 OFFCURVE",
"827 62 OFFCURVE",
"820 73 CURVE",
"827 85 OFFCURVE",
"924 180 OFFCURVE",
"924 283 CURVE SMOOTH",
"924 485 OFFCURVE",
"731 619 OFFCURVE",
"511 619 CURVE SMOOTH",
"396 619 OFFCURVE",
"257 588 OFFCURVE",
"234 485 CURVE",
"125 485 OFFCURVE",
"55 411 OFFCURVE",
"55 337 CURVE SMOOTH",
"55 249 OFFCURVE",
"141 192 OFFCURVE",
"185 192 CURVE",
"240 289 LINE",
"205 284 OFFCURVE",
"172 302 OFFCURVE",
"172 339 CURVE SMOOTH",
"172 381 OFFCURVE",
"213 400 OFFCURVE",
"234 402 CURVE SMOOTH",
"262 405 OFFCURVE",
"263 376 OFFCURVE",
"275 376 CURVE SMOOTH",
"292 376 OFFCURVE",
"345 416 OFFCURVE",
"345 430 CURVE SMOOTH",
"345 439 OFFCURVE",
"326 450 OFFCURVE",
"326 461 CURVE SMOOTH",
"326 494 OFFCURVE",
"402 526 OFFCURVE",
"500 526 CURVE SMOOTH"
);
}
);
};
layerId = "9F2BC935-6AE7-4E60-84C9-D3B586669EA4";
paths = (
{
closed = 1;
nodes = (
"183 316 OFFCURVE",
"125 205 OFFCURVE",
"125 125 CURVE SMOOTH",
"125 45 OFFCURVE",
"171 -4 OFFCURVE",
"251 -4 CURVE SMOOTH",
"345 -4 OFFCURVE",
"437 76 OFFCURVE",
"437 176 CURVE SMOOTH",
"437 265 OFFCURVE",
"377 316 OFFCURVE",
"298 316 CURVE SMOOTH"
);
},
{
closed = 1;
nodes = (
"327 235 OFFCURVE",
"343 180 OFFCURVE",
"343 143 CURVE SMOOTH",
"343 97 OFFCURVE",
"301 72 OFFCURVE",
"266 72 CURVE SMOOTH",
"224 72 OFFCURVE",
"209 128 OFFCURVE",
"209 165 CURVE SMOOTH",
"209 210 OFFCURVE",
"249 235 OFFCURVE",
"285 235 CURVE SMOOTH"
);
},
{
closed = 0;
nodes = (
"231 321 LINE"
);
},
{
closed = 1;
nodes = (
"434 316 OFFCURVE",
"376 205 OFFCURVE",
"376 125 CURVE SMOOTH",
"376 45 OFFCURVE",
"422 -4 OFFCURVE",
"502 -4 CURVE SMOOTH",
"596 -4 OFFCURVE",
"688 76 OFFCURVE",
"688 176 CURVE SMOOTH",
"688 265 OFFCURVE",
"627 316 OFFCURVE",
"549 316 CURVE SMOOTH"
);
},
{
closed = 1;
nodes = (
"577 235 OFFCURVE",
"593 180 OFFCURVE",
"593 143 CURVE SMOOTH",
"593 97 OFFCURVE",
"552 72 OFFCURVE",
"516 72 CURVE SMOOTH",
"475 72 OFFCURVE",
"460 128 OFFCURVE",
"460 165 CURVE SMOOTH",
"460 210 OFFCURVE",
"500 235 OFFCURVE",
"536 235 CURVE SMOOTH"
);
},
{
closed = 1;
nodes = (
"674 526 OFFCURVE",
"804 391 OFFCURVE",
"805 276 CURVE SMOOTH",
"806 164 OFFCURVE",
"718 113 OFFCURVE",
"718 88 CURVE SMOOTH",
"718 66 OFFCURVE",
"781 -39 OFFCURVE",
"820 -39 CURVE SMOOTH",
"842 -39 OFFCURVE",
"897 7 OFFCURVE",
"897 37 CURVE SMOOTH",
"897 42 OFFCURVE",
"896 45 OFFCURVE",
"893 45 CURVE SMOOTH",
"889 45 OFFCURVE",
"879 35 OFFCURVE",
"874 35 CURVE SMOOTH",
"865 35 OFFCURVE",
"827 62 OFFCURVE",
"820 73 CURVE",
"827 85 OFFCURVE",
"924 180 OFFCURVE",
"924 283 CURVE SMOOTH",
"924 485 OFFCURVE",
"731 619 OFFCURVE",
"511 619 CURVE SMOOTH",
"396 619 OFFCURVE",
"257 588 OFFCURVE",
"234 485 CURVE",
"125 485 OFFCURVE",
"55 411 OFFCURVE",
"55 337 CURVE SMOOTH",
"55 249 OFFCURVE",
"141 192 OFFCURVE",
"185 192 CURVE",
"240 289 LINE",
"205 284 OFFCURVE",
"172 302 OFFCURVE",
"172 339 CURVE SMOOTH",
"172 381 OFFCURVE",
"213 400 OFFCURVE",
"234 402 CURVE SMOOTH",
"262 405 OFFCURVE",
"263 376 OFFCURVE",
"275 376 CURVE SMOOTH",
"292 376 OFFCURVE",
"345 416 OFFCURVE",
"345 430 CURVE SMOOTH",
"345 439 OFFCURVE",
"326 450 OFFCURVE",
"326 461 CURVE SMOOTH",
"326 494 OFFCURVE",
"402 526 OFFCURVE",
"500 526 CURVE SMOOTH"
);
}
);
width = 971;
}
);
unicode = 0B08;
},
{
glyphname = "u-oriya";
lastChange = "2021-11-01 06:31:12 +0000";
layers = (
{
background = {
paths = (
{
closed = 1;
nodes = (
"339 253 OFFCURVE",
"397 214 OFFCURVE",
"397 158 CURVE SMOOTH",
"397 108 OFFCURVE",
"344 84 OFFCURVE",
"262 84 CURVE SMOOTH",
"202 84 OFFCURVE",
"169 103 OFFCURVE",
"169 142 CURVE SMOOTH",
"169 203 OFFCURVE",
"275 244 OFFCURVE",
"275 260 CURVE SMOOTH",
"275 275 OFFCURVE",
"263 321 OFFCURVE",
"250 321 CURVE SMOOTH",
"232 321 OFFCURVE",
"49 254 OFFCURVE",
"50 135 CURVE SMOOTH",
"51 67 OFFCURVE",
"103 -8 OFFCURVE",
"253 -7 CURVE SMOOTH",
"400 -6 OFFCURVE",
"501 63 OFFCURVE",
"501 154 CURVE SMOOTH",
"501 222 OFFCURVE",
"437 273 OFFCURVE",
"433 275 CURVE",
"446 292 OFFCURVE",
"488 313 OFFCURVE",
"501 313 CURVE SMOOTH",
"512 313 OFFCURVE",
"518 299 OFFCURVE",
"525 299 CURVE SMOOTH",
"528 299 OFFCURVE",
"530 302 OFFCURVE",
"530 308 CURVE SMOOTH",
"530 346 OFFCURVE",
"499 403 OFFCURVE",
"473 403 CURVE SMOOTH",
"432 403 OFFCURVE",
"339 318 OFFCURVE",
"339 274 CURVE SMOOTH"
);
},
{
closed = 1;
nodes = (
"651 85 OFFCURVE",
"788 186 OFFCURVE",
"788 337 CURVE SMOOTH",
"788 513 OFFCURVE",
"611 617 OFFCURVE",
"432 617 CURVE SMOOTH",
"243 617 OFFCURVE",
"72 505 OFFCURVE",
"72 371 CURVE SMOOTH",
"72 288 OFFCURVE",
"152 231 OFFCURVE",
"188 231 CURVE",
"250 321 LINE",
"212 321 OFFCURVE",
"191 346 OFFCURVE",
"191 377 CURVE SMOOTH",
"191 449 OFFCURVE",
"290 526 OFFCURVE",
"421 526 CURVE SMOOTH",
"554 526 OFFCURVE",
"672 441 OFFCURVE",
"669 313 CURVE SMOOTH",
"666 188 OFFCURVE",
"542 113 OFFCURVE",
"542 88 CURVE SMOOTH",
"542 66 OFFCURVE",
"605 -39 OFFCURVE",
"644 -39 CURVE SMOOTH",
"666 -39 OFFCURVE",
"721 7 OFFCURVE",
"721 37 CURVE SMOOTH",
"721 42 OFFCURVE",
"720 45 OFFCURVE",
"717 45 CURVE SMOOTH",
"713 45 OFFCURVE",
"703 35 OFFCURVE",
"698 35 CURVE SMOOTH",
"689 35 OFFCURVE",
"651 62 OFFCURVE",
"644 73 CURVE"
);
}
);
};
layerId = "555B79C6-6D98-46E7-9307-77C37975E414";
paths = (
{
closed = 1;
nodes = (
"324 249 OFFCURVE",
"382 214 OFFCURVE",
"382 158 CURVE SMOOTH",
"382 108 OFFCURVE",
"320 99 OFFCURVE",
"262 99 CURVE SMOOTH",
"207 99 OFFCURVE",
"185 115 OFFCURVE",
"185 142 CURVE SMOOTH",
"185 197 OFFCURVE",
"285 241 OFFCURVE",
"285 257 CURVE SMOOTH",
"285 272 OFFCURVE",
"271 331 OFFCURVE",
"250 331 CURVE SMOOTH",
"232 331 OFFCURVE",
"38 258 OFFCURVE",
"40 135 CURVE SMOOTH",
"41 61 OFFCURVE",
"103 -18 OFFCURVE",
"253 -17 CURVE SMOOTH",
"410 -16 OFFCURVE",
"511 63 OFFCURVE",
"511 154 CURVE SMOOTH",
"511 222 OFFCURVE",
"447 273 OFFCURVE",
"443 275 CURVE",
"456 292 OFFCURVE",
"488 303 OFFCURVE",
"501 303 CURVE SMOOTH",
"512 303 OFFCURVE",
"518 289 OFFCURVE",
"525 289 CURVE SMOOTH",
"533 289 OFFCURVE",
"535 299 OFFCURVE",
"535 311 CURVE SMOOTH",
"535 347 OFFCURVE",
"502 413 OFFCURVE",
"473 413 CURVE SMOOTH",
"432 413 OFFCURVE",
"324 318 OFFCURVE",
"324 274 CURVE SMOOTH"
);
},
{
closed = 1;
nodes = (
"664 85 OFFCURVE",
"798 186 OFFCURVE",
"798 337 CURVE SMOOTH",
"798 513 OFFCURVE",
"632 627 OFFCURVE",
"432 627 CURVE SMOOTH",
"220 627 OFFCURVE",
"53 505 OFFCURVE",
"53 371 CURVE SMOOTH",
"53 271 OFFCURVE",
"152 218 OFFCURVE",
"188 218 CURVE",
"250 331 LINE",
"220 331 OFFCURVE",
"206 356 OFFCURVE",
"206 377 CURVE SMOOTH",
"206 434 OFFCURVE",
"287 506 OFFCURVE",
"421 506 CURVE SMOOTH",
"558 506 OFFCURVE",
"655 424 OFFCURVE",
"654 313 CURVE SMOOTH",
"653 188 OFFCURVE",
"529 117 OFFCURVE",
"529 92 CURVE SMOOTH",
"529 56 OFFCURVE",
"604 -52 OFFCURVE",
"643 -52 CURVE SMOOTH",
"680 -52 OFFCURVE",
"735 10 OFFCURVE",
"735 39 CURVE SMOOTH",
"735 44 OFFCURVE",
"734 55 OFFCURVE",
"728 55 CURVE SMOOTH",
"724 55 OFFCURVE",
"712 43 OFFCURVE",
"707 43 CURVE SMOOTH",
"698 43 OFFCURVE",
"664 62 OFFCURVE",
"657 73 CURVE"
);
}
);
width = 818;
},
{
background = {
paths = (
{
closed = 1;
nodes = (
"347 253 OFFCURVE",
"405 214 OFFCURVE",
"405 158 CURVE SMOOTH",
"405 108 OFFCURVE",
"352 84 OFFCURVE",
"270 84 CURVE SMOOTH",
"210 84 OFFCURVE",
"177 103 OFFCURVE",
"177 142 CURVE SMOOTH",
"177 203 OFFCURVE",
"283 244 OFFCURVE",
"283 260 CURVE SMOOTH",
"283 275 OFFCURVE",
"271 321 OFFCURVE",
"258 321 CURVE SMOOTH",
"240 321 OFFCURVE",
"57 254 OFFCURVE",
"58 135 CURVE SMOOTH",
"59 67 OFFCURVE",
"111 -8 OFFCURVE",
"261 -7 CURVE SMOOTH",
"408 -6 OFFCURVE",
"509 63 OFFCURVE",
"509 154 CURVE SMOOTH",
"509 222 OFFCURVE",
"445 273 OFFCURVE",
"441 275 CURVE",
"454 292 OFFCURVE",
"496 313 OFFCURVE",
"509 313 CURVE SMOOTH",
"520 313 OFFCURVE",
"526 299 OFFCURVE",
"533 299 CURVE SMOOTH",
"536 299 OFFCURVE",
"538 302 OFFCURVE",
"538 308 CURVE SMOOTH",
"538 346 OFFCURVE",
"507 403 OFFCURVE",
"481 403 CURVE SMOOTH",
"440 403 OFFCURVE",
"347 318 OFFCURVE",
"347 274 CURVE SMOOTH"
);
},
{
closed = 1;
nodes = (
"659 85 OFFCURVE",
"796 186 OFFCURVE",
"796 337 CURVE SMOOTH",
"796 513 OFFCURVE",
"619 617 OFFCURVE",
"440 617 CURVE SMOOTH",
"251 617 OFFCURVE",
"80 505 OFFCURVE",
"80 371 CURVE SMOOTH",
"80 288 OFFCURVE",
"160 231 OFFCURVE",
"196 231 CURVE",
"258 321 LINE",
"220 321 OFFCURVE",
"199 346 OFFCURVE",
"199 377 CURVE SMOOTH",
"199 449 OFFCURVE",
"298 526 OFFCURVE",
"429 526 CURVE SMOOTH",
"562 526 OFFCURVE",
"680 441 OFFCURVE",
"677 313 CURVE SMOOTH",
"674 188 OFFCURVE",
"550 113 OFFCURVE",
"550 88 CURVE SMOOTH",
"550 66 OFFCURVE",
"613 -39 OFFCURVE",
"652 -39 CURVE SMOOTH",
"674 -39 OFFCURVE",
"729 7 OFFCURVE",
"729 37 CURVE SMOOTH",
"729 42 OFFCURVE",
"728 45 OFFCURVE",
"725 45 CURVE SMOOTH",
"721 45 OFFCURVE",
"711 35 OFFCURVE",
"706 35 CURVE SMOOTH",
"697 35 OFFCURVE",
"659 62 OFFCURVE",
"652 73 CURVE"
);
},
{
closed = 1;
nodes = (
"510 498 OFFCURVE",
"643 381 OFFCURVE",
"644 276 CURVE SMOOTH",
"645 168 OFFCURVE",
"537 117 OFFCURVE",
"537 92 CURVE SMOOTH",
"537 56 OFFCURVE",
"612 -52 OFFCURVE",
"651 -52 CURVE SMOOTH",
"689 -52 OFFCURVE",
"743 11 OFFCURVE",
"743 39 CURVE SMOOTH",
"743 47 OFFCURVE",
"741 55 OFFCURVE",
"736 55 CURVE SMOOTH",
"732 55 OFFCURVE",
"720 43 OFFCURVE",
"715 43 CURVE SMOOTH",
"706 43 OFFCURVE",
"672 62 OFFCURVE",
"665 73 CURVE",
"677 87 OFFCURVE",
"798 177 OFFCURVE",
"798 293 CURVE SMOOTH",
"798 485 OFFCURVE",
"612 622 OFFCURVE",
"359 622 CURVE SMOOTH",
"244 622 OFFCURVE",
"122 596 OFFCURVE",
"84 494 CURVE",
"-19 494 OFFCURVE",
"-103 420 OFFCURVE",
"-103 328 CURVE SMOOTH",
"-103 238 OFFCURVE",
"-24 183 OFFCURVE",
"44 183 CURVE",
"88 302 LINE",
"66 300 OFFCURVE",
"48 316 OFFCURVE",
"48 339 CURVE SMOOTH",
"48 369 OFFCURVE",
"80 389 OFFCURVE",
"100 389 CURVE SMOOTH",
"117 389 OFFCURVE",
"121 362 OFFCURVE",
"133 362 CURVE SMOOTH",
"152 362 OFFCURVE",
"217 410 OFFCURVE",
"217 428 CURVE SMOOTH",
"217 437 OFFCURVE",
"200 444 OFFCURVE",
"200 455 CURVE SMOOTH",
"200 475 OFFCURVE",
"247 498 OFFCURVE",
"345 498 CURVE SMOOTH"
);
}
);
};
layerId = "9F2BC935-6AE7-4E60-84C9-D3B586669EA4";
paths = (
{
closed = 1;
nodes = (
"347 253 OFFCURVE",
"405 214 OFFCURVE",
"405 158 CURVE SMOOTH",
"405 108 OFFCURVE",
"352 84 OFFCURVE",
"270 84 CURVE SMOOTH",
"210 84 OFFCURVE",
"177 103 OFFCURVE",
"177 142 CURVE SMOOTH",
"177 203 OFFCURVE",
"283 244 OFFCURVE",
"283 260 CURVE SMOOTH",
"283 275 OFFCURVE",
"271 321 OFFCURVE",
"258 321 CURVE SMOOTH",
"240 321 OFFCURVE",
"57 254 OFFCURVE",
"58 135 CURVE SMOOTH",
"59 67 OFFCURVE",
"111 -8 OFFCURVE",
"261 -7 CURVE SMOOTH",
"408 -6 OFFCURVE",
"509 63 OFFCURVE",
"509 154 CURVE SMOOTH",
"509 222 OFFCURVE",
"445 273 OFFCURVE",
"441 275 CURVE",
"454 292 OFFCURVE",
"496 313 OFFCURVE",
"509 313 CURVE SMOOTH",
"520 313 OFFCURVE",
"526 299 OFFCURVE",
"533 299 CURVE SMOOTH",
"536 299 OFFCURVE",
"538 302 OFFCURVE",
"538 308 CURVE SMOOTH",
"538 346 OFFCURVE",
"507 403 OFFCURVE",
"481 403 CURVE SMOOTH",
"440 403 OFFCURVE",
"347 318 OFFCURVE",
"347 274 CURVE SMOOTH"
);
},
{
closed = 1;
nodes = (
"659 85 OFFCURVE",
"796 186 OFFCURVE",
"796 337 CURVE SMOOTH",
"796 513 OFFCURVE",
"619 617 OFFCURVE",
"440 617 CURVE SMOOTH",
"251 617 OFFCURVE",
"80 505 OFFCURVE",
"80 371 CURVE SMOOTH",
"80 288 OFFCURVE",
"160 231 OFFCURVE",
"196 231 CURVE",
"258 321 LINE",
"220 321 OFFCURVE",
"199 346 OFFCURVE",
"199 377 CURVE SMOOTH",
"199 449 OFFCURVE",
"298 526 OFFCURVE",
"429 526 CURVE SMOOTH",
"562 526 OFFCURVE",
"680 441 OFFCURVE",
"677 313 CURVE SMOOTH",
"674 188 OFFCURVE",
"550 113 OFFCURVE",
"550 88 CURVE SMOOTH",
"550 66 OFFCURVE",
"613 -39 OFFCURVE",
"652 -39 CURVE SMOOTH",
"674 -39 OFFCURVE",
"729 7 OFFCURVE",
"729 37 CURVE SMOOTH",
"729 42 OFFCURVE",
"728 45 OFFCURVE",
"725 45 CURVE SMOOTH",
"721 45 OFFCURVE",
"711 35 OFFCURVE",
"706 35 CURVE SMOOTH",
"697 35 OFFCURVE",
"659 62 OFFCURVE",
"652 73 CURVE"
);
}
);
width = 836;
}
);
unicode = 0B09;
},
{
glyphname = "uu-oriya";
lastChange = "2021-11-01 06:57:54 +0000";
layers = (
{
background = {
paths = (
{
closed = 1;
nodes = (
"691 76 OFFCURVE",
"785 138 OFFCURVE",
"785 184 CURVE SMOOTH",
"785 205 OFFCURVE",
"774 237 OFFCURVE",
"738 257 CURVE",
"767 276 OFFCURVE",
"788 302 OFFCURVE",
"788 350 CURVE SMOOTH",
"788 513 OFFCURVE",
"611 617 OFFCURVE",
"432 617 CURVE SMOOTH",
"243 617 OFFCURVE",
"72 505 OFFCURVE",
"72 371 CURVE SMOOTH",
"72 288 OFFCURVE",
"152 234 OFFCURVE",
"188 234 CURVE",
"250 321 LINE",
"212 321 OFFCURVE",
"191 346 OFFCURVE",
"191 377 CURVE SMOOTH",
"191 450 OFFCURVE",
"290 526 OFFCURVE",
"421 526 CURVE SMOOTH",
"563 526 OFFCURVE",
"671 441 OFFCURVE",
"671 341 CURVE SMOOTH",
"671 283 OFFCURVE",
"588 267 OFFCURVE",
"588 239 CURVE SMOOTH",
"588 233 OFFCURVE",
"592 228 OFFCURVE",
"598 228 CURVE SMOOTH",
"606 228 OFFCURVE",
"624 236 OFFCURVE",
"638 236 CURVE SMOOTH",
"661 236 OFFCURVE",
"672 210 OFFCURVE",
"672 192 CURVE SMOOTH",
"672 159 OFFCURVE",
"585 103 OFFCURVE",
"585 86 CURVE SMOOTH",
"585 64 OFFCURVE",
"648 -41 OFFCURVE",
"687 -41 CURVE SMOOTH",
"719 -41 OFFCURVE",
"764 13 OFFCURVE",
"764 35 CURVE SMOOTH",
"764 40 OFFCURVE",
"763 43 OFFCURVE",
"760 43 CURVE SMOOTH",
"756 43 OFFCURVE",
"746 33 OFFCURVE",
"741 33 CURVE SMOOTH",
"732 33 OFFCURVE",
"694 60 OFFCURVE",
"687 71 CURVE"
);
},
{
closed = 1;
nodes = (
"339 253 OFFCURVE",
"397 214 OFFCURVE",
"397 158 CURVE SMOOTH",
"397 108 OFFCURVE",
"344 84 OFFCURVE",
"262 84 CURVE SMOOTH",
"202 84 OFFCURVE",
"169 103 OFFCURVE",
"169 142 CURVE SMOOTH",
"169 203 OFFCURVE",
"275 244 OFFCURVE",
"275 260 CURVE SMOOTH",
"275 275 OFFCURVE",
"263 321 OFFCURVE",
"250 321 CURVE SMOOTH",
"232 321 OFFCURVE",
"49 254 OFFCURVE",
"50 135 CURVE SMOOTH",
"51 67 OFFCURVE",
"103 -8 OFFCURVE",
"253 -7 CURVE SMOOTH",
"400 -6 OFFCURVE",
"501 63 OFFCURVE",
"501 154 CURVE SMOOTH",
"501 222 OFFCURVE",
"437 273 OFFCURVE",
"433 275 CURVE",
"446 292 OFFCURVE",
"488 313 OFFCURVE",
"501 313 CURVE SMOOTH",
"512 313 OFFCURVE",
"518 299 OFFCURVE",
"525 299 CURVE SMOOTH",
"528 299 OFFCURVE",
"530 302 OFFCURVE",
"530 308 CURVE SMOOTH",
"530 346 OFFCURVE",
"499 403 OFFCURVE",
"473 403 CURVE SMOOTH",
"432 403 OFFCURVE",
"339 318 OFFCURVE",
"339 274 CURVE SMOOTH"
);
}
);
};
layerId = "555B79C6-6D98-46E7-9307-77C37975E414";
paths = (
{
closed = 1;
nodes = (
"705 75 OFFCURVE",
"795 126 OFFCURVE",
"795 184 CURVE SMOOTH",
"795 205 OFFCURVE",
"788 237 OFFCURVE",
"752 257 CURVE",
"774 269 OFFCURVE",
"802 304 OFFCURVE",
"802 349 CURVE SMOOTH",
"802 505 OFFCURVE",
"640 627 OFFCURVE",
"432 627 CURVE SMOOTH",
"220 627 OFFCURVE",
"53 505 OFFCURVE",
"53 371 CURVE SMOOTH",
"53 271 OFFCURVE",
"152 218 OFFCURVE",
"188 218 CURVE",
"250 331 LINE",
"220 331 OFFCURVE",
"206 356 OFFCURVE",
"206 377 CURVE SMOOTH",
"206 434 OFFCURVE",
"287 506 OFFCURVE",
"421 506 CURVE SMOOTH",
"563 506 OFFCURVE",
"651 420 OFFCURVE",
"651 341 CURVE SMOOTH",
"651 283 OFFCURVE",
"573 267 OFFCURVE",
"573 237 CURVE SMOOTH",
"573 229 OFFCURVE",
"579 222 OFFCURVE",
"588 222 CURVE SMOOTH",
"596 222 OFFCURVE",
"611 229 OFFCURVE",
"625 229 CURVE SMOOTH",
"648 229 OFFCURVE",
"659 210 OFFCURVE",
"659 195 CURVE SMOOTH",
"659 161 OFFCURVE",
"565 109 OFFCURVE",
"565 92 CURVE SMOOTH",
"565 56 OFFCURVE",
"640 -52 OFFCURVE",
"679 -52 CURVE SMOOTH",
"716 -52 OFFCURVE",
"771 10 OFFCURVE",
"771 39 CURVE SMOOTH",
"771 44 OFFCURVE",
"770 55 OFFCURVE",
"764 55 CURVE SMOOTH",
"760 55 OFFCURVE",
"748 43 OFFCURVE",
"743 43 CURVE SMOOTH",
"734 43 OFFCURVE",
"708 59 OFFCURVE",
"701 70 CURVE"
);
},
{
closed = 1;
nodes = (
"324 249 OFFCURVE",
"382 214 OFFCURVE",
"382 158 CURVE SMOOTH",
"382 108 OFFCURVE",
"320 99 OFFCURVE",
"262 99 CURVE SMOOTH",
"207 99 OFFCURVE",
"185 115 OFFCURVE",
"185 142 CURVE SMOOTH",
"185 197 OFFCURVE",
"285 241 OFFCURVE",
"285 257 CURVE SMOOTH",
"285 272 OFFCURVE",
"271 331 OFFCURVE",
"250 331 CURVE SMOOTH",
"232 331 OFFCURVE",
"38 258 OFFCURVE",
"40 135 CURVE SMOOTH",
"41 61 OFFCURVE",
"103 -18 OFFCURVE",
"253 -17 CURVE SMOOTH",
"410 -16 OFFCURVE",
"511 63 OFFCURVE",
"511 154 CURVE SMOOTH",
"511 222 OFFCURVE",
"447 273 OFFCURVE",
"443 275 CURVE",
"456 292 OFFCURVE",
"488 303 OFFCURVE",
"501 303 CURVE SMOOTH",
"512 303 OFFCURVE",
"518 289 OFFCURVE",
"525 289 CURVE SMOOTH",
"533 289 OFFCURVE",
"535 299 OFFCURVE",
"535 311 CURVE SMOOTH",
"535 347 OFFCURVE",
"502 413 OFFCURVE",
"473 413 CURVE SMOOTH",
"432 413 OFFCURVE",
"324 318 OFFCURVE",
"324 274 CURVE SMOOTH"
);
}
);
width = 822;
},
{
background = {
paths = (
{
closed = 1;
nodes = (
"339 253 OFFCURVE",
"397 214 OFFCURVE",
"397 158 CURVE SMOOTH",
"397 108 OFFCURVE",
"344 84 OFFCURVE",
"256 84 CURVE SMOOTH",
"198 84 OFFCURVE",
"169 103 OFFCURVE",
"169 136 CURVE SMOOTH",
"169 207 OFFCURVE",
"273 249 OFFCURVE",
"273 265 CURVE SMOOTH",
"273 280 OFFCURVE",
"263 321 OFFCURVE",
"250 321 CURVE SMOOTH",
"232 321 OFFCURVE",
"49 254 OFFCURVE",
"50 135 CURVE SMOOTH",
"51 67 OFFCURVE",
"103 -8 OFFCURVE",
"253 -7 CURVE SMOOTH",
"400 -6 OFFCURVE",
"501 63 OFFCURVE",
"501 154 CURVE SMOOTH",
"501 221 OFFCURVE",
"437 272 OFFCURVE",
"433 275 CURVE",
"446 292 OFFCURVE",
"488 313 OFFCURVE",
"501 313 CURVE SMOOTH",
"512 313 OFFCURVE",
"518 299 OFFCURVE",
"525 299 CURVE SMOOTH",
"528 299 OFFCURVE",
"530 302 OFFCURVE",
"530 308 CURVE SMOOTH",
"530 346 OFFCURVE",
"499 403 OFFCURVE",
"473 403 CURVE SMOOTH",
"431 403 OFFCURVE",
"339 318 OFFCURVE",
"339 274 CURVE SMOOTH"
);
},
{
closed = 1;
nodes = (
"687 83 OFFCURVE",
"785 134 OFFCURVE",
"785 184 CURVE SMOOTH",
"785 205 OFFCURVE",
"774 237 OFFCURVE",
"738 257 CURVE",
"767 276 OFFCURVE",
"788 302 OFFCURVE",
"788 350 CURVE SMOOTH",
"788 513 OFFCURVE",
"611 617 OFFCURVE",
"432 617 CURVE SMOOTH",
"243 617 OFFCURVE",
"72 505 OFFCURVE",
"72 368 CURVE SMOOTH",
"72 295 OFFCURVE",
"154 231 OFFCURVE",
"190 231 CURVE",
"250 321 LINE",
"212 321 OFFCURVE",
"191 342 OFFCURVE",
"191 377 CURVE SMOOTH",
"191 450 OFFCURVE",
"290 526 OFFCURVE",
"421 526 CURVE SMOOTH",
"554 526 OFFCURVE",
"673 441 OFFCURVE",
"671 339 CURVE SMOOTH",
"670 283 OFFCURVE",
"588 267 OFFCURVE",
"588 240 CURVE SMOOTH",
"588 236 OFFCURVE",
"587 229 OFFCURVE",
"594 228 CURVE SMOOTH",
"599 227 OFFCURVE",
"622 237 OFFCURVE",
"638 236 CURVE SMOOTH",
"660 235 OFFCURVE",
"672 210 OFFCURVE",
"672 192 CURVE SMOOTH",
"672 165 OFFCURVE",
"585 100 OFFCURVE",
"585 86 CURVE SMOOTH",
"585 64 OFFCURVE",
"648 -41 OFFCURVE",
"687 -41 CURVE SMOOTH",
"719 -41 OFFCURVE",
"767 15 OFFCURVE",
"767 37 CURVE SMOOTH",
"767 40 OFFCURVE",
"766 42 OFFCURVE",
"764 42 CURVE SMOOTH",
"760 42 OFFCURVE",
"752 33 OFFCURVE",
"741 33 CURVE SMOOTH",
"732 33 OFFCURVE",
"694 58 OFFCURVE",
"687 71 CURVE"
);
}
);
};
layerId = "9F2BC935-6AE7-4E60-84C9-D3B586669EA4";
paths = (
{
closed = 1;
nodes = (
"691 76 OFFCURVE",
"785 138 OFFCURVE",
"785 184 CURVE SMOOTH",
"785 205 OFFCURVE",
"774 237 OFFCURVE",
"738 257 CURVE",
"767 276 OFFCURVE",
"788 302 OFFCURVE",
"788 350 CURVE SMOOTH",
"788 513 OFFCURVE",
"611 617 OFFCURVE",
"432 617 CURVE SMOOTH",
"243 617 OFFCURVE",
"72 505 OFFCURVE",
"72 371 CURVE SMOOTH",
"72 288 OFFCURVE",
"152 234 OFFCURVE",
"188 234 CURVE",
"250 321 LINE",
"212 321 OFFCURVE",
"191 346 OFFCURVE",
"191 377 CURVE SMOOTH",
"191 450 OFFCURVE",
"290 526 OFFCURVE",
"421 526 CURVE SMOOTH",
"563 526 OFFCURVE",
"671 441 OFFCURVE",
"671 341 CURVE SMOOTH",
"671 283 OFFCURVE",
"588 267 OFFCURVE",
"588 239 CURVE SMOOTH",
"588 233 OFFCURVE",
"592 228 OFFCURVE",
"598 228 CURVE SMOOTH",
"606 228 OFFCURVE",
"624 236 OFFCURVE",
"638 236 CURVE SMOOTH",
"661 236 OFFCURVE",
"672 210 OFFCURVE",
"672 192 CURVE SMOOTH",
"672 159 OFFCURVE",
"585 103 OFFCURVE",
"585 86 CURVE SMOOTH",
"585 64 OFFCURVE",
"648 -41 OFFCURVE",
"687 -41 CURVE SMOOTH",
"719 -41 OFFCURVE",
"764 13 OFFCURVE",
"764 35 CURVE SMOOTH",
"764 40 OFFCURVE",
"763 43 OFFCURVE",
"760 43 CURVE SMOOTH",
"756 43 OFFCURVE",
"746 33 OFFCURVE",
"741 33 CURVE SMOOTH",
"732 33 OFFCURVE",
"694 60 OFFCURVE",
"687 71 CURVE"
);
},
{
closed = 1;
nodes = (
"339 253 OFFCURVE",
"397 214 OFFCURVE",
"397 158 CURVE SMOOTH",
"397 108 OFFCURVE",
"344 84 OFFCURVE",
"262 84 CURVE SMOOTH",
"202 84 OFFCURVE",
"169 103 OFFCURVE",
"169 142 CURVE SMOOTH",
"169 203 OFFCURVE",
"275 244 OFFCURVE",
"275 260 CURVE SMOOTH",
"275 275 OFFCURVE",
"263 321 OFFCURVE",
"250 321 CURVE SMOOTH",
"232 321 OFFCURVE",
"49 254 OFFCURVE",
"50 135 CURVE SMOOTH",
"51 67 OFFCURVE",
"103 -8 OFFCURVE",
"253 -7 CURVE SMOOTH",
"400 -6 OFFCURVE",
"501 63 OFFCURVE",
"501 154 CURVE SMOOTH",
"501 222 OFFCURVE",
"437 273 OFFCURVE",
"433 275 CURVE",
"446 292 OFFCURVE",
"488 313 OFFCURVE",
"501 313 CURVE SMOOTH",
"512 313 OFFCURVE",
"518 299 OFFCURVE",
"525 299 CURVE SMOOTH",
"528 299 OFFCURVE",
"530 302 OFFCURVE",
"530 308 CURVE SMOOTH",
"530 346 OFFCURVE",
"499 403 OFFCURVE",
"473 403 CURVE SMOOTH",
"432 403 OFFCURVE",
"339 318 OFFCURVE",
"339 274 CURVE SMOOTH"
);
}
);
width = 828;
}
);
unicode = 0B0A;
},
{
glyphname = "rVocalic-oriya";
lastChange = "2021-11-01 07:04:18 +0000";
layers = (
{
background = {
paths = (
{
closed = 1;
nodes = (
"194 356 OFFCURVE",
"129 231 OFFCURVE",
"129 140 CURVE SMOOTH",
"129 51 OFFCURVE",
"181 -4 OFFCURVE",
"270 -4 CURVE SMOOTH",
"376 -4 OFFCURVE",
"479 85 OFFCURVE",
"479 198 CURVE SMOOTH",
"479 296 OFFCURVE",
"412 356 OFFCURVE",
"323 356 CURVE SMOOTH"
);
},
{
closed = 1;
nodes = (
"354 264 OFFCURVE",
"373 203 OFFCURVE",
"373 161 CURVE SMOOTH",
"373 109 OFFCURVE",
"327 81 OFFCURVE",
"287 81 CURVE SMOOTH",
"240 81 OFFCURVE",
"224 145 OFFCURVE",
"224 185 CURVE SMOOTH",
"224 236 OFFCURVE",
"268 264 OFFCURVE",
"309 264 CURVE SMOOTH"
);
},
{
closed = 1;
nodes = (
"646 76 OFFCURVE",
"740 138 OFFCURVE",
"740 184 CURVE SMOOTH",
"740 205 OFFCURVE",
"729 237 OFFCURVE",
"693 257 CURVE",
"722 276 OFFCURVE",
"753 312 OFFCURVE",
"753 363 CURVE SMOOTH",
"753 515 OFFCURVE",
"596 617 OFFCURVE",
"417 617 CURVE SMOOTH",
"228 617 OFFCURVE",
"57 505 OFFCURVE",
"57 371 CURVE SMOOTH",
"57 288 OFFCURVE",
"138 234 OFFCURVE",
"173 234 CURVE",
"235 321 LINE",
"197 321 OFFCURVE",
"176 346 OFFCURVE",
"176 377 CURVE SMOOTH",
"176 450 OFFCURVE",
"275 526 OFFCURVE",
"406 526 CURVE SMOOTH",
"537 526 OFFCURVE",
"638 446 OFFCURVE",
"638 348 CURVE SMOOTH",
"638 285 OFFCURVE",
"543 267 OFFCURVE",
"543 239 CURVE SMOOTH",
"543 233 OFFCURVE",
"547 228 OFFCURVE",
"553 228 CURVE SMOOTH",
"561 228 OFFCURVE",
"579 236 OFFCURVE",
"593 236 CURVE SMOOTH",
"616 236 OFFCURVE",
"627 210 OFFCURVE",
"627 192 CURVE SMOOTH",
"627 159 OFFCURVE",
"540 103 OFFCURVE",
"540 86 CURVE SMOOTH",
"540 64 OFFCURVE",
"603 -41 OFFCURVE",
"642 -41 CURVE SMOOTH",
"674 -41 OFFCURVE",
"719 13 OFFCURVE",
"719 35 CURVE SMOOTH",
"719 40 OFFCURVE",
"718 43 OFFCURVE",
"715 43 CURVE SMOOTH",
"711 43 OFFCURVE",
"701 33 OFFCURVE",
"696 33 CURVE SMOOTH",
"687 33 OFFCURVE",
"649 60 OFFCURVE",
"642 71 CURVE"
);
}
);
};
layerId = "555B79C6-6D98-46E7-9307-77C37975E414";
paths = (
{
closed = 1;
nodes = (
"346 251 OFFCURVE",
"363 199 OFFCURVE",
"363 163 CURVE SMOOTH",
"363 118 OFFCURVE",
"323 94 OFFCURVE",
"289 94 CURVE SMOOTH",
"248 94 OFFCURVE",
"234 149 OFFCURVE",
"234 183 CURVE SMOOTH",
"234 227 OFFCURVE",
"272 251 OFFCURVE",
"308 251 CURVE SMOOTH"
);
},
{
closed = 1;
nodes = (
"667 76 OFFCURVE",
"759 128 OFFCURVE",
"759 184 CURVE SMOOTH",
"759 207 OFFCURVE",
"745 239 OFFCURVE",
"716 259 CURVE",
"738 271 OFFCURVE",
"768 318 OFFCURVE",
"768 363 CURVE SMOOTH",
"768 519 OFFCURVE",
"624 627 OFFCURVE",
"416 627 CURVE SMOOTH",
"204 627 OFFCURVE",
"40 505 OFFCURVE",
"40 371 CURVE SMOOTH",
"40 271 OFFCURVE",
"139 218 OFFCURVE",
"175 218 CURVE",
"237 331 LINE",
"207 331 OFFCURVE",
"193 356 OFFCURVE",
"193 377 CURVE SMOOTH",
"193 434 OFFCURVE",
"271 506 OFFCURVE",
"405 506 CURVE SMOOTH",
"547 506 OFFCURVE",
"615 414 OFFCURVE",
"615 348 CURVE SMOOTH",
"615 290 OFFCURVE",
"537 269 OFFCURVE",
"537 239 CURVE SMOOTH",
"537 230 OFFCURVE",
"543 223 OFFCURVE",
"553 223 CURVE SMOOTH",
"562 223 OFFCURVE",
"578 230 OFFCURVE",
"593 230 CURVE SMOOTH",
"610 230 OFFCURVE",
"620 207 OFFCURVE",
"620 192 CURVE SMOOTH",
"620 164 OFFCURVE",
"529 109 OFFCURVE",
"529 86 CURVE SMOOTH",
"529 56 OFFCURVE",
"600 -50 OFFCURVE",
"642 -50 CURVE SMOOTH",
"681 -50 OFFCURVE",
"733 13 OFFCURVE",
"733 42 CURVE SMOOTH",
"733 47 OFFCURVE",
"732 58 OFFCURVE",
"726 58 CURVE SMOOTH",
"722 58 OFFCURVE",
"710 46 OFFCURVE",
"705 46 CURVE SMOOTH",
"696 46 OFFCURVE",
"670 60 OFFCURVE",
"663 71 CURVE"
);
},
{
closed = 1;
nodes = (
"185 370 OFFCURVE",
"115 235 OFFCURVE",
"115 137 CURVE SMOOTH",
"115 41 OFFCURVE",
"171 -18 OFFCURVE",
"267 -18 CURVE SMOOTH",
"382 -18 OFFCURVE",
"493 78 OFFCURVE",
"493 200 CURVE SMOOTH",
"493 305 OFFCURVE",
"421 370 OFFCURVE",
"324 370 CURVE SMOOTH"
);
}
);
width = 788;
},
{
background = {
paths = (
{
closed = 1;
nodes = (
"665 83 OFFCURVE",
"763 134 OFFCURVE",
"763 184 CURVE SMOOTH",
"763 205 OFFCURVE",
"752 237 OFFCURVE",
"716 257 CURVE",
"745 276 OFFCURVE",
"766 302 OFFCURVE",
"766 350 CURVE SMOOTH",
"766 513 OFFCURVE",
"589 617 OFFCURVE",
"410 617 CURVE SMOOTH",
"221 617 OFFCURVE",
"50 505 OFFCURVE",
"50 368 CURVE SMOOTH",
"50 295 OFFCURVE",
"132 231 OFFCURVE",
"168 231 CURVE",
"228 321 LINE",
"190 321 OFFCURVE",
"169 342 OFFCURVE",
"169 377 CURVE SMOOTH",
"169 450 OFFCURVE",
"268 526 OFFCURVE",
"399 526 CURVE SMOOTH",
"532 526 OFFCURVE",
"651 442 OFFCURVE",
"649 339 CURVE SMOOTH",
"648 283 OFFCURVE",
"566 267 OFFCURVE",
"566 240 CURVE SMOOTH",
"566 236 OFFCURVE",
"565 229 OFFCURVE",
"572 228 CURVE SMOOTH",
"577 227 OFFCURVE",
"600 237 OFFCURVE",
"616 236 CURVE SMOOTH",
"638 235 OFFCURVE",
"650 210 OFFCURVE",
"650 192 CURVE SMOOTH",
"650 165 OFFCURVE",
"563 100 OFFCURVE",
"563 86 CURVE SMOOTH",
"563 64 OFFCURVE",
"626 -41 OFFCURVE",
"665 -41 CURVE SMOOTH",
"697 -41 OFFCURVE",
"745 15 OFFCURVE",
"745 37 CURVE SMOOTH",
"745 40 OFFCURVE",
"744 42 OFFCURVE",
"742 42 CURVE SMOOTH",
"738 42 OFFCURVE",
"730 33 OFFCURVE",
"719 33 CURVE SMOOTH",
"710 33 OFFCURVE",
"672 58 OFFCURVE",
"665 71 CURVE"
);
},
{
closed = 1;
nodes = (
"185 342 OFFCURVE",
"122 222 OFFCURVE",
"122 135 CURVE SMOOTH",
"122 49 OFFCURVE",
"172 -4 OFFCURVE",
"258 -4 CURVE SMOOTH",
"360 -4 OFFCURVE",
"459 82 OFFCURVE",
"459 190 CURVE SMOOTH",
"459 286 OFFCURVE",
"394 342 OFFCURVE",
"309 342 CURVE SMOOTH"
);
},
{
closed = 1;
nodes = (
"340 254 OFFCURVE",
"357 195 OFFCURVE",
"357 155 CURVE SMOOTH",
"357 105 OFFCURVE",
"312 78 OFFCURVE",
"274 78 CURVE SMOOTH",
"229 78 OFFCURVE",
"213 139 OFFCURVE",
"213 178 CURVE SMOOTH",
"213 227 OFFCURVE",
"256 254 OFFCURVE",
"295 254 CURVE SMOOTH"
);
},
{
closed = 1;
nodes = (
"635 83 OFFCURVE",
"733 134 OFFCURVE",
"733 184 CURVE SMOOTH",
"733 205 OFFCURVE",
"722 237 OFFCURVE",
"686 257 CURVE",
"715 276 OFFCURVE",
"746 310 OFFCURVE",
"746 367 CURVE SMOOTH",
"746 513 OFFCURVE",
"589 617 OFFCURVE",
"410 617 CURVE SMOOTH",
"221 617 OFFCURVE",
"50 505 OFFCURVE",
"50 368 CURVE SMOOTH",
"50 295 OFFCURVE",
"132 231 OFFCURVE",
"168 231 CURVE",
"228 321 LINE",
"190 321 OFFCURVE",
"169 342 OFFCURVE",
"169 377 CURVE SMOOTH",
"169 450 OFFCURVE",
"268 526 OFFCURVE",
"399 526 CURVE SMOOTH",
"532 526 OFFCURVE",
"633 442 OFFCURVE",
"631 348 CURVE SMOOTH",
"630 283 OFFCURVE",
"536 267 OFFCURVE",
"536 240 CURVE SMOOTH",
"536 236 OFFCURVE",
"535 229 OFFCURVE",
"542 228 CURVE SMOOTH",
"547 227 OFFCURVE",
"570 237 OFFCURVE",
"586 236 CURVE SMOOTH",
"608 235 OFFCURVE",
"620 210 OFFCURVE",
"620 192 CURVE SMOOTH",
"620 165 OFFCURVE",
"533 100 OFFCURVE",
"533 86 CURVE SMOOTH",
"533 64 OFFCURVE",
"596 -41 OFFCURVE",
"635 -41 CURVE SMOOTH",
"667 -41 OFFCURVE",
"712 13 OFFCURVE",
"712 35 CURVE SMOOTH",
"712 40 OFFCURVE",
"711 43 OFFCURVE",
"708 43 CURVE SMOOTH",
"704 43 OFFCURVE",
"694 33 OFFCURVE",
"689 33 CURVE SMOOTH",
"680 33 OFFCURVE",
"642 60 OFFCURVE",
"635 71 CURVE"
);
}
);
};
layerId = "9F2BC935-6AE7-4E60-84C9-D3B586669EA4";
paths = (
{
closed = 1;
nodes = (
"187 356 OFFCURVE",
"122 231 OFFCURVE",
"122 140 CURVE SMOOTH",
"122 51 OFFCURVE",
"174 -4 OFFCURVE",
"263 -4 CURVE SMOOTH",
"369 -4 OFFCURVE",
"472 85 OFFCURVE",
"472 198 CURVE SMOOTH",
"472 296 OFFCURVE",
"405 356 OFFCURVE",
"316 356 CURVE SMOOTH"
);
},
{
closed = 1;
nodes = (
"347 264 OFFCURVE",
"366 203 OFFCURVE",
"366 161 CURVE SMOOTH",
"366 109 OFFCURVE",
"320 81 OFFCURVE",
"280 81 CURVE SMOOTH",
"233 81 OFFCURVE",
"217 145 OFFCURVE",
"217 185 CURVE SMOOTH",
"217 236 OFFCURVE",
"261 264 OFFCURVE",
"302 264 CURVE SMOOTH"
);
},
{
closed = 1;
nodes = (
"639 76 OFFCURVE",
"733 138 OFFCURVE",
"733 184 CURVE SMOOTH",
"733 205 OFFCURVE",
"722 237 OFFCURVE",
"686 257 CURVE",
"715 276 OFFCURVE",
"746 312 OFFCURVE",
"746 363 CURVE SMOOTH",
"746 515 OFFCURVE",
"589 617 OFFCURVE",
"410 617 CURVE SMOOTH",
"221 617 OFFCURVE",
"50 505 OFFCURVE",
"50 371 CURVE SMOOTH",
"50 288 OFFCURVE",
"131 234 OFFCURVE",
"166 234 CURVE",
"228 321 LINE",
"190 321 OFFCURVE",
"169 346 OFFCURVE",
"169 377 CURVE SMOOTH",
"169 450 OFFCURVE",
"268 526 OFFCURVE",
"399 526 CURVE SMOOTH",
"530 526 OFFCURVE",
"631 446 OFFCURVE",
"631 348 CURVE SMOOTH",
"631 285 OFFCURVE",
"536 267 OFFCURVE",
"536 239 CURVE SMOOTH",
"536 233 OFFCURVE",
"540 228 OFFCURVE",
"546 228 CURVE SMOOTH",
"554 228 OFFCURVE",
"572 236 OFFCURVE",
"586 236 CURVE SMOOTH",
"609 236 OFFCURVE",
"620 210 OFFCURVE",
"620 192 CURVE SMOOTH",
"620 159 OFFCURVE",
"533 103 OFFCURVE",
"533 86 CURVE SMOOTH",
"533 64 OFFCURVE",
"596 -41 OFFCURVE",
"635 -41 CURVE SMOOTH",
"667 -41 OFFCURVE",
"712 13 OFFCURVE",
"712 35 CURVE SMOOTH",
"712 40 OFFCURVE",
"711 43 OFFCURVE",
"708 43 CURVE SMOOTH",
"704 43 OFFCURVE",
"694 33 OFFCURVE",
"689 33 CURVE SMOOTH",
"680 33 OFFCURVE",
"642 60 OFFCURVE",
"635 71 CURVE"
);
}
);
width = 786;
}
);
unicode = 0B0B;
},
{
glyphname = "rrVocalic-oriya";
lastChange = "2021-11-01 08:45:09 +0000";
layers = (
{
background = {
paths = (
{
closed = 1;
nodes = (
"201 617 OFFCURVE",
"40 505 OFFCURVE",
"40 368 CURVE SMOOTH",
"40 295 OFFCURVE",
"121 234 OFFCURVE",
"156 234 CURVE",
"218 321 LINE",
"180 321 OFFCURVE",
"159 346 OFFCURVE",
"159 377 CURVE SMOOTH",
"159 450 OFFCURVE",
"258 526 OFFCURVE",
"389 526 CURVE SMOOTH",
"512 526 OFFCURVE",
"620 442 OFFCURVE",
"620 352 CURVE SMOOTH",
"620 296 OFFCURVE",
"554 280 OFFCURVE",
"554 252 CURVE SMOOTH",
"554 247 OFFCURVE",
"556 245 OFFCURVE",
"560 245 CURVE SMOOTH",
"566 245 OFFCURVE",
"577 252 OFFCURVE",
"593 252 CURVE SMOOTH",
"605 252 OFFCURVE",
"620 230 OFFCURVE",
"620 219 CURVE SMOOTH",
"620 207 OFFCURVE",
"543 192 OFFCURVE",
"543 158 CURVE SMOOTH",
"543 153 OFFCURVE",
"545 151 OFFCURVE",
"548 151 CURVE SMOOTH",
"554 151 OFFCURVE",
"570 159 OFFCURVE",
"579 159 CURVE SMOOTH",
"593 159 OFFCURVE",
"603 142 OFFCURVE",
"603 135 CURVE SMOOTH",
"603 125 OFFCURVE",
"543 98 OFFCURVE",
"543 86 CURVE SMOOTH",
"543 64 OFFCURVE",
"606 -41 OFFCURVE",
"645 -41 CURVE SMOOTH",
"667 -41 OFFCURVE",
"722 5 OFFCURVE",
"722 35 CURVE SMOOTH",
"722 40 OFFCURVE",
"721 43 OFFCURVE",
"718 43 CURVE SMOOTH",
"714 43 OFFCURVE",
"704 33 OFFCURVE",
"699 33 CURVE SMOOTH",
"690 33 OFFCURVE",
"652 60 OFFCURVE",
"645 71 CURVE",
"650 75 OFFCURVE",
"709 102 OFFCURVE",
"709 131 CURVE SMOOTH",
"709 147 OFFCURVE",
"690 163 OFFCURVE",
"677 167 CURVE",
"701 174 OFFCURVE",
"728 196 OFFCURVE",
"728 225 CURVE SMOOTH",
"728 238 OFFCURVE",
"718 259 OFFCURVE",
"690 274 CURVE",
"698 280 OFFCURVE",
"736 317 OFFCURVE",
"736 361 CURVE SMOOTH",
"736 513 OFFCURVE",
"559 617 OFFCURVE",
"390 617 CURVE SMOOTH"
);
},
{
closed = 1;
nodes = (
"177 356 OFFCURVE",
"112 231 OFFCURVE",
"112 140 CURVE SMOOTH",
"112 51 OFFCURVE",
"164 -4 OFFCURVE",
"253 -4 CURVE SMOOTH",
"359 -4 OFFCURVE",
"462 85 OFFCURVE",
"462 198 CURVE SMOOTH",
"462 297 OFFCURVE",
"395 356 OFFCURVE",
"306 356 CURVE SMOOTH"
);
},
{
closed = 1;
nodes = (
"338 264 OFFCURVE",
"356 203 OFFCURVE",
"356 161 CURVE SMOOTH",
"356 109 OFFCURVE",
"310 81 OFFCURVE",
"270 81 CURVE SMOOTH",
"223 81 OFFCURVE",
"207 145 OFFCURVE",
"207 185 CURVE SMOOTH",
"207 236 OFFCURVE",
"251 264 OFFCURVE",
"292 264 CURVE SMOOTH"
);
}
);
};
layerId = "555B79C6-6D98-46E7-9307-77C37975E414";
paths = (
{
closed = 1;
nodes = (
"191 627 OFFCURVE",
"40 506 OFFCURVE",
"40 368 CURVE SMOOTH",
"40 271 OFFCURVE",
"140 218 OFFCURVE",
"175 218 CURVE",
"237 331 LINE",
"207 331 OFFCURVE",
"193 356 OFFCURVE",
"193 377 CURVE SMOOTH",
"193 434 OFFCURVE",
"255 506 OFFCURVE",
"389 506 CURVE SMOOTH",
"510 506 OFFCURVE",
"607 438 OFFCURVE",
"607 352 CURVE SMOOTH",
"607 298 OFFCURVE",
"541 283 OFFCURVE",
"541 250 CURVE SMOOTH",
"541 242 OFFCURVE",
"546 239 OFFCURVE",
"551 239 CURVE SMOOTH",
"559 239 OFFCURVE",
"568 246 OFFCURVE",
"581 246 CURVE SMOOTH",
"593 246 OFFCURVE",
"607 230 OFFCURVE",
"607 219 CURVE SMOOTH",
"607 207 OFFCURVE",
"532 192 OFFCURVE",
"532 158 CURVE SMOOTH",
"532 150 OFFCURVE",
"536 146 OFFCURVE",
"541 146 CURVE SMOOTH",
"547 146 OFFCURVE",
"563 154 OFFCURVE",
"572 154 CURVE SMOOTH",
"582 154 OFFCURVE",
"592 142 OFFCURVE",
"592 135 CURVE SMOOTH",
"592 125 OFFCURVE",
"533 99 OFFCURVE",
"533 87 CURVE SMOOTH",
"533 57 OFFCURVE",
"600 -50 OFFCURVE",
"642 -50 CURVE SMOOTH",
"681 -50 OFFCURVE",
"735 12 OFFCURVE",
"735 42 CURVE SMOOTH",
"735 47 OFFCURVE",
"734 58 OFFCURVE",
"728 58 CURVE SMOOTH",
"724 58 OFFCURVE",
"709 44 OFFCURVE",
"704 44 CURVE SMOOTH",
"695 44 OFFCURVE",
"667 60 OFFCURVE",
"660 71 CURVE",
"671 76 OFFCURVE",
"724 100 OFFCURVE",
"724 131 CURVE SMOOTH",
"724 149 OFFCURVE",
"705 163 OFFCURVE",
"692 167 CURVE",
"716 174 OFFCURVE",
"743 196 OFFCURVE",
"743 225 CURVE SMOOTH",
"743 238 OFFCURVE",
"733 259 OFFCURVE",
"705 274 CURVE",
"713 280 OFFCURVE",
"751 317 OFFCURVE",
"751 361 CURVE SMOOTH",
"751 513 OFFCURVE",
"573 627 OFFCURVE",
"390 627 CURVE SMOOTH"
);
},
{
closed = 1;
nodes = (
"329 251 OFFCURVE",
"346 199 OFFCURVE",
"346 163 CURVE SMOOTH",
"346 118 OFFCURVE",
"306 94 OFFCURVE",
"272 94 CURVE SMOOTH",
"231 94 OFFCURVE",
"217 149 OFFCURVE",
"217 183 CURVE SMOOTH",
"217 227 OFFCURVE",
"255 251 OFFCURVE",
"291 251 CURVE SMOOTH"
);
},
{
closed = 1;
nodes = (
"168 370 OFFCURVE",
"98 235 OFFCURVE",
"98 137 CURVE SMOOTH",
"98 41 OFFCURVE",
"154 -18 OFFCURVE",
"250 -18 CURVE SMOOTH",
"365 -18 OFFCURVE",
"476 78 OFFCURVE",
"476 200 CURVE SMOOTH",
"476 305 OFFCURVE",
"404 370 OFFCURVE",
"307 370 CURVE SMOOTH"
);
}
);
width = 771;
},
{
background = {
paths = (
{
closed = 1;
nodes = (
"175 342 OFFCURVE",
"112 222 OFFCURVE",
"112 135 CURVE SMOOTH",
"112 49 OFFCURVE",
"162 -4 OFFCURVE",
"248 -4 CURVE SMOOTH",
"350 -4 OFFCURVE",
"449 82 OFFCURVE",
"449 190 CURVE SMOOTH",
"449 286 OFFCURVE",
"384 342 OFFCURVE",
"299 342 CURVE SMOOTH"
);
},
{
closed = 1;
nodes = (
"329 254 OFFCURVE",
"347 195 OFFCURVE",
"347 155 CURVE SMOOTH",
"347 105 OFFCURVE",
"302 78 OFFCURVE",
"264 78 CURVE SMOOTH",
"219 78 OFFCURVE",
"203 139 OFFCURVE",
"203 178 CURVE SMOOTH",
"203 227 OFFCURVE",
"246 254 OFFCURVE",
"285 254 CURVE SMOOTH"
);
},
{
closed = 1;
nodes = (
"675 79 OFFCURVE",
"739 102 OFFCURVE",
"739 131 CURVE SMOOTH",
"739 147 OFFCURVE",
"720 163 OFFCURVE",
"707 167 CURVE",
"731 174 OFFCURVE",
"758 193 OFFCURVE",
"758 220 CURVE SMOOTH",
"758 235 OFFCURVE",
"742 263 OFFCURVE",
"720 274 CURVE",
"728 280 OFFCURVE",
"756 317 OFFCURVE",
"756 361 CURVE SMOOTH",
"756 513 OFFCURVE",
"579 617 OFFCURVE",
"400 617 CURVE SMOOTH",
"211 617 OFFCURVE",
"40 505 OFFCURVE",
"40 368 CURVE SMOOTH",
"40 295 OFFCURVE",
"122 231 OFFCURVE",
"158 231 CURVE",
"218 321 LINE",
"180 321 OFFCURVE",
"159 342 OFFCURVE",
"159 377 CURVE SMOOTH",
"159 450 OFFCURVE",
"258 526 OFFCURVE",
"389 526 CURVE SMOOTH",
"522 526 OFFCURVE",
"640 442 OFFCURVE",
"640 344 CURVE SMOOTH",
"640 296 OFFCURVE",
"584 280 OFFCURVE",
"584 253 CURVE SMOOTH",
"584 247 OFFCURVE",
"585 245 OFFCURVE",
"589 245 CURVE SMOOTH",
"596 245 OFFCURVE",
"607 252 OFFCURVE",
"623 252 CURVE SMOOTH",
"635 252 OFFCURVE",
"650 230 OFFCURVE",
"650 219 CURVE SMOOTH",
"650 206 OFFCURVE",
"581 196 OFFCURVE",
"573 162 CURVE SMOOTH",
"571 154 OFFCURVE",
"575 151 OFFCURVE",
"578 151 CURVE SMOOTH",
"584 151 OFFCURVE",
"600 159 OFFCURVE",
"609 159 CURVE SMOOTH",
"623 159 OFFCURVE",
"633 142 OFFCURVE",
"633 135 CURVE SMOOTH",
"633 125 OFFCURVE",
"573 98 OFFCURVE",
"573 86 CURVE SMOOTH",
"573 64 OFFCURVE",
"636 -41 OFFCURVE",
"675 -41 CURVE SMOOTH",
"707 -41 OFFCURVE",
"755 15 OFFCURVE",
"755 37 CURVE SMOOTH",
"755 40 OFFCURVE",
"754 42 OFFCURVE",
"752 42 CURVE SMOOTH",
"748 42 OFFCURVE",
"740 33 OFFCURVE",
"729 33 CURVE SMOOTH",
"720 33 OFFCURVE",
"682 58 OFFCURVE",
"675 71 CURVE"
);
},
{
closed = 1;
nodes = (
"211 617 OFFCURVE",
"50 505 OFFCURVE",
"50 368 CURVE SMOOTH",
"50 295 OFFCURVE",
"131 234 OFFCURVE",
"166 234 CURVE",
"228 321 LINE",
"190 321 OFFCURVE",
"169 346 OFFCURVE",
"169 377 CURVE SMOOTH",
"169 450 OFFCURVE",
"268 526 OFFCURVE",
"399 526 CURVE SMOOTH",
"522 526 OFFCURVE",
"630 442 OFFCURVE",
"630 352 CURVE SMOOTH",
"630 296 OFFCURVE",
"564 280 OFFCURVE",
"564 253 CURVE SMOOTH",
"564 247 OFFCURVE",
"565 245 OFFCURVE",
"569 245 CURVE SMOOTH",
"576 245 OFFCURVE",
"587 252 OFFCURVE",
"603 252 CURVE SMOOTH",
"615 252 OFFCURVE",
"630 230 OFFCURVE",
"630 219 CURVE SMOOTH",
"630 206 OFFCURVE",
"561 196 OFFCURVE",
"553 162 CURVE SMOOTH",
"551 154 OFFCURVE",
"555 151 OFFCURVE",
"558 151 CURVE SMOOTH",
"564 151 OFFCURVE",
"580 159 OFFCURVE",
"589 159 CURVE SMOOTH",
"603 159 OFFCURVE",
"613 142 OFFCURVE",
"613 135 CURVE SMOOTH",
"613 125 OFFCURVE",
"553 98 OFFCURVE",
"553 86 CURVE SMOOTH",
"553 64 OFFCURVE",
"616 -41 OFFCURVE",
"655 -41 CURVE SMOOTH",
"677 -41 OFFCURVE",
"732 5 OFFCURVE",
"732 35 CURVE SMOOTH",
"732 40 OFFCURVE",
"731 43 OFFCURVE",
"728 43 CURVE SMOOTH",
"724 43 OFFCURVE",
"714 33 OFFCURVE",
"709 33 CURVE SMOOTH",
"700 33 OFFCURVE",
"662 60 OFFCURVE",
"655 71 CURVE",
"655 79 OFFCURVE",
"719 102 OFFCURVE",
"719 131 CURVE SMOOTH",
"719 147 OFFCURVE",
"700 163 OFFCURVE",
"687 167 CURVE",
"711 174 OFFCURVE",
"738 193 OFFCURVE",
"738 220 CURVE SMOOTH",
"738 235 OFFCURVE",
"722 263 OFFCURVE",
"700 274 CURVE",
"708 280 OFFCURVE",
"746 317 OFFCURVE",
"746 361 CURVE SMOOTH",
"746 513 OFFCURVE",
"569 617 OFFCURVE",
"400 617 CURVE SMOOTH"
);
},
{
closed = 1;
nodes = (
"187 356 OFFCURVE",
"122 231 OFFCURVE",
"122 140 CURVE SMOOTH",
"122 51 OFFCURVE",
"174 -4 OFFCURVE",
"263 -4 CURVE SMOOTH",
"369 -4 OFFCURVE",
"472 85 OFFCURVE",
"472 198 CURVE SMOOTH",
"472 297 OFFCURVE",
"405 356 OFFCURVE",
"316 356 CURVE SMOOTH"
);
},
{
closed = 1;
nodes = (
"348 264 OFFCURVE",
"366 203 OFFCURVE",
"366 161 CURVE SMOOTH",
"366 109 OFFCURVE",
"320 81 OFFCURVE",
"280 81 CURVE SMOOTH",
"233 81 OFFCURVE",
"217 145 OFFCURVE",
"217 185 CURVE SMOOTH",
"217 236 OFFCURVE",
"261 264 OFFCURVE",
"302 264 CURVE SMOOTH"
);
}
);
};
layerId = "9F2BC935-6AE7-4E60-84C9-D3B586669EA4";
paths = (
{
closed = 1;
nodes = (
"211 617 OFFCURVE",
"50 505 OFFCURVE",
"50 368 CURVE SMOOTH",
"50 295 OFFCURVE",
"131 234 OFFCURVE",
"166 234 CURVE",
"228 321 LINE",
"190 321 OFFCURVE",
"169 346 OFFCURVE",
"169 377 CURVE SMOOTH",
"169 450 OFFCURVE",
"268 526 OFFCURVE",
"399 526 CURVE SMOOTH",
"522 526 OFFCURVE",
"630 442 OFFCURVE",
"630 352 CURVE SMOOTH",
"630 296 OFFCURVE",
"564 280 OFFCURVE",
"564 252 CURVE SMOOTH",
"564 247 OFFCURVE",
"566 245 OFFCURVE",
"570 245 CURVE SMOOTH",
"576 245 OFFCURVE",
"587 252 OFFCURVE",
"603 252 CURVE SMOOTH",
"615 252 OFFCURVE",
"630 230 OFFCURVE",
"630 219 CURVE SMOOTH",
"630 207 OFFCURVE",
"553 192 OFFCURVE",
"553 158 CURVE SMOOTH",
"553 153 OFFCURVE",
"555 151 OFFCURVE",
"558 151 CURVE SMOOTH",
"564 151 OFFCURVE",
"580 159 OFFCURVE",
"589 159 CURVE SMOOTH",
"603 159 OFFCURVE",
"613 142 OFFCURVE",
"613 135 CURVE SMOOTH",
"613 125 OFFCURVE",
"553 98 OFFCURVE",
"553 86 CURVE SMOOTH",
"553 64 OFFCURVE",
"616 -41 OFFCURVE",
"655 -41 CURVE SMOOTH",
"677 -41 OFFCURVE",
"732 5 OFFCURVE",
"732 35 CURVE SMOOTH",
"732 40 OFFCURVE",
"731 43 OFFCURVE",
"728 43 CURVE SMOOTH",
"724 43 OFFCURVE",
"714 33 OFFCURVE",
"709 33 CURVE SMOOTH",
"700 33 OFFCURVE",
"662 60 OFFCURVE",
"655 71 CURVE",
"660 75 OFFCURVE",
"719 102 OFFCURVE",
"719 131 CURVE SMOOTH",
"719 147 OFFCURVE",
"700 163 OFFCURVE",
"687 167 CURVE",
"711 174 OFFCURVE",
"738 196 OFFCURVE",
"738 225 CURVE SMOOTH",
"738 238 OFFCURVE",
"728 259 OFFCURVE",
"700 274 CURVE",
"708 280 OFFCURVE",
"746 317 OFFCURVE",
"746 361 CURVE SMOOTH",
"746 513 OFFCURVE",
"569 617 OFFCURVE",
"400 617 CURVE SMOOTH"
);
},
{
closed = 1;
nodes = (
"187 356 OFFCURVE",
"122 231 OFFCURVE",
"122 140 CURVE SMOOTH",
"122 51 OFFCURVE",
"174 -4 OFFCURVE",
"263 -4 CURVE SMOOTH",
"369 -4 OFFCURVE",
"472 85 OFFCURVE",
"472 198 CURVE SMOOTH",
"472 297 OFFCURVE",
"405 356 OFFCURVE",
"316 356 CURVE SMOOTH"
);
},
{
closed = 1;
nodes = (
"348 264 OFFCURVE",
"366 203 OFFCURVE",
"366 161 CURVE SMOOTH",
"366 109 OFFCURVE",
"320 81 OFFCURVE",
"280 81 CURVE SMOOTH",
"233 81 OFFCURVE",
"217 145 OFFCURVE",
"217 185 CURVE SMOOTH",
"217 236 OFFCURVE",
"261 264 OFFCURVE",
"302 264 CURVE SMOOTH"
);
}
);
width = 786;
}
);
unicode = 0B60;
},
{
glyphname = "lVocalic-oriya";
lastChange = "2021-11-01 08:53:38 +0000";
layers = (
{
background = {
paths = (
{
closed = 1;
nodes = (
"399 112 OFFCURVE",
"350 140 OFFCURVE",
"350 198 CURVE SMOOTH",
"350 254 OFFCURVE",
"398 292 OFFCURVE",
"467 292 CURVE SMOOTH",
"551 292 OFFCURVE",
"606 246 OFFCURVE",
"606 179 CURVE SMOOTH",
"606 61 OFFCURVE",
"457 -11 OFFCURVE",
"287 -11 CURVE SMOOTH",
"111 -11 OFFCURVE",
"55 56 OFFCURVE",
"55 135 CURVE SMOOTH",
"55 301 OFFCURVE",
"428 382 OFFCURVE",
"428 470 CURVE SMOOTH",
"428 512 OFFCURVE",
"395 528 OFFCURVE",
"333 528 CURVE SMOOTH",
"286 528 OFFCURVE",
"267 514 OFFCURVE",
"267 491 CURVE SMOOTH",
"267 470 OFFCURVE",
"289 459 OFFCURVE",
"304 459 CURVE SMOOTH",
"311 459 OFFCURVE",
"322 474 OFFCURVE",
"328 474 CURVE SMOOTH",
"331 474 OFFCURVE",
"333 472 OFFCURVE",
"333 467 CURVE SMOOTH",
"333 431 OFFCURVE",
"297 372 OFFCURVE",
"267 372 CURVE SMOOTH",
"235 372 OFFCURVE",
"163 420 OFFCURVE",
"163 487 CURVE SMOOTH",
"163 563 OFFCURVE",
"247 619 OFFCURVE",
"341 619 CURVE SMOOTH",
"466 619 OFFCURVE",
"529 555 OFFCURVE",
"529 475 CURVE SMOOTH",
"529 301 OFFCURVE",
"174 240 OFFCURVE",
"174 141 CURVE SMOOTH",
"174 101 OFFCURVE",
"223 80 OFFCURVE",
"294 80 CURVE SMOOTH",
"389 80 OFFCURVE",
"502 109 OFFCURVE",
"502 174 CURVE SMOOTH",
"502 204 OFFCURVE",
"486 219 OFFCURVE",
"462 219 CURVE SMOOTH",
"439 219 OFFCURVE",
"435 200 OFFCURVE",
"435 169 CURVE SMOOTH",
"435 137 OFFCURVE",
"439 112 OFFCURVE",
"417 112 CURVE SMOOTH"
);
}
);
};
layerId = "555B79C6-6D98-46E7-9307-77C37975E414";
paths = (
{
closed = 1;
nodes = (
"393 112 OFFCURVE",
"335 140 OFFCURVE",
"335 198 CURVE SMOOTH",
"335 254 OFFCURVE",
"388 302 OFFCURVE",
"467 302 CURVE SMOOTH",
"563 302 OFFCURVE",
"616 246 OFFCURVE",
"616 179 CURVE SMOOTH",
"616 61 OFFCURVE",
"472 -21 OFFCURVE",
"287 -21 CURVE SMOOTH",
"106 -21 OFFCURVE",
"40 56 OFFCURVE",
"40 135 CURVE SMOOTH",
"40 306 OFFCURVE",
"413 382 OFFCURVE",
"413 470 CURVE SMOOTH",
"413 504 OFFCURVE",
"388 515 OFFCURVE",
"333 515 CURVE SMOOTH",
"295 515 OFFCURVE",
"280 505 OFFCURVE",
"280 491 CURVE SMOOTH",
"280 480 OFFCURVE",
"294 469 OFFCURVE",
"304 469 CURVE SMOOTH",
"311 469 OFFCURVE",
"324 484 OFFCURVE",
"329 484 CURVE SMOOTH",
"335 484 OFFCURVE",
"338 474 OFFCURVE",
"338 464 CURVE SMOOTH",
"338 430 OFFCURVE",
"305 367 OFFCURVE",
"267 367 CURVE SMOOTH",
"230 367 OFFCURVE",
"153 410 OFFCURVE",
"153 487 CURVE SMOOTH",
"153 573 OFFCURVE",
"247 629 OFFCURVE",
"341 629 CURVE SMOOTH",
"476 629 OFFCURVE",
"539 555 OFFCURVE",
"539 475 CURVE SMOOTH",
"539 301 OFFCURVE",
"184 240 OFFCURVE",
"184 141 CURVE SMOOTH",
"184 110 OFFCURVE",
"223 90 OFFCURVE",
"294 90 CURVE SMOOTH",
"389 90 OFFCURVE",
"492 113 OFFCURVE",
"492 174 CURVE SMOOTH",
"492 198 OFFCURVE",
"476 209 OFFCURVE",
"464 209 CURVE SMOOTH",
"447 209 OFFCURVE",
"445 195 OFFCURVE",
"445 169 CURVE SMOOTH",
"445 137 OFFCURVE",
"442 112 OFFCURVE",
"417 112 CURVE SMOOTH"
);
}
);
width = 636;
},
{
background = {
paths = (
{
closed = 1;
nodes = (
"402 107 OFFCURVE",
"345 138 OFFCURVE",
"345 198 CURVE SMOOTH",
"345 254 OFFCURVE",
"393 292 OFFCURVE",
"462 292 CURVE SMOOTH",
"546 292 OFFCURVE",
"601 246 OFFCURVE",
"601 179 CURVE SMOOTH",
"601 61 OFFCURVE",
"452 -11 OFFCURVE",
"282 -11 CURVE SMOOTH",
"106 -11 OFFCURVE",
"50 56 OFFCURVE",
"50 135 CURVE SMOOTH",
"50 301 OFFCURVE",
"423 382 OFFCURVE",
"423 470 CURVE SMOOTH",
"423 512 OFFCURVE",
"390 528 OFFCURVE",
"328 528 CURVE SMOOTH",
"281 528 OFFCURVE",
"262 514 OFFCURVE",
"262 491 CURVE SMOOTH",
"262 470 OFFCURVE",
"284 459 OFFCURVE",
"299 459 CURVE SMOOTH",
"309 459 OFFCURVE",
"317 474 OFFCURVE",
"323 474 CURVE SMOOTH",
"326 474 OFFCURVE",
"327 471 OFFCURVE",
"327 468 CURVE SMOOTH",
"327 431 OFFCURVE",
"292 372 OFFCURVE",
"262 372 CURVE SMOOTH",
"230 372 OFFCURVE",
"158 420 OFFCURVE",
"158 487 CURVE SMOOTH",
"158 563 OFFCURVE",
"242 619 OFFCURVE",
"336 619 CURVE SMOOTH",
"461 619 OFFCURVE",
"524 555 OFFCURVE",
"524 475 CURVE SMOOTH",
"524 301 OFFCURVE",
"169 240 OFFCURVE",
"169 141 CURVE SMOOTH",
"169 101 OFFCURVE",
"218 80 OFFCURVE",
"289 80 CURVE SMOOTH",
"384 80 OFFCURVE",
"497 109 OFFCURVE",
"497 174 CURVE SMOOTH",
"497 204 OFFCURVE",
"481 219 OFFCURVE",
"457 219 CURVE SMOOTH",
"434 219 OFFCURVE",
"430 200 OFFCURVE",
"430 169 CURVE SMOOTH",
"430 137 OFFCURVE",
"442 107 OFFCURVE",
"420 107 CURVE SMOOTH"
);
}
);
};
layerId = "9F2BC935-6AE7-4E60-84C9-D3B586669EA4";
paths = (
{
closed = 1;
nodes = (
"394 112 OFFCURVE",
"345 140 OFFCURVE",
"345 198 CURVE SMOOTH",
"345 254 OFFCURVE",
"393 292 OFFCURVE",
"462 292 CURVE SMOOTH",
"546 292 OFFCURVE",
"601 246 OFFCURVE",
"601 179 CURVE SMOOTH",
"601 61 OFFCURVE",
"452 -11 OFFCURVE",
"282 -11 CURVE SMOOTH",
"106 -11 OFFCURVE",
"50 56 OFFCURVE",
"50 135 CURVE SMOOTH",
"50 301 OFFCURVE",
"423 382 OFFCURVE",
"423 470 CURVE SMOOTH",
"423 512 OFFCURVE",
"390 528 OFFCURVE",
"328 528 CURVE SMOOTH",
"281 528 OFFCURVE",
"262 514 OFFCURVE",
"262 491 CURVE SMOOTH",
"262 470 OFFCURVE",
"284 459 OFFCURVE",
"299 459 CURVE SMOOTH",
"306 459 OFFCURVE",
"317 474 OFFCURVE",
"323 474 CURVE SMOOTH",
"326 474 OFFCURVE",
"328 472 OFFCURVE",
"328 467 CURVE SMOOTH",
"328 431 OFFCURVE",
"292 372 OFFCURVE",
"262 372 CURVE SMOOTH",
"230 372 OFFCURVE",
"158 420 OFFCURVE",
"158 487 CURVE SMOOTH",
"158 563 OFFCURVE",
"242 619 OFFCURVE",
"336 619 CURVE SMOOTH",
"461 619 OFFCURVE",
"524 555 OFFCURVE",
"524 475 CURVE SMOOTH",
"524 301 OFFCURVE",
"169 240 OFFCURVE",
"169 141 CURVE SMOOTH",
"169 101 OFFCURVE",
"218 80 OFFCURVE",
"289 80 CURVE SMOOTH",
"384 80 OFFCURVE",
"497 109 OFFCURVE",
"497 174 CURVE SMOOTH",
"497 204 OFFCURVE",
"481 219 OFFCURVE",
"457 219 CURVE SMOOTH",
"434 219 OFFCURVE",
"430 200 OFFCURVE",
"430 169 CURVE SMOOTH",
"430 137 OFFCURVE",
"434 112 OFFCURVE",
"412 112 CURVE SMOOTH"
);
}
);
width = 641;
}
);
unicode = 0B0C;
},
{
glyphname = "llVocalic-oriya";
lastChange = "2021-11-01 09:12:42 +0000";
layers = (
{
background = {
paths = (
{
closed = 1;
nodes = (
"340 67 OFFCURVE",
"453 -64 OFFCURVE",
"500 -64 CURVE SMOOTH",
"532 -64 OFFCURVE",
"577 -10 OFFCURVE",
"577 12 CURVE SMOOTH",
"577 17 OFFCURVE",
"576 20 OFFCURVE",
"573 20 CURVE SMOOTH",
"569 20 OFFCURVE",
"559 10 OFFCURVE",
"554 10 CURVE SMOOTH",
"532 10 OFFCURVE",
"430 66 OFFCURVE",
"430 170 CURVE SMOOTH",
"430 190 OFFCURVE",
"432 219 OFFCURVE",
"459 219 CURVE SMOOTH",
"482 219 OFFCURVE",
"497 204 OFFCURVE",
"497 174 CURVE SMOOTH",
"497 109 OFFCURVE",
"384 80 OFFCURVE",
"289 80 CURVE SMOOTH",
"218 80 OFFCURVE",
"169 101 OFFCURVE",
"169 141 CURVE SMOOTH",
"169 240 OFFCURVE",
"524 301 OFFCURVE",
"524 475 CURVE SMOOTH",
"524 555 OFFCURVE",
"461 619 OFFCURVE",
"336 619 CURVE SMOOTH",
"242 619 OFFCURVE",
"158 563 OFFCURVE",
"158 487 CURVE SMOOTH",
"158 420 OFFCURVE",
"230 372 OFFCURVE",
"262 372 CURVE SMOOTH",
"292 372 OFFCURVE",
"327 431 OFFCURVE",
"327 468 CURVE SMOOTH",
"327 471 OFFCURVE",
"326 474 OFFCURVE",
"323 474 CURVE SMOOTH",
"317 474 OFFCURVE",
"309 459 OFFCURVE",
"299 459 CURVE SMOOTH",
"284 459 OFFCURVE",
"262 470 OFFCURVE",
"262 491 CURVE SMOOTH",
"262 514 OFFCURVE",
"281 528 OFFCURVE",
"328 528 CURVE SMOOTH",
"390 528 OFFCURVE",
"423 512 OFFCURVE",
"423 470 CURVE SMOOTH",
"423 382 OFFCURVE",
"50 301 OFFCURVE",
"50 135 CURVE SMOOTH",
"50 56 OFFCURVE",
"106 -11 OFFCURVE",
"282 -11 CURVE SMOOTH",
"452 -11 OFFCURVE",
"591 70 OFFCURVE",
"591 179 CURVE SMOOTH",
"591 246 OFFCURVE",
"536 292 OFFCURVE",
"462 292 CURVE SMOOTH",
"393 292 OFFCURVE",
"340 255 OFFCURVE",
"340 175 CURVE SMOOTH"
);
},
{
closed = 1;
nodes = (
"393 112 OFFCURVE",
"335 140 OFFCURVE",
"335 198 CURVE SMOOTH",
"335 254 OFFCURVE",
"388 302 OFFCURVE",
"467 302 CURVE SMOOTH",
"563 302 OFFCURVE",
"616 246 OFFCURVE",
"616 179 CURVE SMOOTH",
"616 61 OFFCURVE",
"472 -21 OFFCURVE",
"287 -21 CURVE SMOOTH",
"106 -21 OFFCURVE",
"40 56 OFFCURVE",
"40 135 CURVE SMOOTH",
"40 306 OFFCURVE",
"413 382 OFFCURVE",
"413 470 CURVE SMOOTH",
"413 504 OFFCURVE",
"388 515 OFFCURVE",
"333 515 CURVE SMOOTH",
"295 515 OFFCURVE",
"280 505 OFFCURVE",
"280 491 CURVE SMOOTH",
"280 480 OFFCURVE",
"294 469 OFFCURVE",
"304 469 CURVE SMOOTH",
"311 469 OFFCURVE",
"324 484 OFFCURVE",
"329 484 CURVE SMOOTH",
"335 484 OFFCURVE",
"338 474 OFFCURVE",
"338 464 CURVE SMOOTH",
"338 430 OFFCURVE",
"305 367 OFFCURVE",
"267 367 CURVE SMOOTH",
"230 367 OFFCURVE",
"153 410 OFFCURVE",
"153 487 CURVE SMOOTH",
"153 573 OFFCURVE",
"247 629 OFFCURVE",
"341 629 CURVE SMOOTH",
"476 629 OFFCURVE",
"539 555 OFFCURVE",
"539 475 CURVE SMOOTH",
"539 301 OFFCURVE",
"184 240 OFFCURVE",
"184 141 CURVE SMOOTH",
"184 110 OFFCURVE",
"223 90 OFFCURVE",
"294 90 CURVE SMOOTH",
"389 90 OFFCURVE",
"492 113 OFFCURVE",
"492 174 CURVE SMOOTH",
"492 198 OFFCURVE",
"476 209 OFFCURVE",
"464 209 CURVE SMOOTH",
"447 209 OFFCURVE",
"445 195 OFFCURVE",
"445 169 CURVE SMOOTH",
"445 137 OFFCURVE",
"442 112 OFFCURVE",
"417 112 CURVE SMOOTH"
);
}
);
};
layerId = "555B79C6-6D98-46E7-9307-77C37975E414";
paths = (
{
closed = 1;
nodes = (
"335 67 OFFCURVE",
"443 -79 OFFCURVE",
"500 -79 CURVE SMOOTH",
"532 -79 OFFCURVE",
"584 -15 OFFCURVE",
"584 12 CURVE SMOOTH",
"584 21 OFFCURVE",
"582 30 OFFCURVE",
"575 30 CURVE SMOOTH",
"569 30 OFFCURVE",
"559 20 OFFCURVE",
"554 20 CURVE SMOOTH",
"532 20 OFFCURVE",
"445 65 OFFCURVE",
"445 169 CURVE SMOOTH",
"445 195 OFFCURVE",
"447 209 OFFCURVE",
"464 209 CURVE SMOOTH",
"476 209 OFFCURVE",
"492 198 OFFCURVE",
"492 174 CURVE SMOOTH",
"492 113 OFFCURVE",
"389 90 OFFCURVE",
"294 90 CURVE SMOOTH",
"223 90 OFFCURVE",
"184 110 OFFCURVE",
"184 141 CURVE SMOOTH",
"184 240 OFFCURVE",
"539 301 OFFCURVE",
"539 475 CURVE SMOOTH",
"539 555 OFFCURVE",
"476 629 OFFCURVE",
"341 629 CURVE SMOOTH",
"247 629 OFFCURVE",
"153 573 OFFCURVE",
"153 487 CURVE SMOOTH",
"153 410 OFFCURVE",
"226 367 OFFCURVE",
"263 367 CURVE SMOOTH",
"301 367 OFFCURVE",
"334 430 OFFCURVE",
"334 464 CURVE SMOOTH",
"334 474 OFFCURVE",
"331 484 OFFCURVE",
"325 484 CURVE SMOOTH",
"320 484 OFFCURVE",
"307 469 OFFCURVE",
"300 469 CURVE SMOOTH",
"290 469 OFFCURVE",
"280 480 OFFCURVE",
"280 491 CURVE SMOOTH",
"280 505 OFFCURVE",
"295 515 OFFCURVE",
"333 515 CURVE SMOOTH",
"388 515 OFFCURVE",
"413 504 OFFCURVE",
"413 470 CURVE SMOOTH",
"413 382 OFFCURVE",
"40 306 OFFCURVE",
"40 135 CURVE SMOOTH",
"40 56 OFFCURVE",
"111 -21 OFFCURVE",
"287 -21 CURVE SMOOTH",
"472 -21 OFFCURVE",
"616 61 OFFCURVE",
"616 179 CURVE SMOOTH",
"616 246 OFFCURVE",
"563 302 OFFCURVE",
"467 302 CURVE SMOOTH",
"388 302 OFFCURVE",
"335 255 OFFCURVE",
"335 175 CURVE SMOOTH"
);
}
);
width = 636;
},
{
background = {
paths = (
{
closed = 1;
nodes = (
"402 12 OFFCURVE",
"465 -93 OFFCURVE",
"504 -93 CURVE SMOOTH",
"536 -93 OFFCURVE",
"584 -37 OFFCURVE",
"584 -15 CURVE SMOOTH",
"584 -12 OFFCURVE",
"583 -10 OFFCURVE",
"581 -10 CURVE SMOOTH",
"577 -10 OFFCURVE",
"569 -19 OFFCURVE",
"558 -19 CURVE SMOOTH",
"550 -19 OFFCURVE",
"512 6 OFFCURVE",
"504 19 CURVE SMOOTH",
"489 34 OFFCURVE",
"430 80 OFFCURVE",
"430 170 CURVE SMOOTH",
"430 190 OFFCURVE",
"434 219 OFFCURVE",
"457 219 CURVE SMOOTH",
"481 219 OFFCURVE",
"497 204 OFFCURVE",
"497 174 CURVE SMOOTH",
"497 109 OFFCURVE",
"384 80 OFFCURVE",
"289 80 CURVE SMOOTH",
"218 80 OFFCURVE",
"169 101 OFFCURVE",
"169 141 CURVE SMOOTH",
"169 240 OFFCURVE",
"524 301 OFFCURVE",
"524 475 CURVE SMOOTH",
"524 555 OFFCURVE",
"461 619 OFFCURVE",
"336 619 CURVE SMOOTH",
"242 619 OFFCURVE",
"158 563 OFFCURVE",
"158 487 CURVE SMOOTH",
"158 420 OFFCURVE",
"230 372 OFFCURVE",
"262 372 CURVE SMOOTH",
"292 372 OFFCURVE",
"327 431 OFFCURVE",
"327 468 CURVE SMOOTH",
"327 471 OFFCURVE",
"326 474 OFFCURVE",
"323 474 CURVE SMOOTH",
"317 474 OFFCURVE",
"309 459 OFFCURVE",
"299 459 CURVE SMOOTH",
"284 459 OFFCURVE",
"262 470 OFFCURVE",
"262 491 CURVE SMOOTH",
"262 514 OFFCURVE",
"281 528 OFFCURVE",
"328 528 CURVE SMOOTH",
"390 528 OFFCURVE",
"423 512 OFFCURVE",
"423 470 CURVE SMOOTH",
"423 382 OFFCURVE",
"50 301 OFFCURVE",
"50 135 CURVE SMOOTH",
"50 56 OFFCURVE",
"106 -11 OFFCURVE",
"282 -11 CURVE SMOOTH",
"452 -11 OFFCURVE",
"601 61 OFFCURVE",
"601 179 CURVE SMOOTH",
"601 246 OFFCURVE",
"546 292 OFFCURVE",
"462 292 CURVE SMOOTH",
"393 292 OFFCURVE",
"340 235 OFFCURVE",
"340 179 CURVE SMOOTH",
"340 96 OFFCURVE",
"396 43 OFFCURVE",
"402 34 CURVE"
);
},
{
closed = 1;
nodes = (
"340 81 OFFCURVE",
"442 -58 OFFCURVE",
"489 -58 CURVE SMOOTH",
"521 -58 OFFCURVE",
"569 -2 OFFCURVE",
"569 20 CURVE SMOOTH",
"569 23 OFFCURVE",
"568 25 OFFCURVE",
"566 25 CURVE SMOOTH",
"562 25 OFFCURVE",
"554 16 OFFCURVE",
"543 16 CURVE SMOOTH",
"521 16 OFFCURVE",
"430 66 OFFCURVE",
"430 170 CURVE SMOOTH",
"430 190 OFFCURVE",
"432 219 OFFCURVE",
"459 219 CURVE SMOOTH",
"482 219 OFFCURVE",
"497 204 OFFCURVE",
"497 174 CURVE SMOOTH",
"497 109 OFFCURVE",
"384 80 OFFCURVE",
"289 80 CURVE SMOOTH",
"218 80 OFFCURVE",
"169 101 OFFCURVE",
"169 141 CURVE SMOOTH",
"169 240 OFFCURVE",
"524 301 OFFCURVE",
"524 475 CURVE SMOOTH",
"524 555 OFFCURVE",
"461 619 OFFCURVE",
"336 619 CURVE SMOOTH",
"242 619 OFFCURVE",
"158 563 OFFCURVE",
"158 487 CURVE SMOOTH",
"158 420 OFFCURVE",
"230 372 OFFCURVE",
"262 372 CURVE SMOOTH",
"292 372 OFFCURVE",
"327 431 OFFCURVE",
"327 468 CURVE SMOOTH",
"327 471 OFFCURVE",
"326 474 OFFCURVE",
"323 474 CURVE SMOOTH",
"317 474 OFFCURVE",
"309 459 OFFCURVE",
"299 459 CURVE SMOOTH",
"284 459 OFFCURVE",
"262 470 OFFCURVE",
"262 491 CURVE SMOOTH",
"262 514 OFFCURVE",
"281 528 OFFCURVE",
"328 528 CURVE SMOOTH",
"390 528 OFFCURVE",
"423 512 OFFCURVE",
"423 470 CURVE SMOOTH",
"423 382 OFFCURVE",
"50 301 OFFCURVE",
"50 135 CURVE SMOOTH",
"50 56 OFFCURVE",
"106 -11 OFFCURVE",
"282 -11 CURVE SMOOTH",
"452 -11 OFFCURVE",
"601 61 OFFCURVE",
"601 179 CURVE SMOOTH",
"601 246 OFFCURVE",
"546 292 OFFCURVE",
"462 292 CURVE SMOOTH",
"393 292 OFFCURVE",
"340 235 OFFCURVE",
"340 179 CURVE SMOOTH"
);
},
{
closed = 1;
nodes = (
"394 112 OFFCURVE",
"345 140 OFFCURVE",
"345 198 CURVE SMOOTH",
"345 254 OFFCURVE",
"393 292 OFFCURVE",
"462 292 CURVE SMOOTH",
"546 292 OFFCURVE",
"601 246 OFFCURVE",
"601 179 CURVE SMOOTH",
"601 61 OFFCURVE",
"452 -11 OFFCURVE",
"282 -11 CURVE SMOOTH",
"106 -11 OFFCURVE",
"50 56 OFFCURVE",
"50 135 CURVE SMOOTH",
"50 301 OFFCURVE",
"423 382 OFFCURVE",
"423 470 CURVE SMOOTH",
"423 512 OFFCURVE",
"390 528 OFFCURVE",
"328 528 CURVE SMOOTH",
"281 528 OFFCURVE",
"262 514 OFFCURVE",
"262 491 CURVE SMOOTH",
"262 470 OFFCURVE",
"284 459 OFFCURVE",
"299 459 CURVE SMOOTH",
"306 459 OFFCURVE",
"317 474 OFFCURVE",
"323 474 CURVE SMOOTH",
"326 474 OFFCURVE",
"328 472 OFFCURVE",
"328 467 CURVE SMOOTH",
"328 431 OFFCURVE",
"292 372 OFFCURVE",
"262 372 CURVE SMOOTH",
"230 372 OFFCURVE",
"158 420 OFFCURVE",
"158 487 CURVE SMOOTH",
"158 563 OFFCURVE",
"242 619 OFFCURVE",
"336 619 CURVE SMOOTH",
"461 619 OFFCURVE",
"524 555 OFFCURVE",
"524 475 CURVE SMOOTH",
"524 301 OFFCURVE",
"169 240 OFFCURVE",
"169 141 CURVE SMOOTH",
"169 101 OFFCURVE",
"218 80 OFFCURVE",
"289 80 CURVE SMOOTH",
"384 80 OFFCURVE",
"497 109 OFFCURVE",
"497 174 CURVE SMOOTH",
"497 204 OFFCURVE",
"481 219 OFFCURVE",
"457 219 CURVE SMOOTH",
"434 219 OFFCURVE",
"430 200 OFFCURVE",
"430 169 CURVE SMOOTH",
"430 137 OFFCURVE",
"434 112 OFFCURVE",
"412 112 CURVE SMOOTH"
);
},
{
closed = 1;
nodes = (
"394 112 OFFCURVE",
"345 140 OFFCURVE",
"345 198 CURVE SMOOTH",
"345 254 OFFCURVE",
"393 292 OFFCURVE",
"462 292 CURVE SMOOTH",
"546 292 OFFCURVE",
"601 246 OFFCURVE",
"601 179 CURVE SMOOTH",
"601 61 OFFCURVE",
"452 -11 OFFCURVE",
"282 -11 CURVE SMOOTH",
"106 -11 OFFCURVE",
"50 56 OFFCURVE",
"50 135 CURVE SMOOTH",
"50 301 OFFCURVE",
"423 382 OFFCURVE",
"423 470 CURVE SMOOTH",
"423 512 OFFCURVE",
"390 528 OFFCURVE",
"328 528 CURVE SMOOTH",
"281 528 OFFCURVE",
"262 514 OFFCURVE",
"262 491 CURVE SMOOTH",
"262 470 OFFCURVE",
"284 459 OFFCURVE",
"299 459 CURVE SMOOTH",
"306 459 OFFCURVE",
"317 474 OFFCURVE",
"323 474 CURVE SMOOTH",
"326 474 OFFCURVE",
"328 472 OFFCURVE",
"328 467 CURVE SMOOTH",
"328 431 OFFCURVE",
"292 372 OFFCURVE",
"262 372 CURVE SMOOTH",
"230 372 OFFCURVE",
"158 420 OFFCURVE",
"158 487 CURVE SMOOTH",
"158 563 OFFCURVE",
"242 619 OFFCURVE",
"336 619 CURVE SMOOTH",
"461 619 OFFCURVE",
"524 555 OFFCURVE",
"524 475 CURVE SMOOTH",
"524 301 OFFCURVE",
"169 240 OFFCURVE",
"169 141 CURVE SMOOTH",
"169 101 OFFCURVE",
"218 80 OFFCURVE",
"289 80 CURVE SMOOTH",
"384 80 OFFCURVE",
"497 109 OFFCURVE",
"497 174 CURVE SMOOTH",
"497 204 OFFCURVE",
"481 219 OFFCURVE",
"457 219 CURVE SMOOTH",
"434 219 OFFCURVE",
"430 200 OFFCURVE",
"430 169 CURVE SMOOTH",
"430 137 OFFCURVE",
"434 112 OFFCURVE",
"412 112 CURVE SMOOTH"
);
}
);
};
layerId = "9F2BC935-6AE7-4E60-84C9-D3B586669EA4";
paths = (
{
closed = 1;
nodes = (
"340 67 OFFCURVE",
"453 -64 OFFCURVE",
"500 -64 CURVE SMOOTH",
"532 -64 OFFCURVE",
"577 -10 OFFCURVE",
"577 12 CURVE SMOOTH",
"577 17 OFFCURVE",
"576 20 OFFCURVE",
"573 20 CURVE SMOOTH",
"569 20 OFFCURVE",
"559 10 OFFCURVE",
"554 10 CURVE SMOOTH",
"532 10 OFFCURVE",
"430 66 OFFCURVE",
"430 170 CURVE SMOOTH",
"430 190 OFFCURVE",
"432 219 OFFCURVE",
"459 219 CURVE SMOOTH",
"482 219 OFFCURVE",
"497 204 OFFCURVE",
"497 174 CURVE SMOOTH",
"497 109 OFFCURVE",
"384 80 OFFCURVE",
"289 80 CURVE SMOOTH",
"218 80 OFFCURVE",
"169 101 OFFCURVE",
"169 141 CURVE SMOOTH",
"169 240 OFFCURVE",
"524 301 OFFCURVE",
"524 475 CURVE SMOOTH",
"524 555 OFFCURVE",
"461 619 OFFCURVE",
"336 619 CURVE SMOOTH",
"242 619 OFFCURVE",
"158 563 OFFCURVE",
"158 487 CURVE SMOOTH",
"158 420 OFFCURVE",
"230 372 OFFCURVE",
"262 372 CURVE SMOOTH",
"292 372 OFFCURVE",
"327 431 OFFCURVE",
"327 468 CURVE SMOOTH",
"327 471 OFFCURVE",
"326 474 OFFCURVE",
"323 474 CURVE SMOOTH",
"317 474 OFFCURVE",
"309 459 OFFCURVE",
"299 459 CURVE SMOOTH",
"284 459 OFFCURVE",
"262 470 OFFCURVE",
"262 491 CURVE SMOOTH",
"262 514 OFFCURVE",
"281 528 OFFCURVE",
"328 528 CURVE SMOOTH",
"390 528 OFFCURVE",
"423 512 OFFCURVE",
"423 470 CURVE SMOOTH",
"423 382 OFFCURVE",
"50 301 OFFCURVE",
"50 135 CURVE SMOOTH",
"50 56 OFFCURVE",
"106 -11 OFFCURVE",
"282 -11 CURVE SMOOTH",
"452 -11 OFFCURVE",
"591 70 OFFCURVE",
"591 179 CURVE SMOOTH",
"591 246 OFFCURVE",
"536 292 OFFCURVE",
"462 292 CURVE SMOOTH",
"393 292 OFFCURVE",
"340 255 OFFCURVE",
"340 175 CURVE SMOOTH"
);
}
);
width = 631;
}
);
unicode = 0B61;
},
{
glyphname = "e-oriya";
lastChange = "2021-11-01 09:12:50 +0000";
layers = (
{
background = {
paths = (
{
closed = 1;
nodes = (
"511 22 OFFCURVE",
"522 0 OFFCURVE",
"538 0 CURVE SMOOTH",
"555 0 OFFCURVE",
"615 64 OFFCURVE",
"615 84 CURVE SMOOTH",
"615 102 OFFCURVE",
"591 109 OFFCURVE",
"591 132 CURVE SMOOTH",
"591 188 OFFCURVE",
"637 434 OFFCURVE",
"637 533 CURVE SMOOTH",
"637 594 OFFCURVE",
"615 611 OFFCURVE",
"558 611 CURVE SMOOTH",
"399 611 OFFCURVE",
"254 507 OFFCURVE",
"254 434 CURVE SMOOTH",
"254 372 OFFCURVE",
"312 299 OFFCURVE",
"354 299 CURVE SMOOTH",
"386 299 OFFCURVE",
"428 357 OFFCURVE",
"428 394 CURVE SMOOTH",
"428 401 OFFCURVE",
"426 403 OFFCURVE",
"423 403 CURVE SMOOTH",
"416 403 OFFCURVE",
"406 388 OFFCURVE",
"399 388 CURVE SMOOTH",
"375 388 OFFCURVE",
"351 417 OFFCURVE",
"351 431 CURVE SMOOTH",
"351 459 OFFCURVE",
"449 509 OFFCURVE",
"511 509 CURVE SMOOTH",
"530 509 OFFCURVE",
"535 503 OFFCURVE",
"535 480 CURVE SMOOTH",
"535 419 OFFCURVE",
"490 199 OFFCURVE",
"489 113 CURVE",
"305 113 OFFCURVE",
"176 237 OFFCURVE",
"176 353 CURVE SMOOTH",
"176 455 OFFCURVE",
"224 567 OFFCURVE",
"224 589 CURVE SMOOTH",
"224 602 OFFCURVE",
"218 606 OFFCURVE",
"211 606 CURVE SMOOTH",
"175 606 OFFCURVE",
"58 488 OFFCURVE",
"58 334 CURVE SMOOTH",
"58 177 OFFCURVE",
"183 22 OFFCURVE",
"484 22 CURVE SMOOTH"
);
}
);
};
layerId = "555B79C6-6D98-46E7-9307-77C37975E414";
paths = (
{
closed = 1;
nodes = (
"511 9 OFFCURVE",
"522 -13 OFFCURVE",
"538 -13 CURVE SMOOTH",
"560 -13 OFFCURVE",
"627 54 OFFCURVE",
"627 84 CURVE SMOOTH",
"627 102 OFFCURVE",
"603 109 OFFCURVE",
"603 132 CURVE SMOOTH",
"603 188 OFFCURVE",
"646 434 OFFCURVE",
"649 533 CURVE SMOOTH",
"651 596 OFFCURVE",
"627 621 OFFCURVE",
"558 621 CURVE SMOOTH",
"399 621 OFFCURVE",
"239 517 OFFCURVE",
"239 434 CURVE SMOOTH",
"239 359 OFFCURVE",
"312 281 OFFCURVE",
"354 281 CURVE SMOOTH",
"393 281 OFFCURVE",
"436 357 OFFCURVE",
"436 388 CURVE SMOOTH",
"436 401 OFFCURVE",
"434 413 OFFCURVE",
"425 413 CURVE SMOOTH",
"418 413 OFFCURVE",
"406 398 OFFCURVE",
"399 398 CURVE SMOOTH",
"388 398 OFFCURVE",
"366 417 OFFCURVE",
"366 431 CURVE SMOOTH",
"366 453 OFFCURVE",
"449 494 OFFCURVE",
"507 494 CURVE SMOOTH",
"518 494 OFFCURVE",
"520 489 OFFCURVE",
"520 478 CURVE SMOOTH",
"520 419 OFFCURVE",
"475 214 OFFCURVE",
"474 128 CURVE",
"337 128 OFFCURVE",
"191 237 OFFCURVE",
"191 353 CURVE SMOOTH",
"191 455 OFFCURVE",
"234 551 OFFCURVE",
"234 589 CURVE SMOOTH",
"234 606 OFFCURVE",
"227 619 OFFCURVE",
"211 619 CURVE SMOOTH",
"173 619 OFFCURVE",
"40 503 OFFCURVE",
"40 334 CURVE SMOOTH",
"40 161 OFFCURVE",
"183 9 OFFCURVE",
"484 9 CURVE SMOOTH"
);
}
);
width = 669;
},
{
background = {
paths = (
{
closed = 1;
nodes = (
"393 659 OFFCURVE",
"268 574 OFFCURVE",
"268 466 CURVE SMOOTH",
"268 393 OFFCURVE",
"346 328 OFFCURVE",
"380 328 CURVE SMOOTH",
"422 328 OFFCURVE",
"476 402 OFFCURVE",
"476 431 CURVE SMOOTH",
"476 436 OFFCURVE",
"473 439 OFFCURVE",
"468 439 CURVE SMOOTH",
"462 439 OFFCURVE",
"445 411 OFFCURVE",
"432 411 CURVE SMOOTH",
"391 410 OFFCURVE",
"363 450 OFFCURVE",
"363 485 CURVE SMOOTH",
"363 526 OFFCURVE",
"422 569 OFFCURVE",
"472 569 CURVE SMOOTH",
"546 569 OFFCURVE",
"573 494 OFFCURVE",
"573 435 CURVE SMOOTH",
"573 376 OFFCURVE",
"528 114 OFFCURVE",
"512 114 CURVE SMOOTH",
"325 110 OFFCURVE",
"165 243 OFFCURVE",
"165 434 CURVE SMOOTH",
"165 513 OFFCURVE",
"185 578 OFFCURVE",
"185 622 CURVE SMOOTH",
"185 630 OFFCURVE",
"182 638 OFFCURVE",
"172 638 CURVE SMOOTH",
"136 638 OFFCURVE",
"80 504 OFFCURVE",
"80 390 CURVE SMOOTH",
"80 136 OFFCURVE",
"267 24 OFFCURVE",
"509 24 CURVE SMOOTH",
"534 24 OFFCURVE",
"536 1 OFFCURVE",
"552 1 CURVE SMOOTH",
"567 1 OFFCURVE",
"630 67 OFFCURVE",
"632 88 CURVE SMOOTH",
"634 106 OFFCURVE",
"617 109 OFFCURVE",
"617 132 CURVE SMOOTH",
"617 187 OFFCURVE",
"677 420 OFFCURVE",
"677 479 CURVE SMOOTH",
"677 572 OFFCURVE",
"604 659 OFFCURVE",
"478 659 CURVE SMOOTH"
);
},
{
closed = 1;
nodes = (
"518 15 OFFCURVE",
"504 7 OFFCURVE",
"525 6 CURVE SMOOTH",
"542 5 OFFCURVE",
"594 66 OFFCURVE",
"596 86 CURVE SMOOTH",
"598 104 OFFCURVE",
"583 109 OFFCURVE",
"583 132 CURVE SMOOTH",
"583 188 OFFCURVE",
"625 434 OFFCURVE",
"625 542 CURVE SMOOTH",
"625 594 OFFCURVE",
"612 611 OFFCURVE",
"560 611 CURVE SMOOTH",
"396 611 OFFCURVE",
"239 509 OFFCURVE",
"239 436 CURVE SMOOTH",
"239 366 OFFCURVE",
"303 303 OFFCURVE",
"335 303 CURVE SMOOTH",
"368 303 OFFCURVE",
"420 356 OFFCURVE",
"420 397 CURVE SMOOTH",
"420 399 OFFCURVE",
"419 403 OFFCURVE",
"414 403 CURVE SMOOTH",
"408 403 OFFCURVE",
"401 388 OFFCURVE",
"391 388 CURVE SMOOTH",
"367 388 OFFCURVE",
"343 404 OFFCURVE",
"343 428 CURVE SMOOTH",
"343 466 OFFCURVE",
"445 505 OFFCURVE",
"505 505 CURVE SMOOTH",
"526 505 OFFCURVE",
"521 468 OFFCURVE",
"520 442 CURVE SMOOTH",
"518 384 OFFCURVE",
"483 108 OFFCURVE",
"475 108 CURVE SMOOTH",
"280 108 OFFCURVE",
"157 229 OFFCURVE",
"157 365 CURVE SMOOTH",
"157 451 OFFCURVE",
"207 568 OFFCURVE",
"207 595 CURVE SMOOTH",
"207 603 OFFCURVE",
"200 606 OFFCURVE",
"193 606 CURVE SMOOTH",
"157 606 OFFCURVE",
"46 488 OFFCURVE",
"46 323 CURVE SMOOTH",
"46 177 OFFCURVE",
"159 15 OFFCURVE",
"476 15 CURVE SMOOTH"
);
}
);
};
layerId = "9F2BC935-6AE7-4E60-84C9-D3B586669EA4";
paths = (
{
closed = 1;
nodes = (
"503 22 OFFCURVE",
"514 0 OFFCURVE",
"530 0 CURVE SMOOTH",
"547 0 OFFCURVE",
"605 64 OFFCURVE",
"607 84 CURVE SMOOTH",
"609 102 OFFCURVE",
"583 109 OFFCURVE",
"583 132 CURVE SMOOTH",
"583 188 OFFCURVE",
"629 434 OFFCURVE",
"629 533 CURVE SMOOTH",
"629 594 OFFCURVE",
"607 611 OFFCURVE",
"550 611 CURVE SMOOTH",
"391 611 OFFCURVE",
"246 507 OFFCURVE",
"246 434 CURVE SMOOTH",
"246 372 OFFCURVE",
"304 299 OFFCURVE",
"346 299 CURVE SMOOTH",
"378 299 OFFCURVE",
"420 357 OFFCURVE",
"420 394 CURVE SMOOTH",
"420 401 OFFCURVE",
"418 403 OFFCURVE",
"415 403 CURVE SMOOTH",
"408 403 OFFCURVE",
"398 388 OFFCURVE",
"391 388 CURVE SMOOTH",
"367 388 OFFCURVE",
"343 417 OFFCURVE",
"343 431 CURVE SMOOTH",
"343 459 OFFCURVE",
"441 509 OFFCURVE",
"503 509 CURVE SMOOTH",
"522 509 OFFCURVE",
"527 503 OFFCURVE",
"527 480 CURVE SMOOTH",
"527 419 OFFCURVE",
"482 199 OFFCURVE",
"481 113 CURVE",
"297 113 OFFCURVE",
"168 237 OFFCURVE",
"168 353 CURVE SMOOTH",
"168 455 OFFCURVE",
"216 567 OFFCURVE",
"216 589 CURVE SMOOTH",
"216 602 OFFCURVE",
"210 606 OFFCURVE",
"203 606 CURVE SMOOTH",
"167 606 OFFCURVE",
"50 488 OFFCURVE",
"50 334 CURVE SMOOTH",
"50 177 OFFCURVE",
"175 22 OFFCURVE",
"476 22 CURVE SMOOTH"
);
}
);
width = 669;
}
);
unicode = 0B0F;
},
{
glyphname = "aiVowel-oriya";
lastChange = "2021-11-05 16:34:40 +0000";
layers = (
{
background = {
paths = (
{
closed = 1;
nodes = (
"596 301 LINE",
"639 257 OFFCURVE",
"691 244 OFFCURVE",
"713 263 CURVE",
"722 377 LINE",
"717 323 OFFCURVE",
"626 349 OFFCURVE",
"596 373 CURVE"
);
},
{
closed = 1;
nodes = (
"503 22 OFFCURVE",
"514 0 OFFCURVE",
"530 0 CURVE SMOOTH",
"547 0 OFFCURVE",
"605 64 OFFCURVE",
"607 84 CURVE SMOOTH",
"609 102 OFFCURVE",
"583 109 OFFCURVE",
"583 132 CURVE SMOOTH",
"583 188 OFFCURVE",
"629 434 OFFCURVE",
"629 533 CURVE SMOOTH",
"629 594 OFFCURVE",
"607 611 OFFCURVE",
"550 611 CURVE SMOOTH",
"391 611 OFFCURVE",
"246 507 OFFCURVE",
"246 434 CURVE SMOOTH",
"246 372 OFFCURVE",
"304 299 OFFCURVE",
"346 299 CURVE SMOOTH",
"378 299 OFFCURVE",
"420 357 OFFCURVE",
"420 394 CURVE SMOOTH",
"420 401 OFFCURVE",
"418 403 OFFCURVE",
"415 403 CURVE SMOOTH",
"408 403 OFFCURVE",
"398 388 OFFCURVE",
"391 388 CURVE SMOOTH",
"367 388 OFFCURVE",
"343 417 OFFCURVE",
"343 431 CURVE SMOOTH",
"343 459 OFFCURVE",
"441 509 OFFCURVE",
"503 509 CURVE SMOOTH",
"522 509 OFFCURVE",
"527 503 OFFCURVE",
"527 480 CURVE SMOOTH",
"527 419 OFFCURVE",
"482 199 OFFCURVE",
"481 113 CURVE",
"297 113 OFFCURVE",
"168 237 OFFCURVE",
"168 353 CURVE SMOOTH",
"168 455 OFFCURVE",
"216 567 OFFCURVE",
"216 589 CURVE SMOOTH",
"216 602 OFFCURVE",
"210 606 OFFCURVE",
"203 606 CURVE SMOOTH",
"167 606 OFFCURVE",
"50 488 OFFCURVE",
"50 334 CURVE SMOOTH",
"50 177 OFFCURVE",
"175 22 OFFCURVE",
"476 22 CURVE SMOOTH"
);
},
{
closed = 1;
nodes = (
"313 712 OFFCURVE",
"380 666 OFFCURVE",
"449 666 CURVE SMOOTH",
"526 666 OFFCURVE",
"724 718 OFFCURVE",
"764 718 CURVE SMOOTH",
"792 718 OFFCURVE",
"802 692 OFFCURVE",
"802 681 CURVE SMOOTH",
"802 658 OFFCURVE",
"778 630 OFFCURVE",
"753 609 CURVE SMOOTH",
"747 604 OFFCURVE",
"745 599 OFFCURVE",
"744 589 CURVE SMOOTH",
"733 483 OFFCURVE",
"694 108 OFFCURVE",
"690 80 CURVE SMOOTH",
"685 43 OFFCURVE",
"677 0 OFFCURVE",
"704 0 CURVE SMOOTH",
"748 0 OFFCURVE",
"807 112 OFFCURVE",
"815 191 CURVE SMOOTH",
"828 326 OFFCURVE",
"843 514 OFFCURVE",
"850 589 CURVE",
"865 603 OFFCURVE",
"911 652 OFFCURVE",
"911 712 CURVE SMOOTH",
"911 762 OFFCURVE",
"869 823 OFFCURVE",
"795 823 CURVE SMOOTH",
"716 823 OFFCURVE",
"507 761 OFFCURVE",
"450 761 CURVE SMOOTH",
"424 761 OFFCURVE",
"404 786 OFFCURVE",
"404 804 CURVE SMOOTH",
"404 821 OFFCURVE",
"434 836 OFFCURVE",
"434 846 CURVE SMOOTH",
"434 852 OFFCURVE",
"421 854 OFFCURVE",
"411 854 CURVE SMOOTH",
"363 854 OFFCURVE",
"313 808 OFFCURVE",
"313 769 CURVE SMOOTH"
);
}
);
};
layerId = "555B79C6-6D98-46E7-9307-77C37975E414";
paths = (
{
closed = 1;
nodes = (
"596 291 LINE",
"639 247 OFFCURVE",
"691 234 OFFCURVE",
"713 253 CURVE",
"722 392 LINE",
"717 338 OFFCURVE",
"626 364 OFFCURVE",
"596 388 CURVE"
);
},
{
closed = 1;
nodes = (
"298 702 OFFCURVE",
"370 651 OFFCURVE",
"449 651 CURVE SMOOTH",
"536 651 OFFCURVE",
"724 708 OFFCURVE",
"764 708 CURVE SMOOTH",
"782 708 OFFCURVE",
"792 692 OFFCURVE",
"792 681 CURVE SMOOTH",
"792 658 OFFCURVE",
"772 633 OFFCURVE",
"751 612 CURVE SMOOTH",
"745 606 OFFCURVE",
"742 601 OFFCURVE",
"741 590 CURVE SMOOTH",
"731 484 OFFCURVE",
"702 172 OFFCURVE",
"689 78 CURVE SMOOTH",
"684 41 OFFCURVE",
"680 -2 OFFCURVE",
"707 -2 CURVE SMOOTH",
"751 -2 OFFCURVE",
"831 73 OFFCURVE",
"841 189 CURVE SMOOTH",
"854 340 OFFCURVE",
"870 544 OFFCURVE",
"876 588 CURVE",
"891 602 OFFCURVE",
"927 655 OFFCURVE",
"927 712 CURVE SMOOTH",
"927 770 OFFCURVE",
"871 833 OFFCURVE",
"795 833 CURVE SMOOTH",
"713 833 OFFCURVE",
"507 771 OFFCURVE",
"450 771 CURVE SMOOTH",
"433 771 OFFCURVE",
"414 789 OFFCURVE",
"414 804 CURVE SMOOTH",
"414 818 OFFCURVE",
"444 834 OFFCURVE",
"444 846 CURVE SMOOTH",
"444 853 OFFCURVE",
"434 863 OFFCURVE",
"411 863 CURVE SMOOTH",
"358 863 OFFCURVE",
"298 815 OFFCURVE",
"298 769 CURVE SMOOTH"
);
},
{
closed = 1;
nodes = (
"511 9 OFFCURVE",
"522 -13 OFFCURVE",
"538 -13 CURVE SMOOTH",
"560 -13 OFFCURVE",
"627 54 OFFCURVE",
"627 84 CURVE SMOOTH",
"627 102 OFFCURVE",
"603 109 OFFCURVE",
"603 132 CURVE SMOOTH",
"603 188 OFFCURVE",
"646 434 OFFCURVE",
"649 533 CURVE SMOOTH",
"651 596 OFFCURVE",
"627 621 OFFCURVE",
"558 621 CURVE SMOOTH",
"399 621 OFFCURVE",
"239 517 OFFCURVE",
"239 434 CURVE SMOOTH",
"239 359 OFFCURVE",
"312 281 OFFCURVE",
"354 281 CURVE SMOOTH",
"393 281 OFFCURVE",
"436 357 OFFCURVE",
"436 388 CURVE SMOOTH",
"436 401 OFFCURVE",
"434 413 OFFCURVE",
"425 413 CURVE SMOOTH",
"418 413 OFFCURVE",
"406 398 OFFCURVE",
"399 398 CURVE SMOOTH",
"388 398 OFFCURVE",
"366 417 OFFCURVE",
"366 431 CURVE SMOOTH",
"366 453 OFFCURVE",
"449 494 OFFCURVE",
"507 494 CURVE SMOOTH",
"518 494 OFFCURVE",
"520 489 OFFCURVE",
"520 478 CURVE SMOOTH",
"520 419 OFFCURVE",
"475 214 OFFCURVE",
"474 128 CURVE",
"349 128 OFFCURVE",
"191 225 OFFCURVE",
"191 359 CURVE SMOOTH",
"191 455 OFFCURVE",
"234 551 OFFCURVE",
"234 589 CURVE SMOOTH",
"234 606 OFFCURVE",
"227 619 OFFCURVE",
"211 619 CURVE SMOOTH",
"173 619 OFFCURVE",
"40 503 OFFCURVE",
"40 334 CURVE SMOOTH",
"40 161 OFFCURVE",
"183 9 OFFCURVE",
"484 9 CURVE SMOOTH"
);
}
);
width = 947;
},
{
background = {
paths = (
{
closed = 1;
nodes = (
"596 301 LINE",
"639 257 OFFCURVE",
"691 244 OFFCURVE",
"713 263 CURVE",
"722 377 LINE",
"717 323 OFFCURVE",
"626 349 OFFCURVE",
"596 373 CURVE"
);
},
{
closed = 1;
nodes = (
"503 22 OFFCURVE",
"514 0 OFFCURVE",
"530 0 CURVE SMOOTH",
"547 0 OFFCURVE",
"605 64 OFFCURVE",
"607 84 CURVE SMOOTH",
"609 102 OFFCURVE",
"583 109 OFFCURVE",
"583 132 CURVE SMOOTH",
"583 188 OFFCURVE",
"629 434 OFFCURVE",
"629 533 CURVE SMOOTH",
"629 594 OFFCURVE",
"607 611 OFFCURVE",
"550 611 CURVE SMOOTH",
"391 611 OFFCURVE",
"246 507 OFFCURVE",
"246 434 CURVE SMOOTH",
"246 372 OFFCURVE",
"304 299 OFFCURVE",
"346 299 CURVE SMOOTH",
"378 299 OFFCURVE",
"420 357 OFFCURVE",
"420 394 CURVE SMOOTH",
"420 401 OFFCURVE",
"418 403 OFFCURVE",
"415 403 CURVE SMOOTH",
"408 403 OFFCURVE",
"398 388 OFFCURVE",
"391 388 CURVE SMOOTH",
"367 388 OFFCURVE",
"343 417 OFFCURVE",
"343 431 CURVE SMOOTH",
"343 459 OFFCURVE",
"441 509 OFFCURVE",
"503 509 CURVE SMOOTH",
"522 509 OFFCURVE",
"527 503 OFFCURVE",
"527 480 CURVE SMOOTH",
"527 419 OFFCURVE",
"482 199 OFFCURVE",
"481 113 CURVE",
"297 113 OFFCURVE",
"168 237 OFFCURVE",
"168 353 CURVE SMOOTH",
"168 455 OFFCURVE",
"216 567 OFFCURVE",
"216 589 CURVE SMOOTH",
"216 602 OFFCURVE",
"210 606 OFFCURVE",
"203 606 CURVE SMOOTH",
"167 606 OFFCURVE",
"50 488 OFFCURVE",
"50 334 CURVE SMOOTH",
"50 177 OFFCURVE",
"175 22 OFFCURVE",
"476 22 CURVE SMOOTH"
);
},
{
closed = 1;
nodes = (
"313 712 OFFCURVE",
"380 666 OFFCURVE",
"449 666 CURVE SMOOTH",
"526 666 OFFCURVE",
"724 718 OFFCURVE",
"764 718 CURVE SMOOTH",
"792 718 OFFCURVE",
"802 692 OFFCURVE",
"802 681 CURVE SMOOTH",
"802 658 OFFCURVE",
"778 630 OFFCURVE",
"753 609 CURVE SMOOTH",
"747 604 OFFCURVE",
"745 599 OFFCURVE",
"744 589 CURVE SMOOTH",
"733 483 OFFCURVE",
"693 97 OFFCURVE",
"689 69 CURVE SMOOTH",
"684 32 OFFCURVE",
"676 -11 OFFCURVE",
"703 -11 CURVE SMOOTH",
"747 -11 OFFCURVE",
"806 101 OFFCURVE",
"814 180 CURVE SMOOTH",
"827 315 OFFCURVE",
"843 514 OFFCURVE",
"850 589 CURVE",
"865 603 OFFCURVE",
"911 652 OFFCURVE",
"911 712 CURVE SMOOTH",
"911 762 OFFCURVE",
"869 823 OFFCURVE",
"795 823 CURVE SMOOTH",
"716 823 OFFCURVE",
"507 761 OFFCURVE",
"450 761 CURVE SMOOTH",
"424 761 OFFCURVE",
"404 786 OFFCURVE",
"404 804 CURVE SMOOTH",
"404 821 OFFCURVE",
"434 836 OFFCURVE",
"434 846 CURVE SMOOTH",
"434 852 OFFCURVE",
"421 854 OFFCURVE",
"411 854 CURVE SMOOTH",
"363 854 OFFCURVE",
"313 808 OFFCURVE",
"313 769 CURVE SMOOTH"
);
}
);
};
layerId = "9F2BC935-6AE7-4E60-84C9-D3B586669EA4";
paths = (
{
closed = 1;
nodes = (
"596 301 LINE",
"639 257 OFFCURVE",
"691 244 OFFCURVE",
"713 263 CURVE",
"722 377 LINE",
"717 323 OFFCURVE",
"626 349 OFFCURVE",
"596 373 CURVE"
);
},
{
closed = 1;
nodes = (
"503 22 OFFCURVE",
"514 0 OFFCURVE",
"530 0 CURVE SMOOTH",
"547 0 OFFCURVE",
"605 64 OFFCURVE",
"607 84 CURVE SMOOTH",
"609 102 OFFCURVE",
"583 109 OFFCURVE",
"583 132 CURVE SMOOTH",
"583 188 OFFCURVE",
"629 434 OFFCURVE",
"629 533 CURVE SMOOTH",
"629 594 OFFCURVE",
"607 611 OFFCURVE",
"550 611 CURVE SMOOTH",
"391 611 OFFCURVE",
"246 507 OFFCURVE",
"246 434 CURVE SMOOTH",
"246 372 OFFCURVE",
"304 299 OFFCURVE",
"346 299 CURVE SMOOTH",
"378 299 OFFCURVE",
"420 357 OFFCURVE",
"420 394 CURVE SMOOTH",
"420 401 OFFCURVE",
"418 403 OFFCURVE",
"415 403 CURVE SMOOTH",
"408 403 OFFCURVE",
"398 388 OFFCURVE",
"391 388 CURVE SMOOTH",
"367 388 OFFCURVE",
"343 417 OFFCURVE",
"343 431 CURVE SMOOTH",
"343 459 OFFCURVE",
"441 509 OFFCURVE",
"503 509 CURVE SMOOTH",
"522 509 OFFCURVE",
"527 503 OFFCURVE",
"527 480 CURVE SMOOTH",
"527 419 OFFCURVE",
"482 199 OFFCURVE",
"481 113 CURVE",
"297 113 OFFCURVE",
"168 237 OFFCURVE",
"168 353 CURVE SMOOTH",
"168 455 OFFCURVE",
"216 567 OFFCURVE",
"216 589 CURVE SMOOTH",
"216 602 OFFCURVE",
"210 606 OFFCURVE",
"203 606 CURVE SMOOTH",
"167 606 OFFCURVE",
"50 488 OFFCURVE",
"50 334 CURVE SMOOTH",
"50 177 OFFCURVE",
"175 22 OFFCURVE",
"476 22 CURVE SMOOTH"
);
},
{
closed = 1;
nodes = (
"313 712 OFFCURVE",
"380 666 OFFCURVE",
"449 666 CURVE SMOOTH",
"526 666 OFFCURVE",
"724 718 OFFCURVE",
"764 718 CURVE SMOOTH",
"792 718 OFFCURVE",
"802 692 OFFCURVE",
"802 681 CURVE SMOOTH",
"802 658 OFFCURVE",
"778 630 OFFCURVE",
"753 609 CURVE SMOOTH",
"747 604 OFFCURVE",
"745 599 OFFCURVE",
"744 589 CURVE SMOOTH",
"733 483 OFFCURVE",
"694 108 OFFCURVE",
"690 80 CURVE SMOOTH",
"685 43 OFFCURVE",
"677 0 OFFCURVE",
"704 0 CURVE SMOOTH",
"748 0 OFFCURVE",
"807 112 OFFCURVE",
"815 191 CURVE SMOOTH",
"828 326 OFFCURVE",
"843 514 OFFCURVE",
"850 589 CURVE",
"865 603 OFFCURVE",
"911 652 OFFCURVE",
"911 712 CURVE SMOOTH",
"911 762 OFFCURVE",
"869 823 OFFCURVE",
"795 823 CURVE SMOOTH",
"716 823 OFFCURVE",
"507 761 OFFCURVE",
"450 761 CURVE SMOOTH",
"424 761 OFFCURVE",
"404 786 OFFCURVE",
"404 804 CURVE SMOOTH",
"404 821 OFFCURVE",
"434 836 OFFCURVE",
"434 846 CURVE SMOOTH",
"434 852 OFFCURVE",
"421 854 OFFCURVE",
"411 854 CURVE SMOOTH",
"363 854 OFFCURVE",
"313 808 OFFCURVE",
"313 769 CURVE SMOOTH"
);
}
);
width = 897;
}
);
unicode = 0B10;
},
